<svg viewBox="0 0 46 46" fill="none" xmlns="http://www.w3.org/2000/svg">

<circle cx="23" cy="23" r="23" fill="white"/>
<g>
<path d="M17.8379 33.289C17.8379 34.5006 18.8236 35.4863 20.0351 35.4863C21.2467 35.4863 22.2324 34.5006 22.2324 33.289C22.2324 32.0775 21.2467 31.0918 20.0351 31.0918C18.8236 31.0918 17.8379 32.0775 17.8379 33.289ZM20.0351 32.5566C20.439 32.5566 20.7675 32.8852 20.7675 33.289C20.7675 33.6929 20.439 34.0214 20.0351 34.0214C19.6313 34.0214 19.3027 33.6929 19.3027 33.289C19.3027 32.8852 19.6313 32.5566 20.0351 32.5566Z" fill="#242424"/>
<path d="M25.2109 33.289C25.2109 34.5006 26.1966 35.4863 27.4082 35.4863C28.6197 35.4863 29.6054 34.5006 29.6054 33.289C29.6054 32.0775 28.6197 31.0918 27.4082 31.0918C26.1966 31.0918 25.2109 32.0775 25.2109 33.289ZM27.4082 32.5566C27.812 32.5566 28.1406 32.8852 28.1406 33.289C28.1406 33.6929 27.812 34.0214 27.4082 34.0214C27.0043 34.0214 26.6758 33.6929 26.6758 33.289C26.6758 32.8852 27.0043 32.5566 27.4082 32.5566Z" fill="#242424"/>
<path d="M33.2672 16.4433H14.7283C14.4775 15.5654 14.2438 14.7475 14.0431 14.0449C13.9533 13.7305 13.6658 13.5137 13.3388 13.5137H9.73241C9.32792 13.5137 9 13.8416 9 14.2461C9 14.6506 9.32792 14.9785 9.73241 14.9785H12.7864C13.6054 17.8454 15.5201 24.5471 16.3228 27.3567L16.0453 27.9116C15.3142 29.3742 16.379 31.0915 18.0106 31.0915H30.3376C30.742 31.0915 31.07 30.7636 31.07 30.3591C31.07 29.9546 30.742 29.6267 30.3376 29.6267H18.0106C17.4659 29.6267 17.1122 29.0536 17.3555 28.5668L17.558 28.1619H30.3376C30.6646 28.1619 30.952 27.9451 31.0418 27.6307L33.9714 17.3769C34.1049 16.9099 33.754 16.4433 33.2672 16.4433ZM29.7851 26.6971H17.6578C17.2588 25.3003 16.1419 21.3912 15.1468 17.9081H32.2963L29.7851 26.6971Z" fill="#242424"/>
</g>

</svg>