<svg  viewBox="0 0 26 23" fill="none" xmlns="http://www.w3.org/2000/svg">
<path d="M18.7295 0.693359C17.7408 0.694509 16.7627 0.898213 15.8558 1.29191C14.9488 1.6856 14.1321 2.26093 13.4561 2.98242C12.4653 1.92504 11.1796 1.18991 9.76579 0.872469C8.35199 0.555025 6.87541 0.669927 5.52773 1.20226C4.18006 1.73459 3.02353 2.65977 2.2083 3.85768C1.39306 5.05559 0.956768 6.47092 0.956055 7.91992C0.956055 15.1152 12.5615 22.1777 13.0654 22.4551C13.1869 22.5281 13.326 22.5666 13.4678 22.5666C13.6095 22.5666 13.7486 22.5281 13.8701 22.4551C14.3506 22.1777 25.9561 15.1152 25.9561 7.91992C25.954 6.00395 25.192 4.16705 23.8372 2.81225C22.4824 1.45746 20.6455 0.695427 18.7295 0.693359ZM13.4561 20.8652C11.4365 19.5762 2.51855 13.5527 2.51855 7.91992C2.51956 6.71678 2.90365 5.5452 3.61518 4.575C4.3267 3.60479 5.32868 2.88636 6.47591 2.52383C7.62314 2.16129 8.85601 2.17349 9.99584 2.55865C11.1357 2.94381 12.1232 3.68192 12.8154 4.66602C12.8875 4.76838 12.9832 4.85191 13.0944 4.90957C13.2055 4.96722 13.3289 4.99732 13.4541 4.99732C13.5793 4.99732 13.7027 4.96722 13.8138 4.90957C13.925 4.85191 14.0207 4.76838 14.0928 4.66602C14.7844 3.68023 15.7722 2.94052 16.9128 2.55428C18.0533 2.16804 19.2873 2.15536 20.4356 2.51809C21.5839 2.88081 22.5867 3.60007 23.2984 4.57143C24.0101 5.5428 24.3937 6.71572 24.3936 7.91992C24.3936 13.5488 15.4756 19.5723 13.4561 20.8652Z" fill="white"/>
</svg>
