<svg viewBox="0 0 26 24" fill="none" xmlns="http://www.w3.org/2000/svg">
<path d="M2.06259 2.68561C3.40849 1.22585 5.25526 0.421875 7.26311 0.421875C8.76393 0.421875 10.1384 0.896362 11.3484 1.83205C11.959 2.30435 12.5122 2.88219 13 3.55663C13.4876 2.88239 14.041 2.30435 14.6518 1.83205C15.8616 0.896362 17.2361 0.421875 18.7369 0.421875C20.7447 0.421875 22.5917 1.22585 23.9376 2.68561C25.2674 4.12831 26 6.09926 26 8.23564C26 10.4345 25.1806 12.4473 23.4213 14.5702C21.8474 16.4691 19.5855 18.3969 16.9661 20.629C16.0717 21.3914 15.0578 22.2554 14.0051 23.1758C13.727 23.4194 13.3701 23.5535 13 23.5535C12.6301 23.5535 12.273 23.4194 11.9953 23.1762C10.9426 22.2556 9.92813 21.3912 9.03331 20.6284C6.41431 18.3967 4.15236 16.4691 2.57854 14.57C0.819244 12.4473 0 10.4345 0 8.23544C0 6.09926 0.732559 4.12831 2.06259 2.68561Z" fill="white"/>
</svg>
