<svg viewBox="0 0 46 46" fill="none" xmlns="http://www.w3.org/2000/svg">
<g transform="translate(-58 0)">
<circle cx="81" cy="23" r="23" fill="white"/>
<g>
<path d="M85.3516 14.4375C84.4419 14.4386 83.5422 14.626 82.7077 14.9882C81.8733 15.3504 81.122 15.8797 80.5 16.5434C79.5885 15.5706 78.4057 14.8943 77.105 14.6023C75.8043 14.3102 74.4458 14.4159 73.2059 14.9057C71.9661 15.3954 70.9021 16.2466 70.1521 17.3487C69.402 18.4508 69.0007 19.7529 69 21.0859C69 27.7056 79.677 34.2031 80.1406 34.4583C80.2524 34.5254 80.3804 34.5609 80.5108 34.5609C80.6412 34.5609 80.7691 34.5254 80.8809 34.4583C81.323 34.2031 92 27.7056 92 21.0859C91.9981 19.3232 91.297 17.6333 90.0506 16.3869C88.8042 15.1405 87.1143 14.4394 85.3516 14.4375ZM80.5 32.9956C78.642 31.8097 70.4375 26.2681 70.4375 21.0859C70.4384 19.979 70.7918 18.9012 71.4464 18.0086C72.101 17.116 73.0228 16.4551 74.0783 16.1215C75.1337 15.788 76.268 15.7992 77.3166 16.1536C78.3652 16.5079 79.2738 17.187 79.9106 18.0923C79.977 18.1865 80.065 18.2634 80.1672 18.3164C80.2695 18.3695 80.383 18.3971 80.4982 18.3971C80.6134 18.3971 80.7269 18.3695 80.8292 18.3164C80.9314 18.2634 81.0194 18.1865 81.0858 18.0923C81.7221 17.1854 82.6308 16.5049 83.6802 16.1495C84.7295 15.7942 85.8648 15.7825 86.9212 16.1162C87.9776 16.45 88.9002 17.1117 89.555 18.0053C90.2097 18.899 90.5627 19.9781 90.5625 21.0859C90.5625 26.2645 82.358 31.8061 80.5 32.9956Z" fill="#242424"/>
</g>
</g>

</svg>
