<svg width="205" height="41" viewBox="0 0 205 41" fill="none" xmlns="http://www.w3.org/2000/svg">
<path d="M0.695068 2.7793H5.36085V18.7622H5.46016L17.77 2.7793H23.3293L9.43108 20.2513L24.5206 39.7088H18.4649L5.46016 21.8397H5.36085V39.7088H0.695068V2.7793Z" fill="#FFFFFF"/>
<path d="M28.9874 14.5928C30.0794 13.8979 31.3699 13.3023 32.6605 12.9052C33.951 12.5081 35.3408 12.3096 36.6314 12.3096C37.6241 12.3096 38.5176 12.4088 39.3118 12.6074C40.106 12.8059 40.8009 13.0045 41.3965 13.3023C41.9922 13.6001 42.4886 13.7987 42.8856 14.0965C43.2827 14.3943 43.5805 14.5928 43.7791 14.7914C44.3747 15.387 44.8711 16.1812 45.3675 17.0747C45.8638 18.0674 46.0623 19.4572 46.0623 21.3434V35.4402C46.0623 36.2343 46.0624 37.0285 46.1616 37.7234C46.1616 38.4184 46.2609 39.014 46.3602 39.5104H42.29L41.9922 35.8373C41.3965 36.83 40.5031 37.8227 39.3118 38.6169C38.1205 39.4111 36.5322 39.9074 34.4474 39.9074C32.2634 39.9074 30.3772 39.3118 28.8881 38.0213C27.399 36.7307 26.7041 34.7453 26.7041 32.1642C26.7041 30.8736 26.9027 29.6823 27.399 28.4911C27.8954 27.399 28.5903 26.4063 29.583 25.6121C30.5758 24.818 31.8663 24.1231 33.554 23.726C35.1423 23.2296 37.1278 23.031 39.5103 23.031H42.0914V21.8398C42.0914 20.847 41.9922 19.9536 41.8929 19.3579C41.7936 18.7623 41.4958 18.0674 41.0987 17.4718C40.6023 16.8761 40.0067 16.479 39.2125 16.1812C38.4183 15.8834 37.5249 15.7841 36.6314 15.7841C35.2416 15.7841 33.951 16.0819 32.6605 16.5783C31.4692 17.0747 30.3772 17.7696 29.6823 18.663L28.9874 14.5928ZM41.8929 26.5056C41.4958 26.4063 40.9994 26.4063 40.5031 26.4063H38.8154C36.2343 26.4063 34.2489 27.002 32.9583 28.094C31.6678 29.186 31.0721 30.4765 31.0721 32.0649C31.0721 33.554 31.4692 34.646 32.1641 35.5394C32.859 36.4329 34.0503 36.83 35.6387 36.83C36.6314 36.83 37.4256 36.6314 38.2198 36.2343C39.014 35.8373 39.6096 35.3409 40.2053 34.7453C40.8009 34.1496 41.198 33.3554 41.4958 32.5613C41.7936 31.7671 41.9922 30.8736 41.9922 29.9801V26.5056H41.8929Z" fill="#FFFFFF"/>
<path d="M64.3286 39.4117C63.8322 39.6102 63.2366 39.7095 62.5417 39.908C61.8468 40.0073 61.2511 40.1066 60.6555 40.1066C58.5707 40.1066 57.0816 39.6102 55.9896 38.7168C54.8976 37.8233 54.4013 36.1357 54.4013 33.7531V16.3804H50.1326V12.7073H54.4013V7.14797L58.8686 5.85742V12.7073H64.4278V16.2811H58.8686V32.264C58.8686 33.8524 59.0671 34.9444 59.4642 35.54C59.8613 36.1357 60.6555 36.5328 61.6482 36.5328C62.2438 36.5328 62.7402 36.4335 63.1373 36.3342C63.5344 36.235 64.0307 36.0364 64.4278 35.8379V39.4117H64.3286Z" fill="#FFFFFF"/>
<path d="M71.4757 27.4983C71.4757 30.6751 72.0713 32.9583 73.2626 34.4474C74.4538 35.9365 76.34 36.6314 78.8218 36.6314C79.9138 36.6314 81.1051 36.4329 82.1971 35.9365C83.2891 35.4402 84.2819 34.9438 85.0761 34.4474L85.2746 38.5176C84.1826 39.014 82.9913 39.4111 81.7008 39.7089C80.4102 40.0067 79.0204 40.106 77.7298 40.106C75.9429 40.106 74.3546 39.8082 72.9648 39.1133C71.5749 38.4184 70.4829 37.5249 69.5894 36.3336C68.696 35.1424 68.0011 33.6532 67.5047 31.9656C67.0084 30.278 66.8098 28.2925 66.8098 26.2078C66.8098 24.1231 67.0084 22.1376 67.5047 20.45C68.0011 18.7623 68.5967 17.2732 69.4902 16.0819C70.3837 14.8907 71.4756 13.9972 72.7662 13.3023C74.0567 12.6074 75.5458 12.3096 77.2335 12.3096C80.3109 12.3096 82.6935 13.4016 84.2818 15.6848C85.8702 17.9681 86.7637 21.1449 86.7637 25.1158V27.4983H71.4757ZM82.2964 24.123C82.2964 18.4645 80.5095 15.6848 77.0349 15.6848C76.34 15.6848 75.6451 15.7841 74.9502 16.0819C74.2553 16.3798 73.7589 16.8761 73.1633 17.4718C72.6669 18.1667 72.2698 18.9608 71.972 20.0529C71.6742 21.1449 71.4757 22.4354 71.4757 24.0238H82.2964V24.123Z" fill="#FFFFFF"/>
<path d="M92.0278 2.7793H96.5944V18.7622H96.7929L109.003 2.7793H114.563L100.665 20.2513L115.754 39.7088H109.698L96.7929 21.8397H96.5944V39.7088H92.0278V2.7793Z" fill="#FFFFFF"/>
<path d="M136.302 33.8517C136.302 34.8444 136.302 35.8371 136.401 36.8299C136.5 37.8226 136.5 38.7161 136.5 39.7088H132.232L132.033 35.6386H131.934C131.239 37.227 130.345 38.319 129.154 39.0139C128.062 39.7088 126.672 40.0066 125.084 40.0066C122.701 40.0066 120.815 39.3117 119.326 37.9219C117.837 36.5321 117.142 34.3481 117.142 31.3699V12.7065H121.609V30.1786C121.609 32.3626 122.006 33.8517 122.701 34.8444C123.496 35.8371 124.588 36.3335 125.977 36.3335C127.764 36.3335 129.154 35.7379 130.147 34.5466C131.14 33.3553 131.636 31.4691 131.636 29.0866V12.7065H136.103V33.8517H136.302Z" fill="#FFFFFF"/>
<path d="M147.621 0H143.154V39.7092H147.621V0Z" fill="#FFFFFF"/>
<path d="M159.63 6.85033H154.765V1.58887H159.63V6.85033ZM154.964 12.7074H159.431V39.7097H154.964V12.7074Z" fill="#FFFFFF"/>
<path d="M165.089 34.4478C166.082 35.0434 167.174 35.5398 168.167 35.9369C169.259 36.334 170.252 36.5325 171.443 36.5325C173.13 36.5325 174.421 36.1354 175.314 35.4405C176.208 34.6463 176.605 33.7529 176.605 32.7601C176.605 31.8667 176.307 31.0725 175.811 30.3776C175.314 29.6827 174.421 29.087 173.13 28.4914L170.152 27.2009C168.167 26.3074 166.876 25.4139 166.082 24.3219C165.288 23.3292 164.891 21.9394 164.891 20.2518C164.891 19.1598 165.089 18.167 165.486 17.1743C165.884 16.1816 166.479 15.3874 167.273 14.6925C168.068 13.9976 168.961 13.5012 170.053 13.0048C171.145 12.6077 172.336 12.4092 173.627 12.4092C174.719 12.4092 175.811 12.5085 176.704 12.707C177.697 12.9055 178.491 13.1041 179.285 13.4019L179.087 17.1743C178.392 16.8765 177.598 16.5786 176.704 16.3801C175.811 16.1816 174.818 16.0823 173.825 16.0823C172.336 16.0823 171.244 16.4794 170.45 17.1743C169.755 17.8692 169.358 18.7627 169.358 19.8547C169.358 20.9467 169.755 21.8401 170.549 22.535C171.344 23.2299 172.436 23.8256 173.925 24.4212L175.513 25.0168C177.201 25.7118 178.491 26.6052 179.385 27.6972C180.377 28.7892 180.774 30.179 180.774 31.8667C180.774 33.058 180.576 34.15 180.278 35.1427C179.98 36.1354 179.484 37.0289 178.789 37.8231C178.094 38.518 177.201 39.1136 176.109 39.61C175.017 40.0071 173.726 40.3049 172.138 40.3049C170.748 40.3049 169.358 40.2056 168.167 39.9078C166.975 39.61 165.784 39.2129 164.792 38.7165L165.089 34.4478Z" fill="#FFFFFF"/>
<path d="M185.84 0H190.308V16.38H190.407C191.003 15.288 191.896 14.2953 192.988 13.5011C194.08 12.7069 195.47 12.3099 197.058 12.3099C199.441 12.3099 201.327 13.0048 202.816 14.3946C204.305 15.7844 205 17.9684 205 20.9466V39.7092H200.533V22.2372C200.533 20.0531 200.136 18.564 199.441 17.5713C198.646 16.5786 197.555 16.0822 196.165 16.0822C194.378 16.0822 192.988 16.6779 191.995 17.8691C191.002 19.0604 190.506 20.9466 190.506 23.3291V39.6099H186.039V0H185.84Z" fill="#FFFFFF"/>
</svg>