<svg viewBox="0 0 20 22" preserveAspectRatio="xMidYMid meet" fill="none" xmlns="http://www.w3.org/2000/svg">
<path d="M19.3938 5.58175C18.1532 5.58175 17.0085 5.17075 16.0892 4.47739C15.035 3.68255 14.2775 2.51662 14.01 1.17279C13.9438 0.840756 13.9081 0.49811 13.9047 0.146973H10.3606V9.83107L10.3564 15.1355C10.3564 16.5536 9.43289 17.7561 8.15274 18.179C7.78122 18.3017 7.37998 18.3599 6.96218 18.3369C6.42889 18.3076 5.92915 18.1467 5.49479 17.8869C4.57045 17.334 3.94375 16.3312 3.92677 15.1839C3.90002 13.3909 5.34958 11.929 7.14136 11.929C7.49505 11.929 7.83472 11.9867 8.15274 12.0916V9.44469V8.49318C7.81731 8.4435 7.47594 8.4176 7.13075 8.4176C5.16955 8.4176 3.33531 9.23282 2.02417 10.7015C1.03317 11.8114 0.438744 13.2274 0.347032 14.7122C0.226872 16.6628 0.940612 18.517 2.32478 19.885C2.52816 20.0858 2.74173 20.2722 2.96507 20.4442C4.1518 21.3575 5.60264 21.8525 7.13075 21.8525C7.47594 21.8525 7.81731 21.8271 8.15274 21.7774C9.58022 21.5659 10.8973 20.9125 11.9367 19.885C13.2139 18.6227 13.9196 16.9468 13.9272 15.1631L13.9089 7.24191C14.5182 7.71193 15.1844 8.10086 15.8994 8.40274C17.0114 8.87192 18.1905 9.10969 19.404 9.10926V6.53581V5.5809C19.4049 5.58175 19.3947 5.58175 19.3938 5.58175Z" fill="black"/>
</svg>
