<svg preserveAspectRatio="xMidYMid meet" viewBox="0 0 27 20" fill="none" xmlns="http://www.w3.org/2000/svg">
<path d="M26.2953 3.37803C25.99 2.24299 25.0951 1.34825 23.9602 1.04262C21.8869 0.475342 13.5936 0.475342 13.5936 0.475342C13.5936 0.475342 5.30066 0.475342 3.22738 1.02111C2.11433 1.32642 1.1976 2.24315 0.892289 3.37803C0.34668 5.45115 0.34668 9.75052 0.34668 9.75052C0.34668 9.75052 0.34668 14.0716 0.892289 16.123C1.19792 17.2579 2.0925 18.1526 3.22754 18.4583C5.32249 19.0257 13.594 19.0257 13.594 19.0257C13.594 19.0257 21.8869 19.0257 23.9602 18.4799C25.0953 18.1745 25.99 17.2797 26.2956 16.1448C26.8411 14.0716 26.8411 9.77235 26.8411 9.77235C26.8411 9.77235 26.8629 5.45115 26.2953 3.37803ZM10.9532 13.7224V5.77861L17.8495 9.75052L10.9532 13.7224Z" fill="#FF0000"/>
</svg>
