<svg width="46" height="46" viewBox="0 0 46 46" fill="none" xmlns="http://www.w3.org/2000/svg">
<g filter="url(#filter0_b_1280_879)">
<circle cx="23" cy="23" r="23" fill="white" fill-opacity="0.5"/>
</g>
<path d="M31.7626 18.0156C30.6212 18.0156 29.5681 17.6375 28.7224 16.9996C27.7524 16.2684 27.0556 15.1957 26.8095 13.9594C26.7485 13.6539 26.7157 13.3387 26.7126 13.0156H23.452V21.925L23.4481 26.8051C23.4481 28.1098 22.5985 29.216 21.4208 29.6051C21.079 29.718 20.7099 29.7715 20.3255 29.7504C19.8349 29.7234 19.3751 29.5754 18.9755 29.3363C18.1251 28.8277 17.5485 27.9051 17.5329 26.8496C17.5083 25.2 18.8419 23.8551 20.4903 23.8551C20.8157 23.8551 21.1282 23.9082 21.4208 24.0047V21.5695V20.6941C21.1122 20.6484 20.7981 20.6246 20.4806 20.6246C18.6763 20.6246 16.9888 21.3746 15.7825 22.7258C14.8708 23.7469 14.3239 25.0496 14.2395 26.4156C14.129 28.2101 14.7856 29.916 16.0591 31.1746C16.2462 31.3594 16.4427 31.5308 16.6481 31.6891C17.7399 32.5293 19.0747 32.9848 20.4806 32.9848C20.7981 32.9848 21.1122 32.9613 21.4208 32.9156C22.7341 32.7211 23.9458 32.1199 24.902 31.1746C26.077 30.0133 26.7263 28.4715 26.7333 26.8305L26.7165 19.543C27.277 19.9754 27.8899 20.3332 28.5477 20.6109C29.5708 21.0426 30.6556 21.2613 31.772 21.2609V18.8934V18.0148C31.7727 18.0156 31.7634 18.0156 31.7626 18.0156Z" fill="white"/>
<defs>
<filter id="filter0_b_1280_879" x="-4" y="-4" width="54" height="54" filterUnits="userSpaceOnUse" color-interpolation-filters="sRGB">
<feFlood flood-opacity="0" result="BackgroundImageFix"/>
<feGaussianBlur in="BackgroundImage" stdDeviation="2"/>
<feComposite in2="SourceAlpha" operator="in" result="effect1_backgroundBlur_1280_879"/>
<feBlend mode="normal" in="SourceGraphic" in2="effect1_backgroundBlur_1280_879" result="shape"/>
</filter>
</defs>
</svg>
