<svg xmlns="http://www.w3.org/2000/svg" xmlns:xlink="http://www.w3.org/1999/xlink"  viewBox="5 -10 100 100" id="forsvg" preserveAspectRatio="xMinYMin meet">
   <g>
  <path stroke="null" id="svg_1" d="m63.878236,87.03973l-40.711387,0l0,-46.377567l23.958885,-21.708648l23.771706,21.136329s0,0.049338 0,0.078941l0,8.880811a1.403841,1.480135 0 0 0 2.807682,0l0,-6.473124l7.983175,7.104649a1.403841,1.480135 0 0 0 1.815634,-2.259673l-35.47974,-31.576216a1.403841,1.480135 0 0 0 -1.824993,0l-34.712307,31.47754a1.403841,1.480135 0 0 0 1.871788,2.249805l7.000487,-6.384316l0,45.331605a1.403841,1.480135 0 0 0 1.403841,1.480135l42.115228,0a1.403841,1.480135 0 0 0 0,-2.96027z"/>
  <path stroke="#000000" id="svg_2" d="m92,71.33l0,0a13.51,13.51 0 0 1 -9.84,-4.12a14.65,14.65 0 0 1 -4.16,-9.34c0,-0.2 0,-0.39 0,-0.59a1.44,1.44 0 0 0 -0.1,-0.49a1.52,1.52 0 0 0 -1.49,-1.29a1.5,1.5 0 0 0 -1.46,1.5c0,0.29 0,0.58 0,0.88c-0.26,7.33 -6.68,13.28 -14.61,13.36l-0.17,0l-0.17,0a1.5,1.5 0 0 0 0,3l0,0a14.83,14.83 0 0 1 14.68,14.48a2,2 0 0 0 1.68,1.78l0,0a1.5,1.5 0 0 0 1.5,-1.5c-0.08,-8 6.14,-14.58 13.76,-14.67l0.38,0a1.5,1.5 0 0 0 0,-3zm-15.77,10.67a18,18 0 0 0 -9,-9.09a17.45,17.45 0 0 0 9.26,-8.7a17.49,17.49 0 0 0 3.51,5.1a16.86,16.86 0 0 0 5,3.5a17.32,17.32 0 0 0 -8.77,9.19z"/>
  <rect id="window" stroke="#000000" fill="yellow" height="22" width="23" y="44.453125" x="37.5" stroke-width="2"/>
  <path stroke="#000000" style="vector-effect: non-scaling-stroke;" d="m27.5,33.45313c0,1 0,0 0,-2c0,-1 0,-3 0,-4c0,-1 0,-2 0,-3c0,-1 0,-2 0,-3c0,-1 0,-2 0,-3c0,-1 1,-1 3,-1c1,0 2,0 3,0c1,0 2,1 2,3c0,1 0,2 0,3c0,1 0,2 0,3l0,1" id="svg_17" fill-opacity="0" stroke-opacity="null" stroke-width="8" fill="none"/>
  <line stroke="#000000"  id="svg_31" y2="67.453125" x2="49.5" y1="44.453125" x1="49.5" fill-opacity="null" stroke-opacity="null" stroke-width="2" fill="none"/>
  <line id="svg_32" y2="55.453125" x2="59.5" y1="55.453125" x1="37.5" stroke-width="2" stroke="#000000" fill="none"/>
 </g></svg>