<svg
    xmlns:inkscape="http://www.inkscape.org/namespaces/inkscape"
    xmlns:rdf="http://www.w3.org/1999/02/22-rdf-syntax-ns#"
    xmlns="http://www.w3.org/2000/svg"
    xmlns:sodipodi="http://sodipodi.sourceforge.net/DTD/sodipodi-0.dtd"
    xmlns:cc="http://creativecommons.org/ns#"
    xmlns:xlink="http://www.w3.org/1999/xlink"
    xmlns:dc="http://purl.org/dc/elements/1.1/"
    xmlns:svg="http://www.w3.org/2000/svg"
    xmlns:ns1="http://sozi.baierouge.fr"
    id="YOUR_ARTWORK_HERE"
    sodipodi:docname="Eagle.svg"
    enable-background="new 0 0 108 144"
    xml:space="preserve"
    viewBox="0 0 500 500"
    version="1.1"
    y="0px"
    x="0px"
    inkscape:version="0.48.3.1 r9886"
  ><defs
      id="defs724"
    ><linearGradient
        id="linearGradient4245"
        y2="65.737"
        gradientUnits="userSpaceOnUse"
        x2="61.548"
        y1="65.347"
        x1="62.056"
        inkscape:collect="always"
      ><stop
          id="stop4241"
          style="stop-color:#b3b3b3"
          offset="0"
      /><stop
          id="stop4243"
          style="stop-color:#ffffff"
          offset="1"
      /></linearGradient
    ></defs
  ><sodipodi:namedview
      id="namedview722"
      inkscape:zoom="4"
      borderopacity="1"
      inkscape:current-layer="YOUR_ARTWORK_HERE"
      inkscape:cx="58.126199"
      inkscape:guide-bbox="true"
      inkscape:window-maximized="1"
      inkscape:snap-bbox="true"
      showgrid="false"
      showguides="true"
      bordercolor="#666666"
      inkscape:window-x="65"
      guidetolerance="10"
      objecttolerance="10"
      inkscape:window-y="24"
      inkscape:window-width="1215"
      inkscape:pageopacity="0"
      inkscape:pageshadow="2"
      pagecolor="#ffffff"
      gridtolerance="10"
      inkscape:cy="70.66763"
      inkscape:window-height="1000"
  />
  <path id="birdflypath" fill="none" stroke="none" stroke-miterlimit="10" d="M202.4,58.3c-13.8,0.1-33.3,0.4-44.8,9.2
  c-14,10.7-26.2,29.2-31.9,45.6c-7.8,22.2-13.5,48-3.5,70.2c12.8,28.2,47.1,43.6,68.8,63.6c19.6,18.1,43.4,26.1,69.5,29.4
  c21.7,2.7,43.6,3.3,65.4,4.7c19.4,1.3,33.9-7.7,51.2-15.3c24.4-10.7,38.2-44,40.9-68.9c1.8-16.7,3.4-34.9-10.3-46.5
  c-9.5-8-22.6-8.1-33.2-14.1c-13.7-7.7-27.4-17.2-39.7-26.8c-5.4-4.2-10.4-8.8-15.8-12.9c-4.5-3.5-8.1-8.3-13.2-11
  c-6.2-3.3-14.3-5.4-20.9-8.2c-5-2.1-9.5-5.2-14.3-7.6c-6.5-3.3-12.1-7.4-19.3-8.9c-6-1.2-12.4-1.3-18.6-1.5
  C222.5,59,212.5,57.8,202.4,58.3"/>
  
<g id="birdfly" transform="scale(0.6)">
<path
      id="path3424"
      sodipodi:nodetypes="ssssss"
      style="stroke:#000000;stroke-width:.10404;fill:#080808"
      inkscape:connector-curvature="0"
      d="m37.189 59.14c-0.18055 0.31042-3.9478-2.2044-6.8503-3.8926s-5.109-3.3083-4.9285-3.6188c0.18055-0.31042 2.6798 0.80645 5.5823 2.4946 1.7194 1 4.0815 2.0875 5.2864 3.0049 0.8291 0.63126 0.98356 1.8853 0.90997 2.0119z"
  /><path
      id="path4195"
      d="m37.222 59.687c-0.2716 0.39733-4.0313-1.0322-8.3974-3.193-4.3662-2.1608-7.6855-4.2345-7.4139-4.6319 0.2716-0.39733 4.0313 1.0322 8.3974 3.193 4.3662 2.1608 7.6855 4.2345 7.4139 4.6319z"
      style="stroke:#000000;stroke-width:.14436;fill:#000000"
      inkscape:connector-curvature="0"
  /><path
      id="path4197"
      style="stroke:#000000;stroke-width:.14436;fill:#000000"
      inkscape:connector-curvature="0"
      d="m36.021 59.517c-0.20488 0.43551-4.1442-0.37725-8.7987-1.8153-4.6545-1.4381-8.2616-2.9569-8.0567-3.3924 0.20488-0.43551 4.1442 0.37725 8.7987 1.8153 4.6545 1.4381 8.2616 2.9569 8.0567 3.3924z"
  /><path
      id="path4199"
      d="m36.392 59.643c-0.13322 0.46248-4.1516 0.28471-8.9752-0.39708-4.8237-0.68179-8.626-1.6094-8.4928-2.0719 0.13323-0.46249 4.1516-0.28471 8.9752 0.39708 4.8237 0.68179 8.626 1.6094 8.4928 2.0719z"
      style="stroke:#000000;stroke-width:.14436;fill:#000000"
      inkscape:connector-curvature="0"
  /><path
      id="path4201"
      style="stroke:#000000;stroke-width:.14436;fill:#000000"
      inkscape:connector-curvature="0"
      d="m36.053 60.065c-0.08112 0.47441-4.0944 0.74333-8.9639 0.60066s-8.7513-0.64291-8.6701-1.1173c0.08112-0.47441 4.0944-0.74333 8.9639-0.60066s8.7513 0.64291 8.6701 1.1173z"
  /><path
      id="path4203"
      d="m37.426 60.369c-0.02889 0.48042-3.9889 1.1854-8.8449 1.5747-4.856 0.38924-8.7692 0.31532-8.7403-0.1651 0.02889-0.48042 3.9889-1.1854 8.8449-1.5747 4.856-0.38924 8.7692-0.31532 8.7403 0.1651z"
      style="stroke:#000000;stroke-width:.14436;fill:#000000"
      inkscape:connector-curvature="0"
  /><path
      id="rect4165"
      sodipodi:nodetypes="sssssssssssssssssssssssss"
      style="fill:#f9f9f9"
      inkscape:connector-curvature="0"
      d="m47.648 77.391c1.9852-1.102 7.4705-1.5711 6.7857 0.59377-0.19545 0.61788-0.43938 1.3441-0.72916 2.0316-0.13055 0.30973-0.38885 0.85981-0.60786 1.2751-0.26235 0.49744-0.49308 0.98806-0.7145 1.4976-0.11096 0.25533-0.27669 0.45902-0.39942 0.67136-0.50937 0.88131-1.0692 1.5161-1.7593 2.6799-0.0681 0.11485-0.39976 0.31066-0.70895 0.33144-0.45178 0.03036-0.32109-0.24545-0.69588-0.13077-0.53721 0.16438-1.1672 0.29379-1.8794 0.4903-0.42058 0.11604-0.88571 0.36664-1.3344 0.36114-0.33184-0.0041-0.63348-0.20858-0.97553-0.30273-0.12151-0.03345-0.22856 0.2167-0.35368 0.18116-0.16505-0.04689-0.04164-0.36532-0.21446-0.4435-0.13643-0.06171-0.34826-0.04759-0.50886-0.11355-0.10779-0.04427-0.15676-0.17375-0.27801-0.2027-0.39337-0.09394-0.84033-0.1162-1.1673-0.24818-0.3226-0.13022 0.13557-0.62701-0.10279-0.80664-0.26682-0.20108-0.5436-0.30524-0.75193-0.5299-0.22865-0.24657 0.18345-0.60763 0.02076-0.86458-0.09123-0.14408-0.33124-0.32169-0.36803-0.47085-0.04312-0.17483 0.11849-0.3197 0.01204-0.46212-0.42978-0.575-1.1243-0.67946-1.0182-0.9439 0.06029-0.15027 0.02465-0.16387 0.68611-0.51364 2.3578-1.2468 5.1239-3.0038 7.063-4.0802z"
  /><path
      id="path4185"
      d="m50.452 80.765c0.36519-0.18771 0.73624-0.34949 1.1264-0.47746 0.30268-0.09928 0.56836-0.11076 0.60142 0.22674 0.01447 0.14774-0.11105 0.40249-0.17247 0.53015-0.18029 0.37474-0.46988 0.67025-0.77451 0.8901-0.14156 0.10216-0.45172 0.31016-0.62455 0.35246-0.1005 0.02461-0.06268-0.11655-0.15863-0.08006-0.21587 0.0821-0.40409 0.29134-0.52174 0.09557-0.06037-0.10046 0.02705-0.31817-0.05187-0.39828-0.09611-0.09755-0.32212-0.04734-0.39292-0.12517-0.17346-0.19069-0.0078-0.51201 0.96886-1.0141z"
      sodipodi:nodetypes="sssssssssss"
      style="fill:#c48b3b"
      inkscape:connector-curvature="0"
  /><path
      id="rect4168"
      sodipodi:nodetypes="sssssssssss"
      style="fill:#c48b3b"
      inkscape:connector-curvature="0"
      d="m48.663 80.008c0.33787-0.29579 0.68883-0.56561 1.069-0.80462 0.29494-0.18542 0.57383-0.26787 0.69819 0.08152 0.05443 0.15295-0.01137 0.45649-0.04278 0.60819-0.0922 0.44536-0.32133 0.83554-0.58644 1.1494-0.1232 0.14586-0.39731 0.44861-0.56952 0.53923-0.10014 0.05269-0.09735-0.1071-0.18951-0.043-0.20736 0.14422-0.35174 0.41605-0.52837 0.23942-0.09064-0.09064-0.05545-0.34479-0.16039-0.40892-0.12779-0.0781-0.35434 0.03498-0.45006-0.02889-0.23451-0.15647-0.14377-0.54125 0.75988-1.3324z"
  /><path
      id="rect4162"
      sodipodi:nodetypes="cssssssssssssssssc"
      style="fill:#000000"
      inkscape:connector-curvature="0"
      d="m58.896 66.422s4.3865 1.8651 5.9534 2.9706c2.8224 1.9913-1.4406 7.6785-4.4619 9.3526-1.1272 0.62456-2.5702-0.65201-3.8411-0.43868-0.68144 0.11438-1.2797 0.53534-1.8698 0.89479-0.3548 0.21611-0.638 0.53763-0.99378 0.75212-0.28577 0.17228-0.63201 0.73373-0.76818 0.73236-0.60424-0.0061-1.3719-0.17362-1.9884-0.53447-0.11436-0.06694-0.18951-0.8148-0.77432-1.0487-0.20001-0.07999-1.0483 0.46346-1.1802 0.35122-0.2815-0.23956 0.27067-0.7461-0.04001-0.93729-0.09307-0.05727-0.20928 0.18329-0.38082 0.28488-0.14317 0.08478-0.3458 0.03613-0.4085-0.01819-0.13496-0.11692 0.0084-0.49915-0.0428-0.66993-0.02969-0.09907-0.25068-0.0087-0.3019-0.06195-0.20257-0.21031-0.15075-0.52369 0.02805-0.86441 0.46289-0.88208 1.8096-2.0785 2.0405-3.1192 0.85406-3.8504 9.0298-7.6457 9.0298-7.6457z"
  /><path
      id="rect4205"
      sodipodi:nodetypes="cssssccssssssssssssssssssssssssssssssssscsc"
      style="stroke:#000000;stroke-width:.10404;fill:#000000"
      inkscape:connector-curvature="0"
      d="m33.953 56.348c0.76901 0.10285 1.3347 0.15137 1.9317 0.38376 1.2018 0.46786 2.6585 1.012 6.5205 2.594 2.0379 0.8348 4.2901 2.4789 6.2361 3.4489 1.552 0.7736 3.7859 2.0006 5.6445 2.699 2.2008 0.82696 4.0062 1.0935 4.4795 0.98851-0.96948 1.3943-9.4052 9.6879-10.827 10.7-0.07819-0.29198-0.64841-0.16913-0.72185-0.43181-0.09447-0.33791-0.0825-0.63669-0.17064-0.91027-0.10338-0.32087-0.67908 0.01933-0.73666-0.03605-0.30912-0.29728-0.41396-0.42019-0.45542-0.4411-0.31119-0.15702-0.84426 0.14855-0.99561 0.000986-0.29674-0.28933-0.59594-0.53969-0.82581-0.87193-0.20765-0.30012-0.99722 0.08845-1.3003-0.33415-0.18563-0.25881-0.51408 0.01349-0.84369-0.01336-0.3959-0.03225-0.79857-0.35358-1.0253-0.64362-0.22646-0.28963-0.47669 0.01088-0.65855-0.02826-0.377-0.08114-0.5329-0.21467-0.77714-0.5032-0.13578-0.1604-0.36943-0.058-0.58994-0.06246-0.28963-0.0058-0.57325-0.03537-0.74942-0.23826-0.14238-0.16397-0.70837-0.0712-1.1117-0.2672-0.29983-0.14571-0.18486-0.47516-0.44864-0.6748-0.14338-0.10851-0.86239-0.17643-1.237-0.53503-0.24651-0.236-0.82593-0.10129-1.0714-0.331-0.18941-0.17727-0.11433-0.34102-0.30343-0.514-0.19591-0.17922-0.69018-0.06892-0.88498-0.24358-0.16012-0.14357-0.22793-0.35445-0.38729-0.49455-0.29204-0.25675-0.82362-0.10593-1.1116-0.35136-0.16891-0.14397-0.10732-0.53858-0.27491-0.67788-0.27276-0.22672-0.6814-0.1716-0.94974-0.38569-0.2073-0.1654 0.06915-0.67136-0.13606-0.82785-0.24204-0.18458-0.57439-0.24793-0.81292-0.41937-0.37627-0.27043 0.06571-0.62702-0.20228-0.84918-0.2942-0.24389-1.5297 0.03195-1.8582-0.29154-0.23348-0.22989 0.01151-0.16483-0.20701-0.37882-0.39091-0.3828-1.066-0.29258-1.401-0.62181-0.15515-0.15249 0.10951-0.24138-0.0332-0.38117-0.46592-0.45633-1.206-0.3413-1.5185-0.65311-0.18613-0.1857 0.19599-0.27459 0.06829-0.40183-0.24756-0.24665-0.46062-0.16161-0.46062-0.16161-1.0335-0.12057-1.4765-0.48849-1.6276-0.5873 0 0 0.16268-0.13046 0.36598-0.22808 0.3001-0.14411 10.475-6.178 11.469-6.024z"
  /><path
      id="path4247"
      sodipodi:nodetypes="cssssscccssssssssssssssssssssssssssssssssssc"
      style="fill-opacity:.97255;fill:#ffffff"
      inkscape:connector-curvature="0"
      d="m65.974 66.444c0 0.77449-0.59838 0.91352-1.646 2.4062-0.01107 0.01577-0.05111 0.1481-0.10495 0.24283-0.27736 0.48801-0.95974 1.8444-1.2226 1.8212-0.10181-0.0089-0.3754 0.07364-0.36446-0.10378 0.01056-0.17115 0.0872-0.62686 0.0872-0.62686-0.04907-0.0239-0.46974 0.51932-0.5664 0.45355 0.0052-0.04168-0.0056-0.30627-0.0056-0.30627s-0.23763 0.13666-0.28683 0.10235c-0.07635-0.06906 0.11879-0.41883 0.04117-0.4959-0.04512-0.0448-0.11317 0.05394-0.20773 0.16669-0.12375 0.14757-0.27841 0.29764-0.34023 0.23493-0.063-0.06392 0.15043-0.41156 0.11617-0.44095-0.02886-0.02475-0.2768 0.20868-0.56475 0.39219-0.24899 0.15869-0.49899 0.24378-0.56196 0.24271-0.04481-0.000756-0.19778-0.05157-0.11531-0.14349 0.05673-0.06322 0.32408-0.31626 0.30643-0.34923-0.02105-0.03933-0.64772 0.44835-0.6883 0.38584-0.0592-0.0912 1.1011-0.91195 1.0503-1.0141-0.01076-0.02163-0.48173 0.34944-0.94519 0.56773-0.426 0.20065-0.89632 0.25015-0.90681 0.23028-0.04757-0.09001 0.34233-0.28655 0.30731-0.38528-0.04026-0.11352-0.65717 0.09798-0.68906-0.02228-0.03161-0.11917 0.45444-0.37426 0.44034-0.50299-0.0085-0.0777-0.622 0.10394-0.6295 0.02514-0.01391-0.14618 0.38619-0.41878 0.23204-0.41172-0.31522 0.01442-0.3094-0.13282 0.10865-0.26289 0.12238-0.03808-0.90428 0.17622-0.86357 0.0306 0.05495-0.19655 0.43338-0.23685 0.46072-0.25193 0.01573-0.0086-0.34042 0.0014-0.25576-0.06989 0.04805-0.04046 0.21402-0.1538 0.22604-0.24533 0.0048-0.03614-0.20545-0.01363-0.18589-0.05306 0.02264-0.04564 0.16273-0.07826 0.18442-0.1294 0.01574-0.03712 0.09266-0.07463 0.07557-0.10883-0.01767-0.03537-0.16187-0.0025-0.14556-0.04444 0.08939-0.22995 0.6658-0.29635 0.76817-0.51156 0.05507-0.11577-0.11068-0.24002-0.19271-0.36391-0.07929-0.11975-0.07395-0.24103-0.08021-0.24759-0.23362-0.24455 2.2853-0.94395 2.4808-1.0094 0.4179-0.13979 0.75469-0.29743 1.0939-0.40618 0.28673-0.09193 0.48568-0.08362 0.71708-0.15622 0.23524-0.07381 1.016-0.04105 1.3672-0.04105 0.83162 0 1.5058 0.62785 1.5058 1.4023z"
  /><path
      id="path4222"
      sodipodi:nodetypes="sssszszzssss"
      style="opacity:.97788;fill-opacity:.97255;stroke:#000000;stroke-width:.065023;fill:#ffaa00"
      inkscape:connector-curvature="0"
      d="m66.214 67.585c-0.195 0.102-0.044-0.541-0.333-0.679-0.231-0.11-0.629-0.214-1.046-0.19-0.30144 0.01722-0.37395 0.02547-0.68498 0.05111-0.25494 0.02101-0.70806 0.18569-0.75108 0.10682-0.04302-0.07888 0.13484-0.15448 0.41816-0.27889 0.42057-0.18468 0.54771-0.38402 0.80889-0.60824s0.23447-0.22526 0.41509-0.36738 0.54084-0.09166 0.6325-0.0754c0.07436 0.01319 0.30292 0.06038 0.44643 0.21796 0.19224 0.2111 0.23445 0.50604 0.29567 0.72591 0.10823 0.38868-0.07093 1.0289-0.20123 1.0971z"
  /><path
      id="path4229"
      sodipodi:rx="0.058004856"
      sodipodi:ry="0.13534467"
      style="opacity:.97788;stroke-width:0;fill-opacity:.97255;fill:#000000"
      sodipodi:type="arc"
      d="m63.402 65.431a0.058005 0.13534 0 1 1 -0.11601 0 0.058005 0.13534 0 1 1 0.11601 0z"
      transform="matrix(1.0484 .84927 -.87368 1.0191 55.947 -54.546)"
      sodipodi:cy="65.431038"
      sodipodi:cx="63.344067"
  /><path
      id="path4233"
      d="m63.439 66.926c-0.04695-0.05975 0.09106-0.01937 0.16424-0.04605 0.1174-0.0428 0.19654-0.05251 0.24332-0.06179 0.03043-0.006 0.13794-0.04012 0.27322-0.05525 0.18656-0.02089 0.42592-0.02408 0.58876-0.03358 0.32814-0.01915 0.69876-0.0068 0.97258 0.08965 0.12735 0.04482 0.23263 0.06258 0.30376 0.17399 0 0-0.57806 0.01662-0.89212 0.02217-0.55533 0.0098-1.0058-0.03615-1.6538-0.08915z"
      sodipodi:nodetypes="cssssscsc"
      style="opacity:.97788;fill-opacity:.97255;stroke:#000000;stroke-width:.065023;fill:#ffaa00"
      inkscape:connector-curvature="0"
  /><path
      id="path4237"
      sodipodi:rx="0.23242189"
      sodipodi:ry="0.23242189"
      style="opacity:.97788;fill:url(#linearGradient4245)"
      sodipodi:type="arc"
      d="m62.063 65.533a0.23242 0.23242 0 1 1 -0.46484 0 0.23242 0.23242 0 1 1 0.46484 0z"
      transform="matrix(1.0748 0 0 1.0748 -2.9092 -4.3554)"
      sodipodi:cy="65.533195"
      sodipodi:cx="61.830082"
  /><path
      id="path4235"
      sodipodi:rx="0.093750007"
      sodipodi:ry="0.093750007"
      style="opacity:.97788;fill-opacity:.97255;stroke:#000000;stroke-width:.0625;fill:#000000"
      sodipodi:type="arc"
      d="m61.953 65.52a0.09375 0.09375 0 1 1 -0.1875 0 0.09375 0.09375 0 1 1 0.1875 0z"
      transform="matrix(1.0404 0 0 1.0404 -.76905 -2.0877)"
      sodipodi:cy="65.519524"
      sodipodi:cx="61.859379"
  /><path
      id="path3379"
      style="stroke:#000000;stroke-width:.14436;fill:#000000"
      inkscape:connector-curvature="0"
      d="m89.129 78.09c-0.25196 0.41007-4.0767-0.83496-8.5428-2.7809s-7.8823-3.8558-7.6304-4.2659c0.25196-0.41007 4.0767 0.83497 8.5428 2.7809s7.8823 3.8558 7.6303 4.2659z"
  /><path
      id="path3381"
      sodipodi:nodetypes="ssssss"
      d="m88.684 80.292c-0.14708 0.18011-1.1667 0.09361-2.5505-0.56389-1.4803-0.70335-3.6515-2.0435-5.8049-3.3483-4.1665-2.5244-7.2973-4.8731-6.9929-5.2459 0.30442-0.37278 3.9288 1.3715 8.0953 3.8959s7.5574 4.8893 7.253 5.2621z"
      style="stroke:#000000;stroke-width:.14436;fill:#000000"
      inkscape:connector-curvature="0"
  /><path
      id="path3383"
      sodipodi:nodetypes="sssssss"
      inkscape:connector-curvature="0"
      style="stroke:#000000;stroke-width:.14436;fill:#000000"
      d="m87.034 82.538c-0.16077 0.16801-1.2624 0.0018-2.5213-0.9233-1.3207-0.97044-3.4568-2.163-5.5012-3.6327-3.9555-2.8437-6.8922-5.4309-6.5595-5.7787 0.33275-0.34774 3.5332 1.5837 7.4886 4.4274 1.4744 1.06 3.1932 0.97078 4.1182 2.1255 1.5744 1.9655 3.1839 3.5636 2.9752 3.7817z"
  /><path
      id="path3385"
      sodipodi:nodetypes="sssssss"
      d="m84.85 84.279c-0.18297 0.14352-1.2499-0.17725-2.365-1.2715-1.1697-1.1479-3.1152-2.6312-4.9305-4.376-3.5123-3.3758-6.0526-6.3533-5.6739-6.6503 0.3787-0.29704 3.2729 2.0687 6.7852 5.4445 1.3092 1.2583 3.0233 1.4137 3.7752 2.688 1.2798 2.1689 2.6465 3.979 2.409 4.1654z"
      style="stroke:#000000;stroke-width:.14436;fill:#000000"
      inkscape:connector-curvature="0"
  /><path
      id="path3387"
      sodipodi:nodetypes="sssssss"
      inkscape:connector-curvature="0"
      style="stroke:#000000;stroke-width:.14436;fill:#000000"
      d="m81.852 85.152c-0.21026 0.09931-1.1794-0.4503-2.0237-1.7648-0.88572-1.3789-2.4533-3.2572-3.836-5.3614-2.6752-4.0713-2.7899-5.251-2.3547-5.4566 0.43519-0.20556 1.0308 0.45623 3.706 4.5276 0.99716 1.5176 2.634 2.0496 3.0842 3.459 0.76634 2.3988 1.6971 4.4673 1.4241 4.5962z"
  /><path
      id="path3389"
      sodipodi:nodetypes="ssssssssssssssssssssscsssssssssssssssssssss"
      style="fill:#000000"
      inkscape:connector-curvature="0"
      d="m81.165 73.332c0.95909 0.43807 1.0473 0.35964 1.7833 2.2516 0.38782 0.99695-3.6922 7.3476-3.6278 7.8743 0.11688 0.95601-1.9333-0.87011-2.0081-0.61017-0.12319 0.4283-0.74717 0.24751-1.2327 0.03503-0.45922-0.20095-0.68192-0.51221-0.78926-0.38893-0.2435 0.27968-1.0237 0.05232-1.5167-0.22696-0.2874-0.16283-0.43701-0.44227-0.47503-0.43056-0.24494 0.07545 0.05322 0.56382-1.4642 0.09104-0.39458-0.12294-0.54715-0.58806-0.73013-0.57199-0.2999 0.02634-0.80699 0.26606-1.1468 0.22578-0.24007-0.02845-0.22588-0.32763-0.44125-0.29668-0.25072 0.03603-0.44815 0.24035-0.68666 0.34267-0.26433 0.1134-0.56984 0.12376-0.85304 0.12376-0.29527 0-0.25184-0.30468-0.52459-0.3195-0.17315-0.0094-0.33482 0.20622-0.60908 0.27197-0.29126 0.06983-0.53627-0.46524-0.84192-0.417-0.13542 0.02138-0.23961 0.1271-0.37713 0.13669-0.39251 0.02737-0.82798-0.08715-1.2116-0.18045-0.45745-0.11124-0.69098-0.381-1.2768-0.271-0.21992 0.04129-0.28499-0.19984-0.5109-0.23802-0.25464-0.04303-0.58733 0.13584-0.84888 0.08298-0.31921-0.06451-0.33812-0.49437-0.66021-0.43521-0.24229 0.04451-0.52351 0.03513-0.74376-0.06316-0.19947-0.08902-0.34016-0.25755-0.51784-0.40412-0.1578-0.13017-0.39275 0.02145-0.59664-0.0226-0.20888-0.04513-0.33234-0.35693-0.54182-0.39903-0.34986-0.07032-0.7724 0.1317-1.0085 0.0692-0.21013-0.05564-0.11262-0.33084-0.30381-0.38874-0.1451-0.04393-0.53724 0.02645-0.67004-0.01869-0.12138-0.04126 0.01551-0.19795-0.09463-0.24015-0.48288-0.18499-0.95325 0.3439-0.83759 0.02455 0.2812-0.77642 2.5365-2.0063 3.3106-2.6785 0.80959-0.70297 1.5142-1.3464 2.4912-2.2939 0.93529-0.90694 1.6196-2.602 2.3535-3.7876 0.18834-0.30426 0.000157-0.67297 0.2395-0.79264 0.51907-0.25954 1.1658-0.0057 1.9176 0.1095 0.40683 0.06237 0.82718 0.20058 1.2297 0.22075 0.45528 0.02281 0.72646 0.08712 1.6323 0.34606 1.151 0.32902 2.3728 0.41536 3.3318 0.58898 1.5939 0.28857 3.1758 0.32123 3.6027 0.50602 0.23911 0.10351 2.1553 0.72987 2.8131 1.0427 0.42667 0.20291 2.2325 1.0363 2.4419 1.132z"
  /><path
      id="path4160"
      sodipodi:nodetypes="cscsc"
      d="m87.625 75.323c-0.07936 0.20676-2.4185 0.28345-4.603-0.21975-2.1845-0.50319-1.5014-1.1275-1.4221-1.3343 0.11594-0.29211 0.79291 0.26112 1.7094 0.5855 2.1132 0.74792 4.395 0.76174 4.3156 0.9685z"
      style="stroke:#000000;stroke-width:.066429;fill:#000000"
      inkscape:connector-curvature="0"
  /><path
      id="path4187"
      d="m50.704 81.168c-0.179 0.15863-0.37652 0.27329-0.55111 0.41523-0.12064 0.09809-0.16427 0.19902-0.2742 0.30004-0.02885 0.02651 0.02243 0.07758 0.04239 0.06472 0.05248-0.03381 0.07079-0.07661 0.10326-0.12192 0.04848-0.06768 0.11272-0.11421 0.16566-0.16225 0.15141-0.13742 0.33167-0.2252 0.56549-0.46489 0.05132-0.05261 0.0062-0.08211-0.05148-0.03094z"
      sodipodi:nodetypes="ssssssss"
      style="fill:#000000"
      inkscape:connector-curvature="0"
  /><path
      id="path4171"
      sodipodi:nodetypes="ssssssss"
      style="fill:#000000"
      inkscape:connector-curvature="0"
      d="m49.037 80.368c-0.14799 0.21568-0.32727 0.3896-0.47499 0.5864-0.10207 0.13599-0.12168 0.25465-0.21161 0.39093-0.0236 0.03576 0.04433 0.07639 0.06211 0.05747 0.04674-0.04975 0.05486-0.10002 0.07732-0.15669 0.03354-0.08464 0.08941-0.15102 0.13287-0.21599 0.12432-0.18588 0.29238-0.3267 0.47711-0.6429 0.04054-0.0694-0.01507-0.08879-0.06281-0.01922z"
  /><path
      id="path4189"
      sodipodi:nodetypes="sssccs"
      style="opacity:.82697;fill:#000000"
      inkscape:connector-curvature="0"
      d="m51.192 81.5c-0.18624 0.12618-0.29543 0.23988-0.44929 0.3755-0.11664 0.10281-0.26518 0.25046-0.37511 0.35148-0.02885 0.02651 0.03051 0.01447 0.05047 0.0017 0.27999-0.24528 0.5753-0.49315 0.83173-0.69228 0.05132-0.05261 0.006-0.07962-0.05779-0.03633z"
  /><path
      id="path4173"
      d="m49.643 80.591c-0.16425 0.18317-0.25005 0.33271-0.37745 0.51732-0.09658 0.13995-0.21515 0.33593-0.30508 0.4722-0.0236 0.03576 0.0362 0.0073 0.05398-0.01162 0.23224-0.33434 0.48005-0.67549 0.69949-0.95463 0.04054-0.0694-0.01461-0.0861-0.07094-0.02327z"
      sodipodi:nodetypes="sssccs"
      style="opacity:.82697;fill:#000000"
      inkscape:connector-curvature="0"
  /><path
      id="path3393"
      sodipodi:rx="0.0078125"
      sodipodi:ry="0.0078125"
      style="stroke:#000000;stroke-width:.1;fill:#000080"
      sodipodi:type="arc"
      d="m53.586 70.012a0.0078125 0.0078125 0 1 1 -0.01563 0 0.0078125 0.0078125 0 1 1 0.01563 0z"
      transform="matrix(.32664 0 0 .32664 36.093 47.155)"
      sodipodi:cy="70.011719"
      sodipodi:cx="53.578125"
  />
  </g>
  <animateMotion 
  xlink:href="#birdfly"
  dur="121s"
  begin="click; 0s"
  fill="freeze"
  repeatCount="indefinite"
  repeatDur=""
  keyPoints="0;0.3;0.3;1"
  keyTimes="0;0.3;0.3;1"
  rotate="auto"
  >
  <mpath xlink:href="#birdflypath" />
  </animateMotion>
  </svg>