<svg xmlns="http://www.w3.org/2000/svg" transform="
               translate(0 0)
               scale(2)" viewBox="-700 -2100 2600 3000">
	<style>
	@keyframes move {
	from {
	offset-distance: 20%;
	}
	to {
	offset-distance: 48%;
	
	}
	}
	#dandelion {
	offset: path('M10,220 A120,120 -45 0,1 110 10 A120,120 -45 0,1 10,510') auto;
	animation: move 220s linear infinite;
	animation-delay: 0s;
	}
	</style>
	<g id="dandelion" >		
		<path stroke="black" stroke-width="0.1" d="m927.18 197.51l0.688 6e-3c0.336-0.094 2.498-0.24 5.553-0.396 1.01-0.051 2.639 0.117 3.936 0.118 2.08 1.196 4.307 2.603 6.145 2.565 1.328-0.121 3.297 0.695 4.9 0.943 2.34-0.521 4.84 0.624 6.797 0.779 2.771 0.221 4.75 0.277 5.174 0.344 0 0 15.65 0.045 11.064-0.619s-14.57 0.141-16.305-0.834c-1.736-0.975-3.432-0.683-4.572-0.794-3.346-0.328-5.336-0.255-7.463-0.78-1.768-0.437-3.164-1.068-4.34-1.723 0.238-0.06 0.424-0.143 0.523-0.264 0.602-0.733 4.217-0.595 4.822-0.181 0.545-0.672 6.635 0.627 8.447-0.234s13.143-0.062 13.518 0.104l-5.9-1.557c-0.551-0.018-2.426 0.025-5.027 0.098-2.35 0.065-4.949 1.084-8.385 0.246s-5.08 0.147-7.535 0.21c-1.486 0.038-2.445-0.14-3.312-0.184-0.967-0.599-1.82-1.028-2.746-1.052-3.727-0.023-7.049 0.115-10.541 0.231-1.475 0.049-2.779 0.39-4.172 0.231-0.49-0.056-0.986-0.337-1.506-0.347-0.984-0.02-2.033 0.564-3.012 0.116-0.75-0.023-1.441-0.103-2.084-0.231-1.834-0.059-3.906 0.12-5.098-0.58 0.307-0.89 2.107-0.285 3.127-0.463h0.117c2.391-0.344 4.639 0.418 6.949 0.463 1.342 0.026 2.602-0.261 3.939-0.231 1.543 0.033 3.213 0.223 4.865 0.231 0.551 2e-3 1.168-0.359 1.738-0.347 0.396 8e-3 0.84 0.294 1.273 0.347 1.688 0.207 3.461-0.796 4.75 0 0.121-0.097 2.832-0.458 6.072-0.854 2.053-0.251 4.018-0.151 5.971-0.371 2.684-0.301 5.492-0.664 5.975-0.905s-0.982-0.346-0.982-0.346c-0.812 0.017-3.521 0.206-7.42 0.514-1.125 0.088-4.752 0.556-5.355 0.254-0.904 0.543-2.428 0.724-3.137 0.784-4.143-0.56-6.094 0.201-6.914 0.343-2.064-0.89-5.18-0.43-7.184 0-2.504-0.386-5.326-0.361-7.994-0.232 0.291-0.475 0.969-0.518 1.391-0.579 1.455-0.213 3.01-0.335 4.635-0.464 0.967-0.077 1.986 0.301 3.012 0.231 0.445-0.03 0.754-0.328 1.273-0.463 1.045-0.271 2.41-0.201 3.359-0.463 1.166-0.322 2.156-1.101 3.129-1.275 0.244-0.043 2.164-0.601 5.354-1.041 1.48-0.205 2.08 3e-3 3.695-0.219 2.07-0.286 6.189-1.314 7.889-1.551 2.262-0.314 6.879-0.241 6.115-0.724-0.766-0.483-1.908-0.505-1.908-0.505-0.641 0.099-6.615 1.352-9.758 1.913-3.477 0.622-5.178 0.348-8.607 0.966-3.359 0.604-5 1.295-5.209 1.325 0.096 5e-3 -0.924 0.128-1.129 0.162l-3.295 0.402c-0.703 1.31-6.273 0.342-8.787 0.895h-0.463c-0.543 0.19-1.061 0.407-1.854 0.347h-0.23c-0.744 0.192-1.965 0.364-2.781 0.116 0.615-0.89 2.201-0.811 3.477-1.042h0.115c0.197-0.265 0.885-0.042 1.273-0.116h0.115c2.127-0.535 5.18 0.241 6.141-1.622 0.527-0.283 1.287-0.335 1.969-0.463l1.391 0.116c0.189-0.543 0.762-0.705 1.391-0.811 0.693-0.387 1.857-0.305 2.664-0.579 0.631-0.112 4.596-1.787 5.842-2.023 0 0 2.48-0.248 5.684-0.556 2.824-0.271 4.451-0.218 7.203-0.455 1.328-0.604 6.521-0.757 6.877-0.714 1.129 0.136 5.15 0.714 5.592 0.674 0.443-0.04-0.094-0.302-0.094-0.302s-4.25-0.744-5.496-0.864c-0.396-0.039-2.566 0.057-5.344 0.205-2.721 0.145-7.771 1.122-8.82 0.511-3.34 0.203-5.949 0.37-5.949 0.37-2.439-0.269-5.938 2.514-8.043 2.458 0 0-2.244 0.461-2.779 0.58-1.51 0.33-2.615 1.319-4.402 1.042-0.729 0.855-2.5 0.666-3.477 1.274-0.309 0.115-0.609 0.239-1.041 0.231-1.863 0.149-3.703 0.493-6.025 0.464-0.018-0.481 0.215-0.713 0.697-0.695 0.711-0.408 3.062-0.524 3.475-0.811 1.854 2e-3 2.531-1.175 4.17-1.39 0.508-0.612 1.477-0.808 1.668-1.737-0.188-0.432 4.266-0.413 4.008-0.58 0.523-0.962 4.91-2.178 5.586-2.725l1.596-0.519c0.326-0.186 1.133-0.776 4.367-1.212 1.984-0.268 5.828-0.333 8.246-0.637 1.432-0.18 3.947-0.993 5.391-1.173 6.744-0.842 12.004-1.006 12.59-1.288 0 0 0.816-0.204-0.256-0.383-1.072-0.18-5.992 0.271-12.656 1.147-1.371 0.181-3.803 1.004-5.178 1.182-2.369 0.307-4.809-0.021-6.85 0.227-3.699 0.449-6.385 1.369-7.043 1.327-0.477 0.296-0.42 1.125-1.158 1.158 8e-3 8e-3 0.02 0.013 0.029 0.02-0.783 0.162-1.951 0.229-2.275 0.343 0 0.158-3.146 1.756-4.531 1.504-0.264 0.083-0.627-0.159-1.473 0.101-0.092-0.453 1.029-0.978 1.465-1.233 0.764-0.307 2.068-1.185 2.459-1.608 0.535-0.153 4.988-1.939 5.258-2.406 1.277 0.16 7.176-2.501 8.334-2.86 0.936-0.289 1.932-0.062 2.781-0.695 0.16 0.265 4.15-0.426 5.678-0.463 0.844-0.021 2.072 0.453 2.084-0.58-3.631-0.507-8.115 0.076-11.121 1.506-1.414-0.593-3.34 1.05-3.33 1.055-1.342 0.401-3.67 1.045-4.516 1.776-0.584-0.235-5.984 2.513-5.984 2.513-0.068 0.301-4.41 2.717-4.617 2.562 0.516-0.279 3.502-2.515 3.785-3.3 1.246-0.595 2.641-1.948 3.375-2.926 1.277-0.807 3.928-2.552 5.166-3.795-2e-3 0.01-0.01 0.022-0.014 0.032 0.836-0.091 3-1.515 3.586-1.854 0.121-0.305 1.635-1.583 1.613-2.03-6e-3 0-0.012 2e-3 -0.018 3e-3 1.174-0.709 2.049-1.715 3.502-2.145 0.592 0.24 1.656-0.227 1.854-1.043 1.707-1.151 3.203-2.511 5.793-2.78 0.541-0.81 1.42-1.283 2.316-1.738 1.055 0.052 1.85-0.158 1.736-1.274-0.549-0.046-0.795 0.208-1.389 0.116-2.066 1.486-5.066 2.04-6.719 3.938-1.07 0.244-3.34 1.41-3.707 1.622-0.355 0.084-3.477 1.828-4.113 3.554-1.133 0.521-2.848 1.723-3.791 2.692 2e-3 -1e-3 2e-3 -3e-3 2e-3 -5e-3 -0.545 0.613-3.789 2.226-4.494 2.68 0.207 0.722-7.746 5.917-8.35 7.217-0.775 0.203-1.166 0.92-2.076 0.661-0.324 0.1-0.246 0.603-0.463 0.811-0.568 0.127-0.955 0.436-1.506 0.58-1.945 1.877-4.117 3.528-6.951 4.518 1.994-2.137 3.611-4.652 6.371-6.024-0.197-0.073-0.189-0.35-0.348-0.463 0.654-1.317 1.98-1.959 3.012-2.896-0.545-1.512 4.027-5.179 4.75-6.256 1.76-1.06 4.311-4.765 4.402-4.981 1.846-0.542 6.328-2.436 6.604-3.127 0.354-6e-3 8.355-5.575 8.689-5.561 0.621-0.383 0.83-1.176 1.852-1.158 1.047-2.005 4.318-1.784 5.561-3.591-1.24-0.527-2.598 0.68-3.475 1.275-1.357 0-2.402 1.298-3.359 2.085-0.361-0.305-8.879 5.952-9.078 6.101l-0.521 0.335c0.02 0.152-3.635 1.856-3.822 1.697-0.189-0.16 2.061-1.752 1.953-1.993 0.193-0.38 0.885-0.965 0.885-0.965 0.43-0.921 2.412-1.915 2.707-2.973 0.527 0.065 6.963-6.707 9.73-7.878 0.461-0.967 1.229-1.147 1.969-1.622 1.186-0.758 1.822-2.034 3.359-2.084 1.037-0.035 1.785 0.213 1.971-0.927-1-0.166-2.074 0.062-3.244-0.116-1.662 1.428-3.639 2.541-5.098 4.17-0.467 0.111-9.082 6.22-9.268 6.951-1.195 1.006-2.678 1.725-3.707 2.896-0.354-0.083-5.779 5.69-7.992 6.603-0.107-6e-3 2.438-3.253 3.268-5.243 0.619-0.136 4.471-5.161 4.262-5.415 1.238-2.932 10.059-12.106 11.816-14.249 0.74-0.026 1.457-0.664 0.926-1.274-1.566 0.325-5.643 5.594-7.529 6.487-0.283-0.115-8.26 11.588-9.268 11.701 0.217 0.971-3.299 5.986-4.463 7.992-1.037 1.606-2.342 2.947-3.529 4.403-0.838 0.013-5.23 6.185-6.121 6.683 2e-3 0.147-1.445 1.638-1.674 2.328-0.586 0.262-0.645 1.05-1.242 1.3-0.498-4e-3 2.24-4.892 2.172-5.007 0.881-2.624 4.02-9.276 4.064-10.837 1.346-1.703 2.016-4.015 2.568-6.514 0.41-0.168 2.586-4.421 2.432-5.444 1.371-2.453 2.6-5.046 3.939-7.53-0.057-0.364 1.426-2.436 2.201-3.127 0.732-1.893 1.363-3.888 2.896-4.981 0.137-0.787 1.004-1.42 0.463-2.201-0.979 0.103-1.344 0.82-1.506 1.737-2.924 3.949-5.088 8.66-7.646 12.975 0.484 0.935-3.547 6.605-3.469 7.123-0.441 1.299-6.012 16.644-6.455 16.823 0.25 0.303-0.375 1.634-0.502 2.003-0.262 0.24-0.412 0.593-0.58 0.927-0.408-0.092-1.338 1.273-1.785 1.716-0.445 0.442-1.717 1.229-1.92 3.382-0.422 0.036-0.754-0.019-1.043-0.116-0.602-1.981-0.037-4.601 0.23-6.719 0.199-0.951 0.32-1.883 0.117-2.549 0.805-1.201-0.395-3.847 0.811-4.75 0.1-1.608-0.541-2.548-0.232-4.054-0.098-0.404-0.199-1.243 0-1.623-0.4-1.386 0.43-10.764 0.465-13.554 0-0.307-0.045-0.661 0.115-0.811 0.654-3.434 0.861-7.119 1.621-10.657v-0.116c0.715-1.371 0.713-3.458 1.275-4.981v-0.116c0.371-1.047 0.635-2.101 1.043-3.244 0.449-1.26 1.506-2.315 1.854-3.359 0.098-0.296-0.041-0.862 0.115-1.39 0.094-0.32 0.969-1.478 0.115-1.622-0.238-0.041-1.164 1.708-1.273 1.969-0.213 0.5 0.299 0.08-0.117 0.812-0.264 0.467-0.711 0.732-0.926 1.274-0.621 1.558-1.176 3.565-1.969 5.097-0.092 0.565-0.34 0.975-0.463 1.506-0.174 0.638-0.15 1.473-0.465 1.969 0.123 1.05-0.25 1.604-0.463 2.317-0.041 0.885-0.229 1.625-0.348 2.433v0.116c-0.154 1.544-0.201 3.197-0.695 4.402 0.049 0.55-0.057 0.948-0.23 1.275 0.076 1.775-0.199 3.199-0.117 4.981 0 0-0.4 1.378-0.783 3.275 0.107-4.006 0.516-16.805 0.738-18.435v-0.58c0.012-1.118 0.621-3.14-0.23-3.707-1.219 0.386-0.523 2.849-0.811 4.633-0.191 1.18 0.014 16.079 0.035 19.533-0.445 2.677 0.443 9.018 0.588 9.297-0.635 2.24 0.082 4.727-0.811 6.835 0.443 1.437 0.082 3.688-0.348 4.981-0.453-0.165-0.508-0.729-0.465-1.391-0.109 0.023 0.264-5.554 0.42-6.24-0.689-1.916-1.107-4.958-0.695-7.415-0.098-0.288-0.16-2.638-0.578-3.359 0.361-0.558 0.322-1.598-0.012-2.213 0.365-1.917-0.973-8.669-0.916-9.603 0.039-0.659 0.332-1.135 0.117-1.854 0.066-0.395 0.316-0.608 0.346-1.042-0.371-0.513-0.146-2.591-0.486-3.486 8e-3 3e-3 0.014 8e-3 0.023 0.011 0.514-0.334-0.115-0.63-0.115-1.042 0-0.562 0.328-1.192 0.348-1.854 0.041-1.433 0.139-2.763 0.348-4.287 0.375-2.757 1.268-5.56 1.273-8.225-1.266 0.312-0.809 1.987-1.043 3.127-0.369 1.797-0.975 3.211-1.158 5.329-0.201 2.334-0.078 4.222 0.115 5.676 0.033 0.246-0.119 0.597-0.107 0.874-2e-3 0-2e-3 -1e-3 -2e-3 -1e-3 -0.115 0.154-0.08 1.679-0.238 1.792-0.205 1.997 0.559 4.006 0.348 5.676-0.078 0.629-0.191 6.956 0.52 8.858-0.176 0.684-0.094 4.811 0.408 5.159-1.139 2.327 0.551 4.419 0.348 6.719 0.096 0.29 0.316 0.456 0.348 0.811-0.381 0.56-0.377 5.232-0.332 6.745-0.143 0.028 0.83 2.272 0.26 3.666-1.096-0.293-1.004-1.775-1.506-2.664 0.182-0.36 0.785-2.849-0.115-3.244 0.471-0.987-0.709-3.761-1.621-4.17-0.539 0.462 0.322 2.727 0.463 3.012-0.234 0.524 0.02 1.681 0.578 1.854 0.268 0.92-0.434 2.597-0.463 3.012-0.42 0.623-1.045-0.544-0.811-0.811-0.256-0.479-0.182-1.286-0.58-1.622-0.039 4e-3 -0.268-1.161-0.465-1.757-0.02-0.115-0.176-0.56-0.229-0.648-2e-3 0-2e-3 -1e-3 -2e-3 -1e-3 -0.576-1.557-1.994-8.487-2.477-8.467-0.109-1.308 0.018-6.594-0.207-6.876 0.363-1.546 0.318-8.652 0.867-9.006 0.297-1.216 0.512-1.959 0.463-3.359-0.355-0.297-0.609 0.249-0.926 0.348 0.285 1.849-0.721 4.592-0.463 6.024 6e-3 -6e-3 0.012-0.015 0.018-0.021-0.432 1.94-0.768 8.705-0.795 10.146-0.352-0.321-1.205-3.801-1.041-5.016-0.709-1.262-1.396-2.542-1.971-3.939 0.15-0.935-0.221-1.427-0.346-1.969-0.189-0.813-0.15-1.759-0.35-2.549-0.113-0.459-0.492-0.906-0.578-1.39-0.082-0.454 0.047-0.937 0-1.391-0.42-4.071-1.156-8.196-1.738-12.163 0.398-0.51 0.627-1.476 0.348-2.317 0.154-0.387 0.33-1.564 0.232-2.085 0.203-0.686 1.066-0.709 1.043-1.622-0.146-0.047-0.238-0.149-0.232-0.348-1.098-0.132-0.939 0.992-1.854 1.042-0.266 1.185 0.137 2.304 0.232 3.012 0.084 0.633-0.207 1.205-0.232 1.854-0.051 1.26-0.174 2.727-0.115 3.939 0.115 2.454 1.33 4.967 1.041 7.183 0.619 2.131 0.875 4.985 1.623 7.298-0.018 0.409-0.332 0.519-0.348 0.927 0.521 0.869 0.938 1.842 1.506 2.665-0.199 2.554 1.4 3.311 1.158 5.908 1.584 1.041 0.988 4.262 2.316 5.56-0.145 0.282 0.652 2.09 0.812 2.549 0.092 2.108 1.619 2.781 1.273 5.329 0.229 0.266 0.674 1.797 0.623 1.838-1.133-0.528-1.15-2.171-2.201-2.78-0.541 0.572 0.689 1.193 0.463 2.201-1.387-0.389-1.906-1.646-2.779-2.549-1.824-0.378-2.791-1.611-4.635-1.969-0.473-0.787-0.777-1.474-1.273-1.158-1.264-0.01-1.559-0.991-1.969-1.854-0.834-0.634-1.309-1.627-2.201-2.201-0.016-0.48 0.031-0.895 0.23-1.159-0.055-0.364 0.166-0.453 0.232-0.695 0.861-2.228 2.293-3.884 3.244-6.024-0.42-0.837 0.645-2.007-0.232-2.548-0.842 0.046-0.779 0.997-0.811 1.854-0.703 1.42-1.275 2.973-2.549 3.823 2e-3 0.735-1.568 4.986-2.434 5.444-0.881-0.546-1.918-0.938-2.547-1.737-0.43 0.082-0.498-0.198-0.928-0.116-1.928-1.199-4.432-1.823-4.748-4.634-1.16-1.854-2.105-8.32-2.086-8.456-0.561-1.614 0.494-2.419 1.043-3.244 0.336-0.506 0.477-1.132 0.811-1.622 0.58-0.855 1.207-1.335 1.736-2.317 0.328 0.012 0.023-0.795-0.348-0.811-0.545 0.149-0.832 0.556-1.273 0.811-0.838 2.704-3.84 3.365-3.012 7.414 0 0 0.266 3.174 0.463 4.518 0.215 1.467 1.213 2.274 1.158 3.475-1.201-0.228-1.322-1.536-2.084-2.201-1.219-0.545-2.9-2.415-2.896-2.433-0.023-6e-3 -4.967-5.537-5.678-6.951-0.092 0.061-0.188 0.121-0.348 0.116-0.65 2.256 2.199 3.651 3.361 5.561 0.082 0.135 0.018 0.338 0.115 0.464 0.844 1.094 2.303 1.302 2.664 2.78 1.293 0.527 2.529 1.711 2.896 2.78-1.307-0.547-2.574-1.132-3.129-2.433-2.273-0.814-3.604-2.574-5.561-3.707-0.6-0.712-0.961-1.665-2.084-1.854-0.609 0.778 0.43 1.771 1.273 1.854 1.746 2.154 4.02 3.781 6.488 5.213 1.49 2.486 4.99 2.964 6.604 5.329 2.637 0.993 3.814 3.445 6.256 4.634 0.098 0.484-0.314 0.458-0.463 0.695-0.607 0.104-4.797-2.44-4.867-2.201-1.479 0.127-1.75-0.951-3.012-1.043-0.889-1.583-3.133-1.81-4.402-3.011-0.768-1.396-2.109-2.216-3.244-3.244-0.584-1.54-2.396-1.851-2.779-3.591-1.25-0.604-1.598-2.109-2.781-2.78-0.27 0.039-0.498 0.119-0.578 0.347 0.105 1.096 0.979 1.735 1.699 2.427 0.201 0.243 0.408 0.478 0.619 0.705 0.148 0.223 0.078 0.489 0.23 0.691 0.26 0.35 0.609 0.495 0.926 0.811 1.186 1.188 2.053 2.909 3.588 3.852 0.273 0.225 0.533 0.42 0.764 0.623 0.273 0.414 0.602 0.774 0.631 1.433-0.104 0.051-0.209 0.102-0.232 0.232-1.58-0.235-1.777-1.854-3.475-1.969-0.572-1.625-3.766-4.034-4.402-4.634-0.404-0.64-0.275-1.81-1.158-1.969-0.807 1.563 1.125 2.332 1.158 3.823 1.803 0.9 2.197 3.207 4.285 3.823 0.314 0.436 0.215 0.939-0.23 1.159-1.633-1.148-3.725-1.838-4.75-3.592-3.025-0.721-3.828-3.662-6.719-4.518-0.168 0.065-0.283 0.181-0.348 0.348 1.363 1.841 3.141 3.268 4.865 4.75 0.16 0.411 0.441 0.652 0.926 0.695 2.219 0.795 3.365 2.659 5.793 3.244 0.59 0.413 1.092 0.916 1.506 1.505 0.352-0.069 1.129-0.419 1.506 0.232v0.116c0.131 0.024 0.182 0.128 0.232 0.231 0.52 0.407 0.93 0.923 1.736 1.042 1.127 0.83 1.07 3.179 1.738 4.75 0.309 0.726 0.895 1.162 0.232 1.97-0.293-0.171-0.48-0.448-0.58-0.812-0.635-1.081-2.297-1.695-2.201-3.127-0.432-0.868-0.84-3.456-2.432-3.938-1 1.845 1.744 2.961 0.926 4.634-0.934 0.161-1.096-0.448-1.273-1.042h-0.695c-0.367-0.443-0.348-1.275-1.043-1.391-0.436 0.183-0.863 0.371-1.391 0.464 0.268 0.584 0.949 1.365 1.623 1.158 1.492 1.634 3.535 2.721 5.328 4.055-0.154 1.63 1.693 1.847 1.391 3.243-2.9-1.232-6.051-2.212-7.762-4.633h-1.043c-0.598-0.792-1.863-0.918-2.201-1.97-1.977-0.264-2.01-2.469-4.17-2.548-0.262-1.168-1.578-1.279-2.086-2.201-0.111-0.876 0.357-1.623-0.348-1.854-0.471 0.029-0.572 0.432-1.158 0.348 0.049 1.885 1.582 3.177 3.012 4.054-0.096 0.328 0.164 0.3 0.117 0.58 1.535 0.859 2.871 1.916 4.17 3.012v0.58c2.199 0.89 4.5 1.679 5.791 3.475 0.465 0 0.867 0.062 0.812 0.58-1.014-0.493-2.529-0.484-3.359-1.159-0.111 0.016-0.195 0.061-0.262 0.122-0.996-0.765-2.816-1.286-3.49-1.96-0.086-0.424-1.959-1.047-3.129-0.927-0.238-1.189-1.395-1.462-1.852-2.433-1.357-0.22-1.002 0.722-0.58 1.274 1.287 0.104 1.779 1.002 2.316 1.854 1.926 0.76 4.328 2.478 6.523 3.105 2e-3 0.079 6e-3 0.158 0.01 0.239 1.619 0.806 2.791 1.517 4.98 1.274 1.613 1.049 3.305 0.201 4.871 1.532 1.832-0.096 3.33 2.431 3.586 3.913-1.221 0.242-2.227-0.7-3.129-1.158-1.857-0.035-3.164-0.621-4.633-1.043v-0.927c-0.754-0.405-1.045-1.271-2.201-1.274-0.201 0.896 0.707 0.682 0.578 1.506-0.824 0.53-2.279-0.041-2.664-0.696-0.465 0.08-0.66-0.11-1.043-0.115-1.461-1.667-4.129-2.126-5.676-3.708-0.65-0.181-1.912-1.212-2.086 0.116 1.719 1.565 4.16 2.405 5.33 4.518 2.117 0.083 3.197 1.205 3.939 2.665l1.969 1.738c1.012 0.445 2.51 0.286 3.012 1.39-1.941 0.652-3.301-0.424-4.635-1.042 0 0-1.619-1.905-1.676-1.774-0.33-0.273-0.752-0.521-1.178-0.766 0.018-8e-3 0.035-0.018 0.051-0.029 0.033-0.021-0.479-0.367-0.484-0.367-0.068-3e-3 -0.135 3e-3 -0.203 0.025-0.617-0.375-1.125-0.765-1.188-1.246-0.463 0.039-1.443-0.681-1.621-0.927-0.334 0.014-0.76-0.063-0.928 0.116 0.449 1.135 2.117 1.05 2.434 2.317 0.639 0.059 1.783 1.025 2.703 1.558-0.045 0.087 1.199 0.978 1.512 1.67-2.631 0.326-5.836-0.057-7.646-1.39-2.76 0.346-3.986-2.496-6.256-1.506 0.229 0.775 3.48 1.981 4.287 2.317 0.426 0.177 0.967-7e-3 1.389 0.115 0.779 0.224 3.961 1.025 4.287 0.927 0.742 0.456 2.061 0.334 2.549 1.043 1.91-1.045 4.516-0.278 5.213 1.506 0.988 0.015 1.453 0.555 2.201 0.811-0.238 0.438-0.611 0.742-1.049 0.981-0.111 0.041-0.217 0.097-0.32 0.161h2e-3c-1.498 0.679-3.543 0.808-4.078 2.449 2.857 0.34 4.602-2.421 7.646-2.665 0.354-0.303 0.514-0.798 1.158-0.811 0 0 1.109-1.26 6.488 1.39 0.074 0.423-0.078 0.617-0.232 0.811-0.65-0.33-2.129 0.199-2.201 0.695 1.371-0.369 2.352-0.801 3.707-0.116 0.236 0.603-7.52 3.299-8.34 3.591-0.855 0.304-1.674 0.177-2.664 0.348-0.338 0.044-0.463 0.303-0.629 0.519l0.098 0.38c1.166-0.098 3.77-1.188 4.584-1.014 0.541 0.079 2.957-1.523 4.75-1.622 0 0 1.471-0.833 2.434-0.927 1.193-0.117 2.895-0.935 4.055-1.042 1.479-0.138 2.736-0.432 4.17-0.464 0.332-0.03 0.463-0.567 0.811-0.231-0.113 1.019-5.371 1.818-6.307 2.343l-0.539 0.149c-1.238 0.091-2.131 0.301-3.178 0.301l-1.178 0.307c0.102 0.205 0.209 0.403 0.428 0.491 0.895-0.499 3.361-0.153 4.443-0.667 0 0 6.127-1.118 6.562-1.534 2.305 0.139 4.359-1.583 6.834-1.274-0.152 0.325-0.854 0.539-0.463 1.042 1.176-0.466 1.27-2.162 3.244-1.506 0.906-1.342 2.955-0.194 3.822-1.622 0.506 0.248 0.715-0.179 1.043 0-0.02 1.254-0.441 2.106-1.043 2.78 0.109 1.24-0.619 2.618-1.043 3.707v0.579c0.055 0.768-0.494 0.938-0.695 1.391-0.133 0.302-0.979 2.532-1.273 3.359-0.215 0.602-1.566 3.666-1.738 4.055-0.938 2.116-1.246 4.069-2.549 6.256 0.023 1.721-0.67 2.728-1.273 3.823-0.098 2.026-1.221 3.026-1.738 4.634v0.116c-0.48 1.527-2.543 4.716-2.779 5.097 0.232 1.834-1.207 2.952-1.506 4.634 4e-3 0.159-1.914 4.264-2.086 4.518-0.482 0.6-1.004 1.16-1.043 2.201-0.17 0.486-0.322 0.99-0.578 1.39l-1.623 3.476c0.027 0.219-0.264 1.242-0.463 1.39-0.26 0.32-1.764 4.685-2.779 5.445 0.113 1.172-0.875 2.962-0.875 2.962-0.051 0.084-0.801 1.387-0.979 2.02-0.521 0.746-2.545 5.709-2.781 7.414-0.182 0.397-0.693 1.274-0.811 1.274-0.141 0.4-0.82 1.729-1.16 1.854 0 0-1.855 4.937-1.918 5.027-0.439 0.604-1.236 2.513-1.439 2.619 0 0-2.512 3.749-4.166 6.364 0.027 0.023 0.047 0.051 0.041 0.086-0.352 0.439-0.568 0.746-0.711 0.988 0 0.025-0.023 0.062-0.059 0.105-0.352 0.641-0.203 0.861-1.014 2.303 0.705-0.157-3.342 4.713-2.848 4.343-0.164 0.277 3.023-1.609 2.865-1.327 1.945-0.435 1.67-3.325 3.465-3.908 0.742-1.16 1.203-2.598 2.078-3.627 0 0 2.053-4.355 2.316-4.981 0.209-0.408 0.363-0.871 0.578-1.273-0.01-0.165-0.018-0.328 0.117-0.348-0.033-0.187 0.109-0.2 0.115-0.348 0.373-0.438 0.924-0.698 0.928-1.506 8e-3 -0.184 1.369-2.105 1.391-2.664 0.24-0.184 0.652-2.321 0.926-2.665 0.326-0.457 0.787-0.958 0.811-1.39v-0.116c0.297-0.245 3.172-7.679 3.244-8.11 0.111-0.236 1.707-3.642 1.715-3.677 0.273-0.634 0.377-1.434 0.717-1.999 0.16-0.07 2.516-6.289 2.781-6.487 0.012-0.102 0.1-0.345 0.125-0.417l1.381-2.479c2.457-4.583 3.34-7.627 3.475-7.994 0.188-0.546 1.109-2.515 1.391-3.127 6e-3 -0.149 0.594-1.145 0.695-1.507 0.143-0.243 0.611-0.855 0.578-1.042 0.012-0.173 4.201-9.336 4.75-11.005 0.057-0.366 3.262-9.752 3.359-9.731 1.09-2.386 2.035-4.917 3.014-7.415 0.018-0.136-0.021-0.329 0.115-0.347v-0.116h0.115c0.283-1.417 1.203-2.196 1.623-3.476 0.062-0.168-0.137-0.599 0.115-0.579v-0.116c0.15-0.776 0.775-1.078 0.926-1.854-0.215-0.018-0.07-0.392-0.23-0.463 0.205 0.103 0.293 0.323 0.693 0.231 0.199-0.187-0.545 1.137 0.117 2.317 0.912 0.284 1.256 1.138 1.506 2.085 0.398 0.218 1.08 0.155 1.158 0.694 0.371-0.232 0.908 0.639 1.391 0.579 1.016 0.298 2 2.379 2.316 1.854 1.434 0.227 1.635 1.686 3.127 1.853 0.771 1.353 2.85 1.4 3.477 2.896 2.273 0.43 3.234 2.172 5.213 2.896 0.191 0.542 0.5 0.968 1.043 1.158 0.012 0.222 6.463 3.653 8.455 6.372-0.17 0.168 0.682 0.602 1.275 0.695 0.637 1.293 2.189 1.672 2.664 3.128 0.115 0.371-0.287 0.935 0.232 1.274 0.27-0.038 0.496-1.047 0.596-1.611 0 0-0.939-1.516-1.297-1.991l-0.025-0.215c-0.793-0.704-2.205-2.173-2.402-2.207-0.064-0.106-0.508-0.466-0.535-0.554l-1.318-0.373c-1.061-0.446-1.729-1.283-2.432-2.085l-0.117-0.232c-0.465-0.02-0.736-0.207-0.842-0.416l-0.549-0.511c-1.699-0.231-4.262-2.147-4.168-2.548-1.561-0.371-2.398-1.463-3.477-2.317 2.143 0.024-2.697-1.891-2.664-1.854-0.273-0.017-0.449-0.129-0.531-0.338l-2.365-1.631c-1.367-0.587-2.068-1.556-3.244-2.085l-0.557-0.527c-0.164-0.016-0.604-0.652-0.836-0.694l-0.33-0.74c0.309-0.274 0.074-1.066 0.16-0.765l1.529 1.126c0.633-0.391 1.141 1.499 1.771 1.483 0.016 1.065 1.227 0.936 1.467 1.776l2.617 1.702c0.162-0.02 0.344 0.018 0.434 0.113l0.775 0.646c0.666-0.25 3.574 1.955 3.975 2.598 0.975 0.241 6.996 3.624 7.264 3.789l3.518 2.977c0.705 0.281 1.672 0.546 1.613 1.228-0.078 0.1 1.357 0.172 1.807 0.885l1.207 1.689s1.379 1.475 1.99 3.017c0.613 1.542 1.871 3.318 1.75 4.404s1.207 3.741 1.207 3.741 1.639 1.219 1.756 2.208c0.115 0.99 1.381 2.015 1.381 2.015-0.09-0.206-2.102-4.955-3.377-7.24-0.598-1.067-0.363-2.711-1.029-3.889-0.66-2.326-2.088-3.672-2.926-5.098-0.904-1.539-1.559-2.599-1.68-2.66 0 0-2.812-1.242-3.129-1.737-0.779-0.224-1.322-0.685-1.621-1.391-0.381-5e-3 -0.576-0.195-1.043-0.116-0.49-1.015-1.9-1.111-2.316-2.201-0.377 0.067-0.539-0.079-0.811-0.116-0.711-1.878-4.084-1.091-4.285-3.476 2.092 0.726 3.859 1.777 5.328 3.128l1.506 0.927c0.844 0.2 2.764 0.876 3.076 1.221 1.213-0.209 1.275 1.533 2.484 1.328l1.043 1.042c0.666-0.181 0.529 0.631 1.043 0.927 0.234 0.137 1.486 0.776 3.092 2.276 1.121 1.047 1.951 1.74 3.016 2.835 1.5 1.544 3.164 3.939 3.127 4.366 0 0 3.027 1.909 2.787 1.125-0.242-0.784-3.152-2.817-4.35-4.159-0.6-0.672-1.02-1.785-1.684-2.539-0.939-1.065-2.125-1.772-2.867-2.625-0.836-0.958-1.428-1.643-1.5-1.743-0.523-0.289-1.26-0.363-1.391-1.042-1.326 0.091-1.549-0.923-1.969-1.738-0.73 0.273-1.844-1.379-2.896-1.159-0.838-0.667-1.512-1.501-3.012-1.506l-0.463 0.116c-1.051-1.112-2.26-2.065-3.592-2.896-2.064 0.25-2.566-1.063-3.477-1.969-0.578-0.077-0.896 0.107-1.389 0.116-0.094-0.485-0.271-0.888-0.58-1.158-0.373-0.026-0.49 0.205-0.926 0.115-0.084-0.341-0.133-0.717-0.348-0.927-1.52-0.488-2.539-1.477-4.17-1.854-0.561-1.333-2.834-0.95-3.129-2.548 0.732-0.35 1.189 0.486 1.506 0.927 3.033 0.327 4.494 2.226 7.646 2.433 0.809 0.371 1.613 1.159 2.549 1.042 0.82 1.458 3.887 0.67 4.518 2.317 1.502-1.064 2.406 0.922 4.402 0.463 0.344 0.233 0.57 0.587 0.926 0.811 1.008-0.082 1.49 0.364 1.971 0.812 0.23-5e-3 1.23-0.14 2.697 0.51 0.654 0.29 1.381 1.154 2.207 1.537 1.262 0.584 1.734 1.509 3.264 2.244 1.115 0.535 2.254 0.483 2.736 1.287 0.723-0.241 4.672 1.609 6.148 2.342 1.863 0.926 2.654 0.839 4.311 1.68 1.83 0.929 3.232 2.868 4.504 3.54 1.631 0.862 2.289 0.721 4.041 1.487s0.123-1.351 0.123-1.351c-0.365-0.081-1.76 0.066-3.439-0.698-0.682-0.311-1.213-1.302-2.049-1.694-1.051-0.494-2.107-1.737-3.342-2.329-1.402-0.672-3.004-0.704-4.541-1.453-1.832-0.893-7.768-3.937-8.09-3.534-1.676-0.829-0.826-0.861-2.393-1.646-1.33-0.667-2.154-1.704-3.318-2.296-0.85-0.432-2.088-0.44-2.812-0.814-2.568-1.325-4.264-2.239-4.408-2.405 0.355-0.049 1.379 0.554 4.887 1.208 0.727 0.135 3.174 0.118 3.953 0.269 0.764 0.148 1.131 0.619 1.92 0.777 2.672 0.536 4.281 0.91 6.598 1.448 0.949 0.221 1.139-0.117 2.092 0.081 1.949 0.404 4.5 1.286 5.148 1.448 0.965 0.242-1.428-1.144-1.428-1.144-0.281-0.052-0.736-0.157-2.344-0.505-0.42-0.091-0.92-0.2-1.518-0.328-0.723-0.155-2.969-0.561-4.785-0.896-0.965-0.178-1.807-0.336-2.234-0.426-1.576-0.332-1.539-0.902-3.057-1.207-1.695-0.34-1.445 0.161-2.688-0.053-1.375-0.236-2.348-0.366-2.648-0.322-0.281-0.22-2.994-1.874-3.127-1.505-0.785 0.191-1.309-0.532-2.316-0.464-0.373-0.386-1.473-0.497-1.971-0.463-1.691 0.114-3.096-1.458-4.633-1.738 1.795-1.66 4.49 0.899 6.254 0.347 1.07 0.94 3.705 0.313 4.635 1.391 0.596-0.651 1.674 0.691 2.201-0.232-0.176-0.702-1.266-0.818-1.854-0.464-0.676-0.775-1.996-0.907-3.014-1.34l-0.838-0.236c-2.623-0.191-7.623-0.898-8.428-1.667 1.5-0.11 6.32 0.48 8.51 1.27zm6.67-1.84c-1.748 0.671-6.965 0.05-7.059-0.084 0.31-0.09 0.05-1.27 7.06 0.08zm-21.89-8.77c0.887-0.447 1.572-1.95 3.172-1.459 0.078 1.161-1.6 1.142-2.014 1.807-1.156-0.191-3.096 1.23-4.15 1.139-0.01-0.71 2.43-1.21 2.99-1.49zm13.28-22.7l0.238-0.2c1.096-0.577 1.379-2.215 2.818-2.009-0.143-0.56 0.289-0.928 0.578-0.695-0.518 1.373-1.826 1.958-2.432 3.244-1.555 0.492-4.893 5.186-6.373 5.677-0.2-1.53 3.84-4.42 5.16-6.02zm-17.22 17.37c0.08-0.089 2.775-2.962 3.553-3.729 0-3e-3 2e-3 -5e-3 2e-3 -7e-3 0.736-0.27 3.402-3.378 3.859-3.794 0.084-0.354 2.236-3.612 3.012-3.707 0.637-0.078 1.215 0.284 1.275 0.811 0.1 0.899-1.922 1.961-2.781 2.896-0.225 0.245-3.285 3.937-3.707 4.518-0.785 0.604-3.477 4.555-5.096 4.866-0.619 0.075-0.648-0.636-0.816-1.107 0.24-0.08 0.5-0.77 0.71-0.75zm-2.33 2.69c1.221-0.376 0.924-1.397 1.639 0.088 0.039 0.581-1.068 1.076-1.16 1.506-0.311 0.423-1.006 0.163-1.391 0-0.14-0.49 0.97-1.04 0.91-1.6zm-2.5-45.31l2e-3 -1e-3c-2e-3 2e-3 -2e-3 4e-3 -2e-3 6e-3v-0.01zm-37.57 53.16h-0.115c-0.635 0.332-1.475 0.458-2.201 0.695-0.508-0.884-1.705-1.076-2.086-2.085 1.639-0.453 3.889-0.07 5.213 0.695 0.04 0.52-0.33 0.65-0.8 0.69zm-1.39-3.25c-1.213-0.536-2.66-0.794-3.707-1.274-0.25-0.115-0.561-0.493-0.926-0.695-1.266-0.697-2.514-0.708-2.318-2.085 2.566 0.833 4.27 2.527 7.184 3.012 0.984 0.829 3.367 0.261 3.822 1.622-1.58 1.05-2.94-0.1-4.04-0.59zm15.18-18.07c0.246 0.237 0.928 0.455 1.158 0.695 0.197 0.204 0.068 0.438 0.232 0.695 0.203 0.319 0.643 0.378 0.926 0.695 2.184 1.405 5.201 5.468 6.951 6.603-0.076 1.273 1.004 1.391 1.158 2.433-1.789-0.917-8.742-6.902-9.152-7.066-0.76-2.135-3.102-2.689-3.822-4.866 1-0.31 1.98 0.28 2.54 0.82zm-4.4 1.97c0.391-0.563 0.088-1.553 1.158-1.39 0.875 0.133 3.25 3.535 4.982 5.329 0.982 0.831 3.004 2.128 3.822 2.896 1.676 1.838 4.098 2.93 5.213 5.329-1.479-0.182-1.842-1.479-3.359-1.622-1.473-2.046-4.121-2.62-6.141-4.055-0.096-0.069-1.227-0.764-1.621-1.042-0.367-0.259-1.525-1.148-1.736-1.274-0.648-0.387-1.33-0.953-1.971-1.391-0.648-0.444-1.484-0.884-1.736-1.622 0.19-0.65 0.92-0.49 1.4-1.18zm6.95 9.38c-0.682-0.089-1.188-0.357-1.391-0.926 0.86-0.08 1.28 0.27 1.39 0.93zm-2.06-2.06c0.473 0.068 0.828 0.254 0.928 0.695-0.31-0.25-0.99-0.11-0.93-0.7zm-0.47 0c-0.135 0.098-0.311 0.153-0.578 0.116-0.086-0.416-0.273-0.731-0.35-1.158 0.35 0.3 0.67 0.64 0.93 1.04zm-3.5-1.99c1.418 0.171 2.422 1.353 2.779 2.201-0.633 0.289-1.391-0.526-2.104-0.485l-0.363-0.162c-1.008-0.893-4.188-1.676-4.715-1.901-0.471-1.214 0.816-1.543 1.621-1.854 0.58 1.07 2.33 0.99 2.77 2.2zm2.09 2.78c-0.188 0.737-2.119 0.249-2.779 0.231-0.389 0.119-3.73-0.942-4.982-1.622-0.031-1.604 3.836 0.379 5.654 0.629 0 0 1 0.89 2.11 0.76zm-15.99-11.58c-1.062-0.482-1.477-1.613-2.896-1.738-0.262-0.346-0.68-0.792-0.463-1.274 0.902 0.102 1.541 0.468 1.854 1.158 0.82 0.24 1.86 0.82 1.51 1.85zm0-3.13c1.014-0.412 1.412 0.735 2.316 0.811 0.627 1.17 2.512 1.2 3.824 1.969 0.453 0.266 1.143 1.078 1.506 1.274 1.582 0.856 4.256 1.538 3.475 3.359-2.42-0.746-3.934-2.399-6.256-3.243-0.146-0.355-0.395-0.609-0.578-0.927-1.73-0.78-3.76-1.26-4.29-3.24zm3.48 9.27c-0.787-0.912-1.141-2.258-1.391-3.707 2.521 0.074 4.242 1.929 6.488 2.665 0.516 0.218 0.775 0.69 1.041 1.159-0.59 1.158-1.34 3.093-3.127 2.317-1.56 1.01-3.88-0.67-3.01-2.43zm0.92 3.7c0.662-0.06 1.693 0.347 2.086 0.927-0.62 1.02-2.05 0.03-2.09-0.93zm0.93 2.67c2.578-0.286 5.773 0.063 7.529 1.273 1.141-0.353 1.73 0.356 2.434 0.58 0.482 0.153 1.162 0.031 1.736 0.231 0.434 0.151 2.365 0.727 2.781 0.927 0.625 0.302 2.113 1.104 2.779 1.274 0.734 0.189 1.645 0.823 1.854 1.391-2.197-0.042-11.861-2.542-12.164-2.78-2.557 0.516-2.832-0.979-5.463-0.998 0.17-1.25-1.49-0.81-1.49-1.89zm11.24 6.14l-1.854-0.631c-1.164 0.052-2.332-0.784-3.475-0.759-1.047 0.023-2.404 0.273-3.477-0.464-0.039-0.385-0.334-0.514-0.23-1.042 1.086-0.07 2.633 0.37 3.475 0.927 1.869 0.062 3.793 0.069 4.865 0.927l0.811 0.348c1.984-0.921 3.832 1.113 5.676 1.043-0.652 0.276-3.336 0.91-3.357 0.463-0.35-0.74-1.79-0.38-2.43-0.82zm1.16 1.16c-0.021 0.597-0.793 0.442-1.391 0.464h-0.115c-0.932 0.042-1.707-0.069-2.434-0.232 0.46-1.58 2.89-0.71 3.93-0.23zm-4.87-1.16c0.029 0.378-0.139 0.558-0.463 0.58h-0.117c-1.355 0.553-3.598 0.499-3.705-1.158 1.383 0.028 1.967 0.175 3.127 0.463h0.115c0.28-0.34 0.71 0.14 1.05 0.12zm-4.17 4.52c-0.598-0.163-0.98 0.22-1.506-0.232-0.021-1.316 3.395-1.992 4.633-1.969 1.096 0.02 2.355 0.385 3.127 0.695-0.145 0.536-1.465 1.464-2.201 1.854-0.332 0.177-1.486 0.694-1.854 0.695-0.72 0-1.43-0.84-2.2-1.04zm9.85 1.73c-0.199 0.226-0.6 0.25-1.043 0.232-0.812 0.435-2.512 0.246-3.127-0.232-1.125 0.027-1.652 0.759-2.664 0.579 0.928-1.591 2.834-1.276 4.865-1.274 2.008 2e-3 4.279-0.583 6.139-0.348-0.81 0.93-2.81 0.67-4.17 1.04zm4.98 0.81c1.027-0.931 2.686-0.759 4.285-0.927-1 0.94-3.03 0.78-4.29 0.93zm3.24-2.89c-0.436 0.092-0.98 0.203-1.391 0-2.496 0.222-4.828-0.108-7.297 0.116h-0.115c-0.816-0.081-1.934 0.32-2.781 0.116 0.066-0.707 0.436-1.109 1.043-1.275 0.094-0.021 0.115-0.116 0.232-0.116 1.977-0.527 4.434 0.134 6.254 0.232h1.16c1.143-0.08 2.539 0.164 3.707 0.232 0.744 0.043 1.762-0.277 2.084 0.463-0.84 0.18-1.96 0.1-2.88 0.23zm-1.39-2.78c1.086-0.994 4.502-0.965 4.982 0.579-1.7 0.29-3.34-0.43-4.98-0.58zm5.33-2.43c-0.682 0.026-1.25-0.062-1.506-0.463 0.26-0.72 1.6-0.25 1.51 0.46zm-0.81-5.33c-0.455-0.641-1.145-0.986-1.758-1.399 0.111 0.1-0.195-0.184-0.502-0.384 0 1e-3 -1.451-2.603-2.605-3.199-0.066-0.937-0.848-1.161-1.158-1.854 1.398-0.307 2.07 1.087 2.779 1.854 2.07 0.71 3.018 2.544 3.822 4.518 0.281 0.723 1.066 0.941 1.16 1.854-1.04 0.58-1.24-0.69-1.74-1.39zm1.39 2.54c0.348-0.334 1.129-0.157 1.043 0.58-0.44 0.31-1.05-0.05-1.04-0.58zm1.74-2.31c-0.486 0.061-0.459-0.391-0.578-0.695 0.29-0.28 0.9 0.37 0.58 0.7zm-0.47 3.82c0.314-0.229 0.631 0.311 0.695 0.695-0.38-0.09-0.74-0.2-0.7-0.7zm1.05-2.32c-0.459-0.027-0.498-0.476-0.348-0.811 0.41-0.02 0.57 0.55 0.35 0.81zm1.04-2.54c0.248 0.098 0.408 0.285 0.346 0.695-0.48 0.1-0.56-0.49-0.35-0.7zm2.08 6.02c-0.502 0-1.791-0.525-2.316-0.579v-0.695c0.398 0.051 0.65-0.046 0.926-0.116-0.068-0.688 0.139-1.097 0.812-1.042 0.23 0.73 0.81 1.65 0.58 2.44zm1.97-0.35c-0.81-2.38 2.18-0.27 0 0zm0.93 1.16c-0.082-0.468 0.111-0.662 0.58-0.58 0.08 0.47-0.11 0.66-0.58 0.58zm2.08 0.12c-0.289-0.375 0.115-0.829 0.35-1.042 0.24 0.068 0.395 0.223 0.463 0.463-0.04 0.41-0.36 0.55-0.81 0.58zm1.63 10.07c-0.715 0.021-0.91-0.48-1.043-1.043 0.62-0.4 1.44 0.42 1.04 1.04zm-0.12-6.95v-0.347c0.135 0.019 0.207-0.025 0.232-0.116 0.15 0.041 0.182 0.204 0.346 0.231-0.02 0.27-0.29 0.26-0.58 0.24zm10.76 11.95l0.021 0.243c0.242 0.356 3.748 2.544 3.518 2.79-0.092 1.088-3.688-2.234-3.711-2.233-1.221 0.046-5.547-2.687-5.33-3.374 0 0 5.44 2.21 5.5 2.57zm-5.2-6.97c0.137-0.312 0.604 1e-3 0.811 0-0.07 0.25-0.71 0.11-0.81 0zm1.39 0.35c0.117-0.258 0.773-0.092 0.693 0.231-0.39 0.1-0.48-0.13-0.69-0.23zm6.61 2.32c-0.922 0.237-1.986-0.373-2.895-0.695-0.869-0.308-2.164-0.492-2.318-1.506 0.607-0.211 1.213 0.341 1.969 0.579 1.36 0.43 2.94 0.27 3.25 1.63z" fill="white"/>
		<path stroke="black" stroke-width="1" d="m854.9 289.71c-0.494 0.37 3.553-4.5 2.848-4.343 1.141-2.026 0.377-1.636 1.783-3.396 0.02-0.099-0.15-0.152-0.221-0.159 0.021 0.098-0.045 0.109-0.115 0.116-0.104 0.051-0.697 0.843-0.928 1.042-0.145 0.358-2.047 2.509-2.664 2.896-0.277 0.187-6.613 4.352-7.066 4.866 0.016 0.981-2.316 3.398-2.549 3.707l-1.043 2.896c-0.336 0.125-1.041 1.623-1.273 1.969-0.016 0.208-0.682 2.06-1.043 2.896 0 0-1.041 3.089-1.275 3.243-0.373 0.515-1.6 3.496-1.506 3.824 0.02 0.215-1.16 5.171-1.158 5.561-0.18 0.514-1.291 4.114-1.273 4.402 0.344 0.298 2.109 2.187 2.432 1.969 3.883-0.327 5.104-3.314 7.531-5.097 0.797 0.143 1.004-1.197 1.043-1.622 0.402-2.511 3.195-1.916 4.17-3.823 0.703 2e-3 1.795-1.603 1.969-1.737 0.277-0.291 2.297-2.414 1.971-2.665-4e-3 -0.465 3.688-18.497 4.055-18.188 0 0 0.252-0.949 0.23-1.042-0.043-3e-3 0.172-1.618 0.42-2.552-1.801 0.578-1.523 3.475-3.471 3.91 0.16-0.29-3.03 1.59-2.86 1.32z" fill="maroon"/>
	
	
	</g>
</svg>