<svg xmlns="http://www.w3.org/2000/svg" viewBox="-350 -900 1190.551 841.89" transform="
               translate(0 0)
               rotate(0)
               scale(1)">
                  <style>
                  @keyframes move {
                  from {
                  offset-distance: 15%;
                  }
                  to {
                  offset-distance: 33%;
                  
                  }
                  }
                  #dandelion {
                  offset: path('M10,220 A120,120 -45 0,1 110 10 A120,120 -45 0,1 10,510') auto;
                  animation: move 220s linear infinite;
                  animation-delay: 0s;
                  }
                  </style>
	<g id="dandelion" transform="
	translate(0 0)
	rotate(-20)
	scale(1)">
		
			<path stroke="black" stroke-width="1" d="m839.33 392.79v-0.23c0.021-0.095 0.117-0.116 0.115-0.232-0.803 0.394-1.986 0.408-2.896 0.695-0.254 0.249-0.807 0.756-1.158 0.231 0.883-0.354 1.699-0.772 2.549-1.158h-0.348v-0.116h-0.115c-0.199-0.024-0.301 0.198-0.348 0-0.271 0.039-0.479 0.14-0.695 0.231-0.939-0.052-1.295 0.481-2.084 0.579h-0.117c-0.887 0.394-1.371 0.405-2.201 0.116-0.221 0.05-3.623-0.548-3.938-0.463-1.07-0.181-4.348 1.527-4.518 1.506-0.023 0.326-0.58 0.348-0.58 0.348-0.305 0.239-3.117 2.238-3.244 2.085-0.238 0.147-2.025 0.907-2.316 0.811-0.434-8e-3 -2.549 1.274-2.549 1.274-0.527 0.979-9.916 3.222-9.963 4.402-1.137 1.141-3.064 1.491-4.055 2.78-0.1 0.447-0.027 2.489 0.58 2.317 0 0 3.24 3.387 3.822 3.822s4.975 1.015 7.182 0.463c2.209-0.551 4.35-3.026 5.789-3.326 0.863-0.18 12.18-7.052 13.441-7.91 1.264-0.859 2.562-1.841 2.781-1.854 6e-3 -0.817 5.395-5.493 7.066-6.603-1.05-0.04-2.19 0.24-2.19 0.24z" fill="maroon"/>
			<path stroke="black" fill="white" stroke-width="0.1" d="m947.21 355.89c-0.035 0.073-0.07 0.145-0.105 0.218 0.027-0.018 0.053-0.039 0.084-0.055 0.02-0.06 0.03-0.12 0.03-0.17zm5.15-29.74c-0.021-0.152-0.045-0.305-0.076-0.453v0.348c0.04 0.03 0.07 0.06 0.08 0.1zm-1.88 43.96c0.633-0.184 0.893-0.628 1.379-1.075 0.168-0.129 0.334-0.259 0.502-0.388 0.859-0.571 1.967-1.012 2.32-1.775 2.492-1.896 4.645-3.512 5.139-3.987 1.123-0.262 1.721-1.285 2.549-2.085 0.469-0.453 1.199-0.747 1.623-1.274 0.299-0.372 0.342-0.938 0.693-1.274 0.311-0.295 0.84-0.322 1.16-0.579 0.457-0.368 0.551-0.974 0.926-1.39 0.27-0.3 0.777-0.423 1.043-0.696 0.406-0.416 0.486-1.322 1.273-1.158-0.121 2.122-0.061 4.897-1.158 6.256 0.039 0.386 0.336 0.514 0.232 1.043-0.418 1.133-1.594 1.195-2.549 1.621-1.725 0.771-7.812 4.313-8.109 4.402-0.623 0.343-1.107 0.822-1.854 1.043h-0.115c-0.887 0.272-5.842 3.426-6.256 3.476-0.658 0.664-2 1.229-2.896 1.274 0.94-0.87 2.44-2.11 4.12-3.43zm-33.76 58.62l2e-3 -7e-3v0.01zm2.69-5.18c2e-3 -7e-3 4e-3 -0.014 6e-3 -0.02-0.01 0.01-0.01 0.01-0.01 0.02zm11.91-31.59c8e-3 0.202-0.027 0.36-0.117 0.463 0.01 0.202-0.025 0.361-0.115 0.464-0.176 0.48-0.354 0.959-0.58 1.39v0.116h-0.115c-0.264 0.777-0.482 1.604-0.811 2.317v0.115c-0.301 0.935-0.643 1.829-1.273 2.433 0.086 1.354-0.482 3.112-1.365 3.662l-0.721 2.246c0.156 0.93-0.447 1.099-0.811 1.507 0.771 1.582-1.41 1.837-0.695 3.011-0.418 0.614-0.73 1.275-1.025 1.939 0-1e-3 2e-3 -2e-3 2e-3 -4e-3 0 2e-3 -2e-3 3e-3 -2e-3 5e-3v-1e-3l-0.018 0.03c-4e-3 9e-3 -6e-3 0.021-0.01 0.03-0.547 1.233-1.047 2.475-2.074 3.445-1.01-0.355-2.059-1.732-0.465-2.201 0.803-2.943 2.234-5.256 3.477-7.762l1.014-2.379c-0.277-0.413 0.303-1.118 0.492-1.56 0.559-1.305 0.98-2.288 1.158-3.359 0.506-0.189 0.822-0.566 1.158-0.927 0.219-1.898 1.111-3.367 2.084-4.981v-0.116c0.127-0.453 0.389-0.771 0.812-0.927 0.13 0.17 0.23 0.94-0.01 1.06zm1.16-2.66v0.115h-0.117c-0.018 0.137 0.021 0.329-0.115 0.348-6e-3 0.07-0.018 0.138-0.115 0.116-0.105 0.242-0.342 0.354-0.695 0.348 0.191-1.199 0.615-2.166 1.506-2.665 0.21 0.91-0.42 1.01-0.45 1.72zm0.35-4.98c0.359-0.237-1.307 2.014-1.275 2.2-0.43 0.459-1.596 2.261-1.389 2.781-0.627 0.493-1.508 2.548-1.508 2.548-0.982 0.521-2.121 4.339-2.664 4.518-0.141 0.208-0.02 0.675-0.23 0.812-0.223 0.628-1.738 5.908-1.738 5.908-0.391 0.496-0.596 1.181-1.043 1.622-0.109 1.725-3.592 9.035-3.592 9.035l-1.064-1.253c0.139-2.453-0.988-7.806-1.367-8.13v-1.16c0.051-0.103-0.451-0.708-0.58-1.158 0 0 0.613-2.089 1.043-2.549 0.303-0.045 2.053-1.307 2.201-1.505 8e-3 -0.071 0.58-1.507 0.58-1.507 0.736-1.85 2.898-2.275 3.475-4.285 0.229-0.159 0.662-0.111 0.928-0.232 1.133-1.376 2.244-2.774 3.59-3.938 0.117-0.231 0.58-0.58 0.58-0.58 0.146-6e-3 1.369-1.256 1.736-1.39 0.289 0.018 0.928-0.694 0.928-0.694 0.029-0.704 0.549-0.919 0.926-1.275 0.014-0.296 0.389-0.229 0.695-0.231-0.08 0.18-0.19 0.3-0.25 0.47zm8.34 6.83c2.102 2.263 2.602 6.125 4.402 8.688-0.135 1.108 0.543 1.313 0.232 2.316 1.264 1.94 2.629 3.779 3.938 5.676 0.34 3.06 2.701 4.097 3.012 7.183 0.752 0.633 0.404 1.171 0.812 1.97 0.668 1.311 2.365 1.455 2.779 2.78 0.135 0.43 0.01 0.978 0.117 1.391 0.291 1.136 1.037 2.35 1.156 3.591v0.231c0.184 0.319 0.201 0.804 0.348 1.158 0.215 0.249 0.078 0.85 0.117 1.274 0.135 0.02 0.125 0.183 0.115 0.348 0.07 7e-3 0.137 0.017 0.117 0.116 0.205 0.372 0.107 1.05 0.23 1.506 0.023 0.362-0.078 0.85 0.115 1.042 0.117 0.573 0.283 1.098 0.387 1.686 2e-3 0.025 6e-3 0.052 0.01 0.077 0.029 0.179 0.055 0.36 0.068 0.555v0.347c0.123 0.793 1.066 2.612 0 3.128-0.447-2.642-1.805-4.375-2.201-7.066-0.73-0.815-1.523-1.566-1.623-3.012-0.771-0.504-1.711-0.838-1.736-2.085-1.078-4e-3 -1.541-0.623-1.623-1.622-0.443-0.024-4.25-5.548-6.02-7.654l-0.078-0.169c-0.023-0.377-0.066-0.745-0.158-1.097-0.254-0.989-1.039-1.77-1.273-2.896-0.309-1.473-0.576-2.305-0.928-3.475-0.25-0.837-0.26-1.708-0.463-2.549-0.441-1.833-1.334-3.498-1.041-5.329 1.473 1.419 1.465 4.319 2.188 6.49 0.059 0.265 0.152 0.508 0.283 0.704 0.203 0.437 0.449 0.83 0.771 1.147-0.154 1.836 1.051 3.135 1.621 4.518 0.072 0.171 0.252 0.653 0.285 0.744 0.418 1.149 0.822 2.333 1.916 2.962 0.312-1.598-1.533-2.623-1.043-4.401-0.422-0.273-0.85-0.706-1.158-1.274-0.33-0.61-0.959-1.852-1.273-2.78-0.264-0.781-0.658-1.588-0.695-2.085-0.047-0.64 0.471-1.19 0.348-1.854-0.568-0.812-0.854-1.884-0.695-3.128-1.4-3.208-3.24-6.905-3.707-10.311 0.4 0.19 0.46 0.65 0.32 1.14zm14.48-59.08v0.116c0.27 0.927 0.688 1.706 0.58 3.012v0.115c0.191 0.125 0.191 1.034 0 1.158v0.349c0.055 5.197 0.201 11.606 0 16.334v0.578c-1.371 1.718-2.479 3.698-3.707 5.556-0.041 0.04-0.086 0.078-0.115 0.121-0.131 0.188-0.248 0.383-0.359 0.579v1e-3l-2e-3 1e-3 2e-3 -1e-3c-1.045 1.5-2.203 2.887-3.695 3.938-0.309 2.075-2.34 2.69-3.361 4.055-0.355 0.477-0.191 1.261-1.041 1.273-0.051-2.829 1.688-3.85 1.621-4.054 0.561-0.856 0.107-2.003 2.086-2.665 0.674-2.259 2.184-3.685 3.127-5.677 0.225-1.011 0.641-1.83 1.391-2.316 0.152-1.275 0.654-2.203 0.926-3.359v-0.116c-0.01-0.782 0.375-1.17 0.58-1.737 0.268-0.257-0.039-0.451 0-0.811 0.09-0.026 0.135-0.098 0.115-0.232 0.016-0.216 0.076-0.387 0.232-0.463 0.453-0.029 1.059-1.606 1.043-2.665v-0.115c-0.184-1.245-0.33-3.338-0.232-5.444 0.076-1.646 0.357-3.512 0.232-4.75-0.061-0.592-1.307-4.267-0.117-4.402 1.08-0.14 0.28 1.56 0.7 1.6zm-0.58-3.97v-3e-3zm-1.39-0.43c0.236-3.211 1.912 0.99 1.041 1.97-0.945-0.02-0.756-1.174-1.041-1.854v-0.12zm-0.23 7.53c0.652 1.973 0.271 5.599 0.348 7.762v0.115c0.098 2.26-0.457 3.867-0.926 5.561v0.231c-8e-3 0.766-0.303 1.243-0.463 1.854 8e-3 0.164 0.018 0.328-0.117 0.347-0.449 1.172-0.861 2.382-1.621 3.244 0.049 0.977-0.566 1.288-0.58 2.201-1.568 1.753-2.254 4.388-4.055 5.907 0.361-2.036 1.928-3.862 2.781-5.792v-0.115c1.221-2.681 2.334-5.466 3.359-8.341v-0.232c0.051-0.683 0.301-1.166 0.463-1.737 0.031-0.394-0.09-0.938 0.115-1.158 0.17-1.876-0.027-4.139 0.117-6.024 0.09-1.34-0.47-3.17 0.57-3.83zm-6.94 22.95c0.057-0.741 0.295-1.406 0.6-2.048 0.035-0.074 0.064-0.131 0.105-0.218 0.568-1.136 1.312-2.218 1.602-3.544 0.799-0.667 1.223-1.712 1.738-2.664 0.877 0.765-0.361 1.163-0.697 1.738-0.449 0.772-0.207 1.911-0.926 2.2-0.621 1.682-1.039 3.567-2.283 4.629l-0.148 0.353c-0.359 1.533-1.309 2.477-1.971 3.707 0.037 0.576-0.158 0.923-0.811 0.812-0.061-1.473 1.488-2.282 1.738-3.823 0.471-0.036 0.414-0.599 0.83-0.688l0.22-0.46zm6.24-26.54v0.348c-0.033 0.97 2e-3 2.011-0.926 2.086-0.057-0.997-0.186-3.034 0.58-3.592 0.57-0.07 0.28 0.72 0.35 1.15zm-1.27-1.62c-0.246-0.719-0.553-1.378-0.58-2.317 0.115-0.311 0.73-0.12 0.928-0.347 0.9 0.45 0.29 2.33-0.35 2.67zm-0.35-9.39c0.338 0.203 0.441 0.641 0.463 1.158v0.116h0.115v0.115c0.133 1.259 0.598 2.185 0.58 3.592v0.115c0.031 0.148 0.055 0.302 0.076 0.454v-1e-3c0.021 0.146 0.037 0.295 0.051 0.444v1e-3c-0.037 0.255-0.166 0.492-0.359 0.492-0.414-0.55-1.51-0.42-1.854-1.043-0.164-0.154-0.164-0.655 0-0.811 0.385-0.812 0.504-1.892 0.695-2.896v-0.695c0-0.41-0.07-0.91 0.23-1.04zm-14.25 5.45c0.068-0.702-0.271-5.26 0.168-5.594 0.801 0.088 0.953 4.858 1.221 5.479l0.348 1.737c0.188 1.68 0.898 3.545 1.232 5.412-0.049-0.351 0.115 0.555 0.041 0.229 0.053 0.321 0.096 0.642 0.117 0.962 0.02 0.291-0.15 0.641-0.115 0.927 0.236 1.925 1.561 4.475-0.232 6.023 0.564 1.172-0.26 2.643-0.463 4.287-0.053 0.428 6e-3 0.771-0.027 1.469 0.012-0.06 0.025-0.119 0.037-0.178-4e-3 0.032-4e-3 0.067-0.01 0.098-6e-3 0.027-0.018 0.054-0.027 0.08-0.117 0.318-0.461 0.606-0.553 0.963-0.217 0.85 0.059 1.871-0.115 2.665-0.127 0.581-0.643 0.86-0.348 1.737-0.066 0.282-0.1 0.597-0.463 0.579 0.145 0.441 0.447 1.271 0 1.622 0 0 0.34 2.434-0.117 2.78-0.428-0.287-1.273-3.707-1.273-3.707 0.018-0.755 0.502-1.044 0.348-1.97 0.291-0.427 0.57-0.685 0.348-0.811-0.48-2.193-0.184-4.599-0.232-7.066v-0.115c-0.305-1.302 0.174-2.553 0-3.708-0.176-1.176-0.064-10.188 0.117-12.163v-1.74zm-1.74 38.23c-0.301-0.088-0.475-0.65-0.232-0.928 0.46-0.07 0.14 0.64 0.23 0.93zm-2.08-3.59c-1.014-0.484-0.797-1.743-1.041-2.78-0.391-1.646-1.236-3.282-1.275-5.098-0.098-0.134-0.152-0.31-0.115-0.578-0.287-0.185-0.049-0.811 0-1.043 0.877 0.011 1.205 0.57 1.273 1.39 0.33 0.266 0.334 0.991 0.232 1.391 0.78 1.66 1.29 4.69 0.94 6.72zm-1.97 7.41h0.348c0.166 0.154 0.166 0.656 0 0.811-0.44 0.05-0.6-0.53-0.35-0.81zm-2.43-3.01c0.959 0.316 0.842 1.708 1.623 2.2-0.26 0.67-2.16-1.09-1.62-2.2zm-0.93-21.78c0.145 0.436 0.377 1.087 0.377 1.087s0.072 0.204 0.102 0.321 0.094 0.453 0.102 0.794c-0.154 0.433 0.344 0.8 0 1.042-0.904 0.085-1.439 2.039-1.758 1.476-0.393-0.696-0.963-2.572-1.207-3.379-0.09-0.296-0.906-1.818-1.045-2.173-0.299-0.751-0.916-2.157-0.967-2.815-0.027-0.383 0.416-1.338 0.645-1.528 0.291 0.363 1.646-0.454 2.01-0.161 1.006-0.079 0.814 2.556 1.045 3.251-6e-3 -0.038 0.062 0.279 0.137 0.439-8e-3 -0.017-0.018-0.032-0.025-0.05 0.14 0.61 0.31 1.38 0.57 1.7zm1.86 19.58c-0.023-0.133-0.01-0.305-8e-3 -0.465h0.348c-0.039 0.244 0.088 0.364 0.1 0.49l0.086 0.272c0.564 0.813 1.311 3.112 1.205 3.524-0.422 0.03-1.373-2.479-1.584-3.437l-0.15-0.37zm-1.16-12.51c0.887 0.064 0.27 1.017 0.926 1.39 0.027 2.252 0.74 3.817 0.928 5.908-1.69-1.66-1.19-5.07-1.86-7.3zm0.11-1.4c-0.303-0.354-0.426-0.887-0.695-1.274 0.014-0.295 0.213-0.405 0.348-0.579 0.73-0.01 0.75 1.46 0.35 1.85zm-1.19 5.78c-0.203-0.133-0.803-3.401-0.777-3.687 0.215-0.509 1.293-0.445 1.389 0.116 0.02 0.361 0.301 3.61 0.07 3.683l0.572 0.673v0.811c-0.135-0.019-0.207 0.025-0.232 0.116-0.58-0.026-0.648-0.694-0.428-0.996l-0.59-0.71zm5.83 17.05h-0.58c-0.156-0.81-0.836-1.095-0.811-2.086 1.125-0.265 1.209 0.968 1.621 1.737-0.11 0.08-0.18 0.21-0.23 0.35zm-0.12-10.66c0.814 0.507 0.969 2.263 0.695 3.475 0.418 0.564 0.816 1.712 0.465 2.664-0.33-1.96-1.6-4.15-1.16-6.13zm1.39 7.41c0.328 0.118 0.631 0.674 0.348 1.042-0.33-0.11-0.63-0.67-0.35-1.04zm1.27 36.61c0.016 2.064-0.5 3.951-0.578 5.792-0.039 0.935 0.516 1.925-0.348 2.664-1.279-0.188-0.322-2.612-1.158-3.243 0.254-4.704 0.641-10.963 1.158-15.291 0.15-1.253-0.232-2.176 0.695-2.549h0.23c0.1 1.297 0.682 2.752 0.58 4.171-0.033 0.458-0.27 0.798-0.348 1.274-0.34 2.18-0.23 5-0.22 7.19zm1.16 11.12c0.621 1.31 0.928 3.552 0.926 5.097-0.506 0.018-0.65-0.771-0.811-1.157-0.99-2.412-0.85-5.911-0.58-9.152 0.762 0.512 0.4 1.674 0.465 2.548 0.07 0.92 0.55 1.89 0 2.66zm0.23-47.84c-0.375-0.807-0.328-2.211-0.115-3.012 0.47 0.57 0.2 2.24 0.11 3.01zm-0.36-6.09c-0.258-0.568 0.256-1.24 0.363-1.792 0.195-0.991-0.451-2.242 0.232-3.012 1.049 0.898 0.459 4.23-0.232 5.213l-8e-3 0.367c0.123 0.401-0.025 1.156-0.107 1.371-0.43-0.17-0.24-2.15-0.24-2.15zm3.91-15.86c-0.746 1.434-1.33 8.503-1.578 9.089-0.711-0.694-0.301-2.903 0.115-3.591 0.326-3.612 0.934-6.943 1.621-10.193 1.24 0.944-0.205 2.548-0.082 4.343l-0.08 0.35zm5.01-1.69c0.373-0.775 0.564-2.271 0.48-2.772 1.5-3.923 1.834-8.414 3.014-12.743-0.021-0.099 0.045-0.109 0.115-0.115v-0.58c-0.012-0.496-0.264-0.879 0.115-1.158 0.898-0.042 0.668 0.845 0.811 1.506 0.406 1.869 1.186 3.274 0.117 5.329-0.152 0.293-0.529 0.495-0.695 0.812-0.291 0.555-0.375 1.377-0.58 2.084-0.197 0.685-0.566 1.226-0.811 1.854-0.672 1.735-0.842 3.719-1.854 4.981 0.133 0.479 0.172 0.95-0.232 1.158-0.342 0.222-0.369 0-0.486-0.177l-0.01-0.17zm3.37-17.25c-0.699 1.693-0.912 3.876-1.506 5.676v0.116c-0.33 3.038-1.531 5.791-1.621 8.688-0.41 0.454-1.252 1.946-0.982 2.771l0.045 0.322c-0.678 0.913-0.689 6.377-2.422 8.49-0.254 1.402 0.02 2.912-1.043 3.707-1.072-1.234 0.816-3.186 0.465-4.865v-0.116c-0.043-0.736 0.473-0.915 0.693-1.39-0.033-0.771 0.811-4.056 0.811-4.056 0.062-1.482 0.623-2.466 1.043-3.591-0.389-1.894 0.543-3.37 0.811-4.981-0.035-0.269 0.02-0.444 0.117-0.578 0.145-0.55 0.086-1.305 0.348-1.738 0.229-0.08-0.029-0.646 0.23-0.695v-0.811c0.297-1.557 0.656-3.051 1.158-4.401-0.037-0.27 0.02-0.445 0.117-0.58-0.031-0.61 0.787-3.548 0.422-4.122-0.658 0.036-1.098 2.983-1.117 3.659h-0.115v0.116c-0.281 1.379-0.609 2.712-1.043 3.938v0.115c-0.199 1.269-0.246 2.689-0.928 3.476 0.336 1.009-2.424 10.719-3.012 13.322-0.23 1.023 0.02 2.05-0.695 2.779 0.098 1.161 0.037 3.006-0.695 3.708 0.025 1.918-0.385 3.5-0.463 5.329-0.053 1.23-0.627 2.835-0.926 4.17-0.293 1.305 0.137 2.82-0.811 3.707-0.1-2.013 0.02-4.012 0.346-5.561v-0.115c0.059-0.792 0.223-1.478 0.348-2.201v-0.232c0.135-1.701 0.467-5.366 0.811-5.213-0.074-1.01 1.654-7.73 1.557-9.73l0.061-0.45c0.5-1.243 0.43-3.058 1.049-4.184-0.854-1.288-0.033-3.463-0.58-5.213 0.674-0.911 0.355-2.812 0.695-4.055 0.189-0.584 0.133-1.411 0.348-1.97-0.203-1.555 1.129-1.929 0.811-3.243l0.463-1.738c-0.223-0.282-0.111-0.969 0-1.274 0.621-0.926 0.98-3.289 0.812-4.286l0.23-1.39c-0.074-0.462 0.307-0.466 0.232-0.928-0.064-0.166-0.182-0.282-0.348-0.347-0.438-0.051-0.527 0.244-0.695 0.463 0.432 0.634 0.029 1.186-0.463 1.507l0.23 0.811c0.068 0.568-0.098 2.643-0.527 2.716-0.104-0.204-0.479-1.98-0.514-2.253l0.135-1.468c-0.49-0.466-0.152-1.663-0.252-2.471-0.072-0.588-0.547-1.062-0.693-1.506-0.213-0.637 0.145-1.458-0.58-1.39-0.291-0.019-0.363 0.178-0.463 0.348 0.432 0.782 0.297 1.743 0.693 3.012 0.27 0.861 0.756 1.332 0.58 1.854l0.348 1.506c-0.549 0.603 0.172 1.777-0.232 2.549-0.348 0.263 0.096 0.963 0.096 0.963 0.477 0.229 0.609 0.725 0.021 1.701l0.115 1.506c-0.158 1.316-0.934 2.999-1.043 4.75v0.115c-0.301 0.818 0.256 2.495-0.578 2.781-0.74-0.226-0.375-1.557-0.465-2.434v-0.116c-0.672-1.296-0.461-3.477-1.043-4.865l0.117-1.737c-0.533-0.201-0.41-1.058-0.58-1.622l-0.23-1.042c-0.127-0.571-0.283-1.459-0.117-1.97l-0.232-0.927c-0.416-1.294-0.896-2.971-0.811-4.402-0.955-1.302-1.238-2.559-1.621-4.402-0.271-0.74-1.666-0.519-1.736 0.232 0.299 0.908 1.049 1.946 0.693 3.127 0.707 0.938 0.023 2.273 0.232 3.36 0.848 0.223 0.969 2.4 0.348 3.012l0.23 0.579c0.498 0.597 0.062 1.584-0.578 1.737l0.115 0.58c0.646 0.112 0.516 1.534 0.463 1.969l0.117 1.622c0.41 1.901-4e-3 4.137-0.117 6.256l0.35 1.854c-0.482 1.274 0.08 9.745-0.232 12.627v0.347c0.16 2.263-0.309 4.678 0.115 6.488 0.268 0.51 0.18 0.759 0.117 1.273-0.068 0.899 0.139 2.071-0.117 2.78-1.238-0.526-0.398-2.532-0.578-3.823-0.486-3.491-0.205-8.684-0.348-12.163-0.912 0.209-0.166 2.075-0.58 2.78v1.506c-0.152 1.259 0.246 3.545-0.23 4.981 0.539 1.189 0.393 3.58 0.23 5.097 0.688 1.064 0.881 3.071 0.348 4.402-0.854-2.004-0.586-5.129-1.391-7.182 0.082-0.472 0.289-0.995 0.117-1.391 0.043-0.382 0.27-0.579 0.463-0.812-0.498-1.496-0.047-3.856-0.117-5.328v-0.927c-0.268-0.427-0.039-1.35-0.115-1.969v-0.116c-0.307-2.515-0.025-5.456 0.115-7.878-0.277-0.688-0.49-1.518 0.117-1.969l-0.117-0.579c-0.127-1.924-0.873-4.792 0.117-6.141l-0.117-1.505c-0.406-0.326-0.168-1.299-0.23-1.97 0 0-0.229-0.875-8e-3 -1.499 0.223-0.623 0.045-3.288-0.92-3.366-1.004 0.295 0.074 1.98-0.578 2.548-0.24-0.068 0.23 2.433 0.23 2.433 0.312 0.435 0.195 1.806-0.115 2.317l0.115 1.274c0.232 0.549 0.385 1.512 0.451 2.504v-2e-3c0.01 0.432 0.037 0.861 0.061 1.271-8e-3 -0.128-0.016-0.256-0.023-0.388 8e-3 0.401 0 0.787-0.023 1.132-0.047 0.688-0.252 1.216-0.58 1.506v0.464c0.119 0.186 0.262 0.346 0.402 0.509 4e-3 0.015 6e-3 0.032 0.01 0.048 0.014 0.067 0.025 0.138 0.037 0.208-0.361 4.307 0.686 10.616-0.102 15.801-0.859-0.267-0.855-1.084-1.969-0.579-0.213-0.934-0.617-2.075-0.463-3.012-0.666-0.823-0.545-2.111-1.043-3.592-0.393-1.167-1.256-1.63-0.811-3.012-0.465-0.484-0.385-1.044-0.58-2.085-0.191-1.021-1.4-4.267-1.043-4.634l0.232-0.579c-0.568-0.821-1.328-1.452-1.506-2.664-0.176-0.201-0.326-0.842-0.039-1.406 0.602-0.48-0.193-1.954-0.193-1.954-0.311-0.424-0.746-0.721-0.695-1.506l-0.432-1.771c-0.217-0.033-0.426-0.13-0.611-0.313 0.361-1.421-0.574-1.982-0.811-3.128 0.143-0.913 0.672-0.437-0.578-1.158-0.488 0.052-0.311 1.79 0 2.549 0.326 0.805 1.531 1.257 0.578 2.2l0.463 1.738c0.748-0.097 0.832 0.979 0.58 1.506-0.771 0.11-1.492-0.665-1.318-1.209l-0.535-2.035c-0.537-0.543-0.453-1.708-1.158-2.085-0.705 0.32-0.35 1.267-0.232 1.97-0.244 0.083 0.275 0.874-0.113 1.231l0.35 1.281c-0.072 0.529 0.756 2.021 1.479 2.263l0.834 0.785c0.812 0.318 0.83 1.751 0.926 2.432 0 0.514 0.721 0.76 0.35 1.275l0.277 0.597c0.246 0.146 0.383 0.372 0.301 0.678-0.064 0.157-0.172 0.269-0.305 0.343l-0.152 1.13c0.438 0.159 0.668 0.37 0.586 0.645-0.312 0.079-0.963 0.118-1.779 0.12l-0.898 1.933c0.146 1.592 0.67 2.806 1.621 3.592-0.213 0.692 0.145 0.661 0.117 1.39l0.195 1.556c0.436 0.379 0.682 0.757 0.629 1.104l-0.014 1.278c0.727 0.737 2.15 1.92 1.043 3.128 0.871 1.272-0.283 2.496 0.695 3.938l0.23 1.97c-0.025 0.438 0.707 1.132 1.197 1.913-0.484 0.06 0.74 5.095 0.482 4.928-0.244 0.45-2.072-4.568-2.838-4.64-0.059-0.064-2.764-0.298-2.633-1.453 0.133-1.156-1.057-1.621-1.85-2.655-0.65-0.85-0.67-0.424-1.314-3.44-0.646-3.016-1.752-2.285-2.598-3.383-2.553-3.322-4.998-7.688-4.857-6.209 0.143 1.479 2.508 6.02 3.074 6.146 0.566 0.128 2.236 2.301 2.236 2.301 0.965 0.241 0.758 1.789 1.174 3.263 0.414 1.474 1.496 1.923 2.264 2.887 1.562 1.962 2.986 3.69 3.115 3.702 0.48 0.523 1.154 0.182 1.332 1.009 0.596-0.058 1.402 1.113 1.367 1.688-0.396 0.371-0.779 1.22-0.035 1.589 0.219 0.624 1.018 2.152 0.926 1.854 1.885 0.414 3.449 4.621 3.359 5.677-0.164 0.027 0.936 1.569 0.695 1.853-0.703-7e-3 -1.482-0.092-1.736 0.349 0.393 0.7 1.736 1.025 1.389 2.085-1.678-0.215-2.193-1.591-4.055-1.622-8e-3 8e-3 -0.014 0.019-0.023 0.027-0.182-1.04-5.992-6.59-6.676-7.188-0.471-0.046-0.807 0.042-0.811 0.463 0.893 1.85 3.797 4.273 3.939 4.402 0.42 0.468 3.291 3.299 3.223 3.569 1.186 0.862 2.93 1.164 4.172 1.97-1.322 0.726-2.457-0.573-3.824-0.695-1.158-0.104-2.277-0.084-3.475-0.116-0.318-0.589-1.643-0.891-1.738 0.116 0.83 0.823 3.869-0.472 4.635 1.158-3.645 0.192-7.426 0.059-10.658 0.463h-0.232c-1.746 0.146-9.248-0.123-9.73 0.116h-1.736c-0.355-0.084-1.971 0.116-1.971 0.116s-4.818 0.039-4.98 0.231c-0.328-0.096-1.854 0.231-1.854 0.231-1.203-0.093-3.244 0-3.244 0-0.705-0.416-4.389 0.708-6.023 0.695 0 0.039-6.43 1.044-8.572 1.274-2.145 0.23-4.75 0.812-4.75 0.812-0.957-0.031-2.664 0.578-2.664 0.578l-4.75 1.159c-0.465 0.308-1.205 0.339-1.854 0.463l-10.426 2.317c-0.27-0.037-5.676 1.737-5.676 1.737-0.715 0.097-4.078 1.173-4.088 1.181-1.078 0.255-3.154 0.806-4.021 1.367h-0.117c-1.012-8e-3 -1.656 0.352-2.432 0.58 0.047 0.197 0.148-0.024 0.348 0h0.115v0.116h0.348c-0.85 0.386-1.666 0.804-2.549 1.157 0.352 0.525 0.904 0.019 1.158-0.23 0.91-0.288 2.094-0.302 2.896-0.696 0 0.117-0.094 0.139-0.115 0.232v0.231c1.205 0.502 2.322-0.438 3.689-0.718 1.367-0.282 6.145-1.997 6.967-2.178 0.395 7e-3 6.996-1.655 7.879-2.086 0 0 4.75-1.079 5.213-1.158 0.654-0.04 1.916-0.516 2.084-0.579l5.33-1.158s5.857-0.535 6.371-1.043c0.174-0.02 8.025-0.888 8.109-1.158 0.564-0.053 11.355-0.929 11.584-1.158 0 0 3.672-0.328 4.402-0.464 0.098 0.021 2.664-0.231 2.664-0.231s7.016-0.283 8.92-0.348h1.854l2.201-0.115c1.498 0.08 3.756 0.389 4.982 0 0 0 2.217 0.021 2.314 0h3.361c-1.027 0.755-5.213 0.927-5.213 0.927-1.234-0.23-4.211 1.234-4.287 1.39-0.197-5e-3 -3.398 0.661-4.043 0.496-0.035-0.013-0.078-0.024-0.127-0.033-0.426 0.038-1.025-0.099-1.275 0.116-0.197 0.149-0.455 0.239-0.463 0.579 0.154 0.231 0.959 0.338 1.275 0.348 0.205-0.063 3.521-0.263 3.707-0.464 0 0 3.207-0.575 3.359-0.694 0.242-0.067 0.33-0.288 0.695-0.232 0.705 0.296 1.199-0.04 1.621-0.347 0.404-0.393 2.008-0.116 2.201-0.348 0.584-0.343 1.428-0.426 2.201-0.579 0.52-0.176 0.826-0.562 1.621-0.464h0.115c0.475-0.028 0.68-0.325 1.043-0.463h0.115c0.543 0.074 1.389-0.151 1.738 0.115-0.197 0.498-1.113 0.275-1.389 0.695-0.523 0.212-0.998 0.471-1.623 0.579-0.834-0.023-1.123 0.498-1.621 0.811-0.299 0.242-4.982 1.737-4.982 1.737-0.629-0.087-5.412 0.173-6.072 0.342-1.295-0.428-8.477-0.451-9.219-0.572 0.014 0.448 0.342 0.585 0.58 0.811 0.398 0.051 8.291 0.448 8.58 0.45 0.48 0.248 1.053 0.01 2.613 0.071 2.031-0.393 3.326 0.119 5.023-0.289 0.441-0.062 3.465-1.518 3.707-1.739 0.301-0.365 2.484-0.682 3.129-1.157 0 0 0.773-0.5 1.389-0.464 0.689-0.085 1.305-0.855 1.971-0.579 0.02 0.406-0.393 0.381-0.463 0.695-0.574 0.238-1.094 0.529-1.508 0.927-0.451 0.5-1.412 0.949-1.504 1.505-0.539 0.313-2.584 2.633-2.781 2.781h-0.115c-0.459 0.649-3.262 3.766-3.361 4.054-0.898-0.05-0.684 1.015-1.389 1.159-0.791 0.059-0.676 1.023-1.391 1.158-0.289-0.096-0.947 0.964-1.043 1.274-0.16 0.341-1.113 2.322-1.854 2.549-0.271 0.422-0.703 0.687-1.043 1.043-0.961 0.39-1.113 1.589-1.969 2.085 0.295 0.903 0.381 2.014 0.465 3.128 0 0 0.092 0.796 0.23 1.157 0.09 0.026 0.602 2.335 0.811 2.666 0.135 0.019 0.127 0.183 0.117 0.347v1.158c0.068 0.277 0.166 0.529 0.115 0.927-0.121 0.343 0.131 2.996 1.043 3.591l0.695 1.159c-0.236 0.276-0.697 0.783-0.348 1.274 8e-3 0.201-0.025 0.36-0.117 0.463-0.162 0.339-0.604 0.4-0.463 1.043v0.115c-0.252 0.502-1.084 1.148-1.043 2.086 0 0-2.328 4.544-2.664 5.213-0.303 0.631-1.143 1.153-0.695 1.97v0.115c0.131 0.024 0.182 0.129 0.232 0.231 0.998-0.336 1.412-1.599 2.387-1.967l0.277-1.161 0.463-1.39c0.016-0.564 0.354-0.806 0.463-1.274 0.117-0.153 0.111-0.431 0.348-0.463 0.648-0.963 1.521-1.826 1.391-3.244 0.09-0.025 0.135-0.097 0.117-0.231 0.398-0.141 0.068-1.012 0.346-1.274 0.07-0.482 0.488-0.797 0.928-0.579 0.436 0.259 0.889 0.501 1.043 1.042-0.357 0.919-1.844 3.679-1.971 4.287-0.029 0.355-0.25 0.521-0.346 0.811-0.08 0.269-0.387 0.311-0.465 0.579l-0.68 0.93c0.107 0.098 0.246 0.738 0 0.811l-0.812 1.043c0.273 1.238-2.457 6.345-3.59 6.834-0.391-0.178-0.168 0.747 0 1.507 1.406 0.476 1.895-0.648 1.969-1.854 0.135-0.02 2.904-5.822 3.477-6.024 0.125-0.297 0.951-2.061 0.926-3.243 0 0 0.551-0.647 0.58-1.159-0.02-0.637 1.91-3.239 1.506-4.749 0.49-0.435 2.656 0.123 3.242 0.231 0.662-0.288 4.422-1.51 4.402-2.085-0.84 0.251-6.102 0.78-6.486 0.231 0.371-2.021 1.82-2.968 1.969-5.213 1.078-0.543 0.957-2.288 1.854-3.013l0.58-1.273c0.418-1.089 0.92-1.243 0.23-1.97 1.404-2.192 2.16-5.035 3.129-7.662 0.078-0.171 0.15-0.339 0.225-0.509 0.125-0.289 0.908-2.151 1.164-2.603 0.098-0.303 1.002-2.436 1.16-3.359 0.014-0.41 0.346-1.042 0.346-1.042 0.039-0.271 0.119-0.5 0.35-0.58 0.428 0.074 0.346 1.274 0.346 1.274s-1.838 8.356-1.969 9.268c-0.129 0.892-0.127 2.628 0 2.896 0.01 1.439 0.316 4.071-0.695 4.865 0.053 1.162-1.91 8.1-1.391 9.963-0.389 0.632-0.885 1.465-0.811 1.97-0.336 1.13-0.84 5.205-0.926 5.328-0.023 0.362 0.078 0.851-0.117 1.043-0.033 0.583-0.578 0.656-0.463 1.39 0.135 0.172-0.432 1.035-0.348 1.622v0.579c-0.068 1.678-0.609 2.846-0.926 4.519v0.115c0.26 0.049-1.139 7.574-0.912 7.654 1.713-0.669 1.529-10.094 2.418-11.709 0.018-0.137 0.115-0.927 0.115-0.927 0.633-3.467 1.863-6.413 1.854-9.963 0.645-0.354 0.438-1.014 0.58-1.854 0.119-0.708 0.637-1.408 0.693-1.969 0.078-0.771-0.506-1.971 0.58-2.201 0.773 0.917-0.186 2.185 0.58 3.012-0.061 0.442-1.596 3.986-0.928 5.098-0.123 0.494-0.654 0.581-0.695 1.158 0.885 1.627-1.857 8.203-2.129 8.24-0.021 0.139-0.02 0.292 2e-3 0.429 0-1e-3 1.059-0.126 1.156-0.313 0.301-0.575 0.252-1.588 0.58-2.316 0.203-0.454 0.586-0.654 0.695-1.042 0.262-0.942 0.535-7.057 1.678-7.303 0.291 0.103-0.254 2.722-0.482 2.956 0.215 1 0.314 1.463 0.482 2.775 0.078 0.812-1.021 4.774-0.752 5.394 0.229 0.242 0.088 0.77 0 1.043h-0.115c-0.068 0.472-0.416 1.97-0.459 2.584s-0.199 0.777 0.422 1.357c0.623 0.58 0.717 0.188 2.238 1.04 0.438 0.448 0.584 1.192 1.158 1.506 0.033-0.815 0.412-1.286 0.811-1.738-1.324-0.646-1.699-2.18-1.506-3.822v-0.116c-0.205-0.104-0.148-0.471-0.58-0.348 0.072 1.139-0.428 2.044 0.232 3.128-0.213 0.739-1.283 0.407-1.506-0.116-0.25-0.987-0.109-2.009 0-2.78 0.199-1.414 0.738-7.243 0.811-7.877 0.074-0.638-0.328-1.299-0.305-2.128 2e-3 -0.021 4e-3 -0.042 6e-3 -0.062 0.012-0.156 0.111-0.606 0.111-0.606 0.932-2.085-1.074-4.993 0.465-6.603 0.773 0.867 0.332 2.509 0.578 3.707 0.797 0.902 1.4 1.997 1.506 3.591 0 0 0.182 1.29 0.348 1.97 0.32 1.322 1.301 2.697 1.506 4.17 0.082 0.586-0.141 1.227-0.115 1.854 0.035 0.924 0.193 1.876 0.23 2.78 0.127 2.963-1.086 8.473-1.086 8.473-0.068 0.239-0.363 1.645-0.58 2.084 0 0-0.182 0.861-0.23 1.275-0.037 0.272-0.184 0.435-0.117 0.811 0.193 0.194 0.682 0.092 1.043 0.115 0.295-0.284 0.414-0.744 0.348-1.389v-0.638c0.014-0.025 1.002-5.549 0.971-6.33 0.416-0.505 1.016-0.704 0.928-1.273 0.43-1.15-0.283-1.864 0-3.012v-0.348c-0.264-0.16-0.043-0.807-0.117-1.159 0.197-0.228 0.426-1.156 0.465-1.737 0.154-0.206-0.211-2.375-0.348-3.822-0.266-2.806 0.361-6.404-0.58-8.921 0.303-0.2-1.043-6.101-1.041-6.487 0.941-1.054-0.559-2.208-0.695-3.475-0.029-0.265 0.215-0.673 0.23-0.927 0.066-1.029-0.354-2.162-0.348-3.359 2e-3 -0.458 0.221-0.929 0.232-1.39 0.027-1.19-0.611-2.647 0.348-3.477-0.15 0.881 0.102 5.304 0.115 5.677 0.01 0.269 0.32 0.656 0.348 1.042 0.053 0.726-0.549 1.771 0.23 1.739 0.945-0.04-0.127-2.376 0.232-3.128-0.859-1.683 0.084-4.022 0.232-5.793-0.158-0.421-0.721-0.438-0.811-0.927 0.408-2.468-1.189-5.484-0.115-7.877 0.527 1.465 1.24 3.282 1.041 5.097 0.918 0.549 0.629 1.987 1.043 3.359 0.287 0.954 0.318 1.704 0.348 2.317 0.688 1.685 1.098 3.94 1.506 5.561 0.617 2.454 0.863 5.122 1.506 7.529 0.168 0.63 0.75 1.289 0.463 2.201 1.412 2.721 1.092 7.173 2.666 9.731v1.043c0.18 0.437 0.514 0.721 0.693 1.158-0.26 2.085 1.104 5.984 1.215 6.057 0.436 2.262 1.393 6.264 1.406 6.701 0.342 0.313 0.471 0.841 0.811 1.158-0.346-1.328-1.352-8.766-1.254-9.27-0.059-0.105-0.127-0.16-0.203-0.187 0.07-0.184-0.641-2.636-0.352-3.881-1.256-0.546-0.814-2.398-1.158-3.707-0.133-0.5-0.527-0.897-0.695-1.391-0.414-1.205-0.691-2.805-0.928-3.707-0.166-0.637-0.166-1.359-0.168-2.094l0.076 7e-3c1.43 2.565 4.127 7.087 4.146 7.416 0.516 0.488 1.465 0.543 1.506 1.506 0.723 0.049 1.211 0.334 1.391 0.927-0.34 9e-3 0.973 1.15 1.391 1.854 0.246 1.286 1.303 2.275 1.854 3.475 0.17 0.374 0.162 0.893 0.346 1.274 0.471 0.974 1.299 1.612 1.508 2.55 0.232 1.045-0.023 2.079 0.695 3.011 0.463-0.229 0.99-0.398 1.389-0.694 0.484-2.39-0.543-4.406-0.695-6.835v-0.463c-0.273-0.073 0.018-0.714-0.23-0.811-0.328-0.407 0.09-1.558-0.232-1.97-0.176-0.7-0.346-1.406-0.52-2.11-0.041-0.165-0.129-0.518-0.143-0.566-0.604-2.414-1.283-4.755-2.465-6.592-0.273-0.283-0.215 0.174-0.58 0.116-0.902-1.068-1.688-2.25-1.969-3.938 0.324-0.147 0.572-0.286 0.926-0.116-0.01 0.476-0.021 0.949 0.117 1.274 1.281 0.375 2.508 1.098 3.012 2.549 1.021 0.511 2.027 1.177 2.914 1.927 0.418 0.403 0.84 0.814 1.256 1.227 0.375 0.488 0.668 1.212 1.307 1.307 1.686 1.709 3.098 3.258 3.514 4.012 1.621 0.465 1.67 2.501 3.129 3.128 0.121 0.458 0.279 0.878 0.578 1.158 0.908-0.287 1.775 0.719 1.971-0.231-0.236-0.358-0.709 0.035-1.158-0.231-0.291-0.599-0.723-1.054-0.812-1.854-0.838-0.665-2.27-2.023-3.629-3.36-0.088-0.277-0.242-0.491-0.438-0.665v-1e-3c-0.193-0.173-0.426-0.309-0.67-0.432-0.258-0.259-0.506-0.508-0.736-0.741 0.01-6e-3 0.02-8e-3 0.029-0.014-0.012-0.076-0.518-0.545-0.594-0.559-0.533-0.544-0.914-0.938-1.027-1.063-0.117 0-0.139-0.094-0.232-0.116-0.803-0.741-1.238-1.851-2.201-2.432-0.287 0.017-0.48-0.061-0.58-0.232-0.332-0.279-0.688-0.536-1.043-0.794-0.025-0.048-0.184-0.165-0.238-0.174-0.883-0.646-1.732-1.325-2.193-2.392-1.473-0.078-1.67-1.433-2.266-2.389-2e-3 -0.021-8e-3 -0.037-8e-3 -0.06-0.016-0.011-0.033-0.019-0.053-0.028-0.178-0.268-0.393-0.499-0.686-0.651-0.238-0.65-0.252-1.523-0.695-1.969-0.359-0.013-0.33 0.364-0.811 0.23-0.27-0.271-5.24-10.363-5.109-11.035 0.596-0.062 1.119 0.508 1.469 0.2 0.592 0.412 6.006 9.666 6.42 10.257-0.375 0.979 0.697 1.343 0.695 2.316 0.402 0.179 3.477 3.128 3.477 3.128 0.037 0.811 1.273 1.661 1.273 1.854 1.387 0.931 2.219 2.415 3.592 3.359 0.092 0.216 0.193 0.425 0.23 0.695 0.387 0.246 1.006 0.26 0.961 0.938 0 0 0.576 0.383 1.418 0.918 0.119 0.094 0.668 0.435 0.801 0.504 2e-3 1e-3 2e-3 2e-3 4e-3 3e-3l-2e-3 -1e-3c2e-3 0 4e-3 1e-3 4e-3 2e-3l-2e-3 -1e-3c2.021 1.258 4.812 2.889 5.645 2.858-0.062-0.863-4.807-2.175-4.658-3.252-0.645-0.483-1.938-1.528-2.895-2.278 0 0-1.098-0.825-1.16-0.85-0.109-1.472-1.834-1.33-2.084-2.664 0.188-0.777-2.213-2.893-2.549-2.78 0 0-2.207-3.356-2.781-3.128-0.471-0.369-0.242-1.412-0.346-1.854-0.164-0.338-0.881-0.122-0.928-0.579-0.258-1.401-1.367-1.954-1.854-3.128 4e-3 -0.11-0.824-1.62-0.895-1.699 4e-3 -0.019 0.012-0.032 0.012-0.054-0.146-1.823-2.512-2.43-2.432-4.865-0.33-0.365-0.799-0.592-1.391-0.695-0.695-1.97-2.25-3.078-3.127-4.865-0.352-0.287-0.428-0.234-0.58-0.811-1.059-2.148-2.848-3.563-3.242-6.371 0.709-0.094-1.852-1.468-1.508-2.202 0.377 0.28 0.805 0.51 1.158 0.812 0.434 9e-3 11.252 8.47 11.287 8.742 0.564 0.102 1.623 6.927 1.992 7.06 0.172 0.061 1.131 1.517 1.158 1.706 0.221 0.047 2.895 3.82 2.896 3.938 0.428 0.421 0.684 1.016 1.273 1.274 8e-3 -0.016 0.418 0.714 0.908 1.566l-0.025 0.08c-0.744 0.786-1.104 1.529-0.561 2.054 0.014-0.013 0.494-0.415 1.189-0.992l0.062 1e-3c0.27 0.453 0.521 0.861 0.703 1.127-0.201 0.19 2.344 2.221 2.357 2.304 0.828 0.041 2.648 1.985 3.773 2.124 1.031 1.598 3.715 4.053 5.15 4.751 2e-3 0.223 0.131 0.431 0.459 0.539 0.273 0.077 3.932 3.897 4.416 4.275 1.482 2.157 5.58 7.287 5.922 7.29 0.428-0.128-2.191-3.813-4.234-6.207 0.09-0.636-3.377-3.729-3.566-3.715-0.68-1.105-2.555-2.982-2.801-2.674-0.875-1.234-3.875-4.332-4.486-4.299-0.414-0.279-0.33-1.061-1.043-1.043 0 0-2.967-2.053-3.244-2.2-0.016 0.021-0.031 0.042-0.047 0.062-0.252-0.564-1.568-1.633-1.984-1.541 0.012-0.209-0.283-0.744-0.678-1.365 0 0 1.48-1.289 2.182-1.87 0 0 0.379 0.059 0.527 0.08 0.277 0.291 0.576 0.854 0.928 0.927 0.637 0.521 1.861 1.707 2.201 1.737 0.318 0.221 0.709 0.372 0.926 0.695 0.346 0.233 0.572 0.587 0.928 0.811 0.934 0.805 3.348 3.31 3.822 3.244 0.354-0.084 0.342 0.2 0.695 0.116 0.275 1.308 4.32 4.06 4.518 4.055 0.984 0.868 2.461 1.246 2.896 2.664 0.574 0.236 1.256 0.364 1.389 1.042-0.01 0.724 1.725 1.453 3.129 1.622 0.018-0.137-0.02-0.329 0.115-0.348-0.041-0.845-0.926-0.85-1.854-0.812-0.799-0.627-0.891-1.965-1.854-2.432-0.172-0.137-0.326-0.291-0.463-0.464-1.068-1.21-4.389-3.449-4.518-3.823h-0.115c-0.865-0.86-2.137-1.316-2.834-2.346-0.047-0.085-1.062-0.398-1.568-0.55-0.26-0.538-0.965-1.587-1.391-1.506-0.689-0.276-1.854-1.854-1.854-1.854-0.27-0.038-0.498-0.119-0.578-0.348-0.367-0.406-1.275-1.159-1.275-1.159-0.879-0.67-2.066-1.233-3.172-1.87 0 0 1.68-1.374 1.695-1.389 1.357 1.02 2.49 1.751 3.156 1.979 0.721 0.737 3.293 2.448 3.82 2.503 0.223 0.258 0.549 0.497 0.898 0.709-0.01 0.014-0.02 0.024-0.027 0.037 0.193 0.111 0.43 0.23 0.678 0.325 0 0 2e-3 0 2e-3 1e-3v-1e-3l6e-3 3e-3c-2e-3 -1e-3 -4e-3 -1e-3 -6e-3 -2e-3 0.391 0.201 0.744 0.366 0.943 0.484 0.199 0.419 0.443 0.793 0.811 1.043 0.143 0.166 0.398 0.22 0.695 0.231 0.609 0.223 0.957 1.253 1.969 0.695-0.371-1.135-1.396-1.614-2.432-2.085-0.076-0.424-2.266-2.263-3.354-2.219-0.23-0.461-2.295-1.64-2.838-1.564-0.152-0.132-0.76-0.619-1.201-0.758-0.541-0.425-1.359-1.098-2.342-1.922 0.643-0.371 1.305-0.722 1.508-1.53 0.326-0.139 1.719 0.252 1.623 0.579 1.221 0.748 2.965 0.974 3.59 2.317 0.367 0.057 0.41-0.21 0.812-0.116 3.418 2.181 6.889 4.311 10.773 6.024 0.311 0.421 1.158 1.157 1.158 1.157 0.014-0.255 2.879 2.184 3.707 1.738-0.064-0.671-0.822-0.646-0.811-1.391-0.373-0.025-0.49 0.205-0.928 0.116-4.188-3.148-8.609-6.064-13.553-8.456h-0.117c-0.342-0.469-0.689-0.933-1.391-1.043h-0.115c-0.738 5e-3 -1.162-0.306-1.273-0.927 0.223-0.162 0.221-0.551 0.578-0.58 2.412 0.716 5.865 0.391 7.529 1.854 1.367 0.013 2.004 0.287 3.361 0.116 0.713 0.877 9.047 1.743 10.492 2.016-0.027-0.707-7.602-1.972-8.061-2.246h-0.115c-1.92-0.523-4.619-0.409-6.488-1.043-0.873-0.297-1.596-1.093-2.779-0.927-0.518-0.14-1.016-0.297-1.738-0.232-0.168-0.179-0.592-0.102-0.926-0.115-0.021-0.172-0.281-0.106-0.465-0.116 0 0-0.795-0.208-0.811-0.579 0.217-0.016 0.389-0.076 0.465-0.231 0 0 2.23-0.356 2.664-0.348h1.043c0.549-0.085 2.152-0.011 2.619-0.188 0.104-0.018 0.504-0.065 0.623-0.043 0.344 0.158 1.02-0.41 2.434-0.116h1.969c1.262-0.063 3.629 0.658 3.592 0.927 0.586 0.03 2.316 0.579 2.316 0.579 0.832 0.747 2.428 0.493 3.822 0.694 1.223 0.178 2.699 0.924 3.244 0-0.279-1.056-1.066-0.111-1.738-0.115-0.898-5e-3 -2.096-0.749-3.244-0.927-1.6-0.247-3.199-0.172-4.285-0.927 0.516-0.514 3.129-0.115 3.129-0.115 1.016 0.071 1.34 0.89 2.547 0.463 0.818 0.031 1.523 0.176 2.201 0.348 0.273-3e-3 0.342 0.199 0.695 0.116 0.172-0.169 0.172-0.759 0-0.927-1.119 0.02-2.531-0.414-3.707-0.695-0.486 0.278-1.314 0.039-1.854 0 0 0-2.432-1.074-3.707-0.695h-0.115c-2.098-0.186-3.473-0.549-5.445-0.694-0.863-0.024-1.469-0.307-2.316-0.349 0 0-1.715-0.757-2.201-1.158h-1.738c-1.832-1.527-5.01-1.709-7.182-2.896-0.398-0.051-0.879-0.555-1.156-0.485-0.215-0.189-3.84-2.986-3.826-2.989 1.562 0.76 3.764 0.881 5.693 1.271l-0.012-3e-3c6e-3 1e-3 0.01 2e-3 0.016 4e-3 -2e-3 0-2e-3 -1e-3 -4e-3 -1e-3 0.15 0.04 0.303 0.082 0.447 0.118 0.117 0.029 0.238 0.053 0.363 0.072 0.189 0.051 0.383 0.1 0.564 0.159 0.516 0.063 1.043 0.114 1.506 0.232 1.018-0.016 1.773 0.234 2.664 0.348 0 0 4.111 1.103 6.256 1.042 0.484 0.775 1.775 0.851 1.158 0.116 0.68-0.646 3.625 0.448 5.086 0.413 0.768 0.362 2.164-0.349 3.139-0.065 0.385-0.426 1.119-0.504 1.391-1.043-0.771-0.656-1.688 0.24-2.434 0.348-0.445-0.231-1.707-0.424-2.279-0.091-0.471-0.193-3.205-0.811-3.512-0.951 0 0-1.957 0.145-2.781-0.232 0 0-1.648 0.016-1.996 0.041-4e-3 -1e-3 -8e-3 -1e-3 -0.014-1e-3 -0.363-0.026-0.723-0.054-1.078-0.081-0.227-0.018-0.451-0.032-0.674-0.048-0.057-3e-3 -2.229-0.341-2.727-0.374-0.447 0.062-0.477-0.296-0.811-0.348-2.549 0.754-4.582-1.347-6.719-1.391-1.332-0.027-2.736 0.57-3.707-0.579-0.246 0.065-2.773-0.547-4.176-0.771-3.064-1.764-6.621-3.035-9.797-4.688-0.43 0.082-0.496-0.198-0.926-0.116-2.07-1.715-5.426-2.142-7.531-3.822 1.885 0.648 10.074 2.06 11.193 2.1 0.148 0.432 2.818 1.044 3.127 0.812 0.707-0.04 7.697 3.077 7.994 3.358-2e-3 0.273 2.711 0.858 3.707 0.927 0.201 0.264 3.215 0.518 3.477-0.116 0.891-0.111 3.684 1.606 3.59 0.696 1.002 0.013 7.549 1.232 7.877 1.621 1.133-0.22 4.725-0.985 5.098-0.811 0.84-0.628 4.008-1.228 4.287-1.274 0.758-0.207 1.934-1.511 1.852-2.085 0.316-0.303 0.291-2.869-1.041-2.316 0.473 2.442-2.316 3.706-2.316 3.706-0.271 0-4 0.429-4.287 0.579-0.412 0.026-1.701 0.538-2.781 0.348h-0.463c-0.73 0.342-5.621-0.409-7.182-0.579-0.031-0.394-0.775-0.351-0.928 0-1.332-0.019-4.068-0.864-4.633-0.579-1.195-0.812-3.637-0.866-5.213-0.927-0.496-0.277-5.34-2.979-7.934-3.842-0.107-0.101-0.732-0.314-0.947-0.304-0.586-0.18-1.084-0.312-1.43-0.372-0.062-0.526-3.465-0.229-3.938-0.695-0.096 0.022-6.219-0.958-7.486-1.405 0.447-0.017 0.535-0.392 1.043-0.348l8.688-0.695c7.807-0.27 15.67-0.632 23.123-1.708 0.027-3e-3 0.055-7e-3 0.082-0.011 4.67-0.678 9.178-1.635 13.402-3.03h0.115c1.484-0.485 3.008-0.932 4.518-1.391h0.117c1.512-0.341 2.367-1.34 4.17-1.391 0.176-0.325 0.549-0.454 0.463-1.042-1.252 0.272-2.99 1.013-4.287 1.622-0.137 0.133-0.408 0.131-0.693 0.116-1.275 0.578-2.721 0.986-4.287 1.273h-0.115c-3.945 0.881-7.35 2.306-11.584 2.896h-0.117c-1.102-0.09-2.35 0.742-3.359 0.812-0.486 0.032-1.02-0.27-1.506-0.232-0.859 0.065-1.688 0.576-2.779 0.579-3.365 0.01-7.312 0.354-11.123 0.448h2e-3 -2e-3c-0.146-0.021-0.299-0.027-0.457-0.021h-4e-3c-0.156 5e-3 -0.316 0.02-0.477 0.041h-2e-3c-2e-3 0-4e-3 1e-3 -4e-3 1e-3s2e-3 -1e-3 4e-3 -1e-3c-0.699 9e-3 -1.393 0.011-2.072-4e-3 -2.768-0.062-8.688 0.463-8.688 0.463-1.121 0.114-2.207 0.264-3.359 0.348h-0.115c-0.719 0.041-1.982 0.388-2.666 0.126 0.936 0.188 3.363-0.554 4.127-1.27 2.184-0.521 2.318-0.504 3.633-1.043 0.359-0.012 0.752-0.098 1.232-0.23 0.027-0.062 9.832-1.857 10.412-1.54 0.432-0.492 2.545-0.825 4.068-1.186v0.061c0.76 0.016 2.67-0.886 4.402-0.348 0.988-1.019 3.486-0.05 4.518-1.158 0.568 0.085 3.201-4e-3 3.592-0.348 0.133 0.164 0.424 0.276 0.812 0.345 0 0 1.039 0.229 1.197 0.083 1.826-0.013 4.322-0.503 5.287-1.242 0 2e-3 0 3e-3 2e-3 4e-3 0.781 0.163 0.773-0.463 1.158-0.695 0.436 0.195 1.066-0.286 1.041-0.927-1.008-0.746-1.482 0.756-2.432 0.811-0.01 0.065-5.428 1.283-5.793 1.159-0.156-0.054-0.824-0.186-0.889-0.201-2e-3 0-0.566-0.031-0.635-0.024h-2e-3c-0.998-0.075-2.172-0.088-2.76-7e-3 -0.625 0.087-1.195 0.559-1.854 0.695-2.441 0.506-5.484-0.013-7.438 1.044-1.959-0.021-4.805 0.842-5.635 1.422-0.41 0.072-8.402 0.905-9.061 1.519 0.461-0.801 1.252-0.581 2.322-0.856 0.588-0.151 1.102-0.74 1.738-0.927 0.414-0.122 0.932-0.021 1.391-0.116 0.943-0.194 4.766-0.801 5.445-1.39 0.414 0.01 2.488-0.522 3.59-0.695 1.162-0.183 4.734-1.671 5.439-1.968 0.34-0.114 0.697-0.237 1.068-0.369 4e-3 -2e-3 2.377-0.537 3.455-0.906 0.52-0.331 1.49-0.209 2.201-0.348 1.037-0.559 2.443-0.874 3.592-0.695 0.613-0.081 0.512-0.879 1.158-0.927 0.18-0.168 0.539-0.154 0.695-0.348h0.578c0.781-0.531 2.471-0.156 3.129-0.811-0.5-0.727-2.445-0.537-3.129-0.116-0.137 0.134-0.408 0.131-0.695 0.116l-0.348 0.116c-1.061 0.626-1.424 1.35-3.938 1.621-1.469 0.211-5.201 1.072-6.023 1.274-0.135 0.098-0.312 0.153-0.58 0.116-0.686 0.124-1.334 0.287-1.854 0.579-0.414 0.166-0.746 0.411-1.273 0.464-2.477 1.057-7.332 2.206-7.646 2.432-1.109-0.164-2.09 0.604-2.896 0.811-0.602 0.155-1.209-0.027-1.854 0.116-1.309 0.293-2.828 1.344-3.938 1.218 0.74-0.435 2.104-1.089 2.893-1.576 1.492-0.068 5.113-2.156 6.605-1.843 0.055-0.236 1.811-0.858 2.662-1.325 3.506-0.244 11.131-2.354 11.131-2.354 0.605-0.61 1.971-0.093 2.541-0.838-2.348-0.215-5.488 0.76-7.762 1.391h-0.115c-1.254 0.034-5.23 0.835-5.945 1.34-1.256 0.173-3.842 1.476-4.596 1.557-0.564 0.059-3.574 0.71-4.598 1.505-1.4 0.155-2.227 1.536-3.744 1.737-0.475 0.848-4.984 2.612-6.91 3.231 2e-3 -1e-3 2e-3 -2e-3 4e-3 -2e-3 1.902-0.607 2.885-2.137 4.865-2.665 1.715-1.834 4.451-2.646 6.639-4.008 0.025-0.011 0.174-0.072 0.223-0.094 0 0 3.521-2.145 5.65-2.849 0 0 3.371-1.954 4.633-2.549 0.461-0.217 1.064-0.215 1.506-0.463 0.951-0.535 1.283-1.573 1.971-2.317 0.418-1.478 0.443-3.122 0.49-4.792 0.012-0.108 0.014-0.22 0.012-0.332 0.041-1.317 0.115-2.644 0.424-3.912 1.24-0.498 1.516-1.96 3.012-2.2 0.246-0.721 0.812-1.118 0.811-2.086-1.256-0.202-1.543 1.537-2.896 1.622-0.154 0.809-0.207 1.723-1.273 1.621-0.041-1.248-0.459-2.845-0.23-4.634v-1.621c0.332-1.12-0.131-2.407-0.232-3.476 0 0-0.043 0.043-0.115-0.348-0.152-0.581-0.389-1.079-0.348-1.854-0.18-0.168-0.104-0.593-0.115-0.927-0.238-0.651 8e-3 -1.786-0.58-2.085-0.354 0.072-0.592 0.258-0.58 0.694l0.348 2.086v0.231c0.012 0.839 0.289 1.41 0.232 2.317 0.172 1.578 0.438 3.412 0.348 5.561v0.115c-0.174 1.769 1.076 4.142 0.303 5.482-0.055 0.084-0.113 0.162-0.172 0.242-0.248 0.288-0.623 0.512-1.174 0.647-1.502 1.627-2.562 3.693-4.633 4.749-0.779 1.462-2.33 2.15-3.244 3.476-0.363 0.023-6.227 4.81-7.414 5.677-2.949 2.15-5.73 4.515-8.457 6.371 1.338-2.022 5.521-5.414 5.561-5.444 0.262-0.262 0.523-0.522 0.785-0.783 0.154-0.15 0.309-0.302 0.459-0.459 2.561-2.559 5.133-5.103 8.023-7.331 0.342-0.428 0.654-1.016 1.025-1.592-2e-3 2e-3 -2e-3 3e-3 -4e-3 4e-3 0.182-0.237 0.355-0.479 0.518-0.722 0.1-0.123 0.203-0.242 0.314-0.354 0.682-0.688 1.619-0.995 0.926-2.316 0.279-0.225 0.715-2.105 1.043-2.434 0.027-0.089 0.115-0.348 0.115-0.348 1.215-2.493 2.043-5.371 2.666-8.456 0.02-0.174-0.041-0.428 0.115-0.463 0.344-0.917 0.332-1.482 0.463-2.55v-0.347c-0.021-0.639 0.182-1.056 0.463-1.391v-0.116c0.291-0.674 0.115-1.816 0.348-2.548v-0.116c0.053-0.617 0.449-1.896-0.463-1.854-0.682 1.018-0.201 3.196-0.811 4.286v0.116c-0.062 0.516-0.092 1.066-0.348 1.391 0.035 0.399 4e-3 0.735-0.068 1.029 0.014 0.188-0.564 1.865-0.613 2.3-0.148 1.321-0.316 1.912-1.172 4.084-0.182 0.665-0.432 1.575-0.688 1.919l-0.359 1.225c-0.967 2.646-2.217 4.688-3.238 7.283-2.258 1.604-3.752 3.972-6.141 5.444-1.328 1.452-6.426 6.431-7.646 7.53-1.104 0.994-1.727 2.699-3.242 3.128 0.625-2.294 2.947-3.359 4.285-5.098 0.643-0.833 1.1-1.663 1.854-2.433 0.684-0.698 1.52-1.429 2.086-2.201 0.236-0.321 1.561-1.848 2.084-2.433 0.396-0.44 0.561-1.146 0.928-1.738 0.303-0.486 0.82-0.868 1.043-1.273 0.361-0.659 1.936-2.827 2.201-3.359 0.271-0.544 1.461-3.073 1.854-3.823 0.295-0.567 0.484-1.668 0.482-1.667 0.074-0.185 0.174-0.363 0.328-0.534 0.158-0.149 0.115-0.503 0.115-0.811 0.635-2.262 1.338-4.456 1.854-6.835v-0.116c0.277-0.303 0.27-0.89 0.463-1.273 0.078-0.967 0.482-1.605 0.674-2.459-0.01 0.071-8e-3 0.055 0.021-0.091-2e-3 -3e-3 -4e-3 -7e-3 -4e-3 -0.011-2e-3 -3e-3 -2e-3 -6e-3 -4e-3 -9e-3 2e-3 3e-3 2e-3 6e-3 4e-3 9e-3 0.102-0.621 0.5-3.05 0.121-2.885-0.107-0.618 1.482-9.089 1.389-9.384-0.82-1.202 0.717-2.897-0.346-3.591-0.643 0.402-0.629 1.458-0.812 2.316v0.464c-0.061 0.558-1.367 6.179-1.439 6.604 0 0 0.512 5.038-0.414 8.107-0.131 0.822-0.086 1.458-0.463 1.854v0.115c-0.422 0.893-0.291 2.335-0.811 3.128-0.295 1.365-0.768 2.554-1.043 3.938-0.271 0.81-0.34 1.822-0.926 2.317-0.254-0.018-0.25-0.292-0.232-0.579v-0.464c0.213-4.974-0.023-9.367 0-14.48v-0.464c0.172-0.021 0.105-0.279 0.115-0.463-0.092-1.26-0.316-2.387-0.58-3.476-0.178-0.168-0.242-0.452-0.23-0.812-0.158-1.115-0.379-2.168-0.695-3.127v-0.115c-0.322-0.991-0.504-2.122-0.578-3.36 0.568-0.783 1.035-1.667 1.041-3.012 0.289-0.326 1.189-0.539 0.812-1.158-1.51 0.967-2.531 3.412-3.359 5.444-1.062-1.141-0.689-3.714-1.275-5.329-0.176-0.288-0.766-0.16-0.926-0.463 0.295-0.631 0.305-1.549 0.463-2.317v-0.116c0.473-0.635 0.23-2.017-0.348-2.316-0.139 1.291-0.775 2.083-0.811 3.475l-0.232 1.391c0.125 0.819-0.447 0.943-0.695 1.39 0.176 0.762 0.037 1.574-0.348 2.085-0.639-0.043-1.055-0.204-1.391 0.232 0.33 0.558 0.975 0.803 0.928 1.737 0.223 0.193 0.148 1.068 0 1.274l0.11 1.34zm-7.64 30.69c-0.135 1.263-0.689 3.089-1.158 4.402-0.174-1.07 0.473-3.304 0.926-4.518 0.13-0.01 0.21 0.03 0.23 0.12zm-1.85 13.09c-0.373-1.514 0.424-3.294 0.926-5.098 0.289-1.036 0.959-2.07 1.158-3.012 0.066-0.308-0.098-0.724 0-1.043 0.148-0.476 0.754-1.239 0.471-2.28 2e-3 -2e-3 2e-3 -5e-3 4e-3 -9e-3 6e-3 -0.014 0.01-0.027 0.016-0.042l2e-3 -4e-3c0.385-0.251 0.918-1.046 1.246-0.329 0.186-0.726-0.473-0.607-0.348-1.274-0.047-0.588 0.404-0.677 0.58-1.042-0.729-1.613 0.438-3.14 1.158-4.055-0.67-2.05 0.857-2.724 0.695-4.634 1.32-0.765 0.846-3.325 2.201-4.055-0.016-0.409-0.332-0.519-0.348-0.927 0.08-0.461 0.508-0.572 0.693-0.927 0.053-1.454 0.771-2.243 0.928-3.592 1.309-1.2 0.801-4.22 2.434-5.097 0.809 3.428 0.562 8.707-0.465 11.7-0.08 0.506 0.197 0.652 0.117 1.158-1.078 0.945-1.189 3.073-2.086 4.402-0.393 0.584-1.135 0.688-1.043 1.854-0.318 0.222-0.566 0.514-0.926 0.694-0.518 2.456-1.342 4.605-3.012 5.908 0.389 1.208-0.572 1.841-0.465 3.128-1.8 2.37-2.29 6.05-3.93 8.57zm43.96 29.64c2e-3 0 4e-3 1e-3 4e-3 1e-3s0 0 0 0zm-21.68 7.62l-0.064 0.044c-0.615-0.895-1.195-1.684-1.18-1.716-0.414-0.437-0.623-1.077-1.273-1.275-0.035 0.082-3.078-4.458-3.904-5.342 0.287-1.256-1.357-5.779-1.041-5.942 1.154 1.929 7.045 10.496 7.377 10.706-0.055 0.441 1.34 1.208 1.621 1.621-6e-3 0.184 0.066 0.357 0.197 0.514l6e-3 0.054c-0.61 0.43-1.23 0.89-1.76 1.35zm2.57-1.91l-0.113 0.053c-0.613-0.424-1.15-0.896-1.529-1.454 0 0-4.721-6.621-6.844-9.479 6e-3 1e-3 0.383-0.116 0.389-0.115 1.627 2.123 6.139 6.75 9.871 9.663 0.01 0.13-0.78 0.64-1.78 1.33zm2.54-1.94c-1.9-1.606-4.217-3.597-6.273-5.39 0.352 0.172 0.852 0.196 1.307 0.266 1.561 0.351 5.418 2.535 6.951 3.706-0.54 0.59-1.21 1.05-1.99 1.41zm11.6-5.36c0.742-0.122 0.846 0.392 1.623 0.232 0.547 0.187 1.234 0.231 1.389 0.811-0.271-2e-3 -0.34 0.2-0.695 0.116-0.146 0.158-4.055-0.116-4.055-0.116-0.781-0.088-1.109 0.281-1.736 0.348-1.867 0.294-3.41 0.915-5.445 1.043-0.648-0.703-3.045-1.309-3.475-1.391-1.764-0.762-4.42-1.606-5.213-2.78-0.678-0.791-1.764-1.171-2.781-1.621 0 0-3.463-2.175-3.592-3.129 0.232-0.146 0.549-0.033 0.836-0.037v1e-3c0.203 0.375 2.205 0.589 2.525 0.848l1.391 0.811c0.301 0.042 0.562 0.189 0.805 0.253 0.812 0.628 6.922 2.697 7.42 2.991 0.555 0.178 1.301 0.166 1.854 0.348 0.389 0.073 1.074-0.15 1.273 0.116 1.67-0.204 2.217 0.717 3.359 1.042 1.28-0.69 3.06-0.02 4.52 0.12zm-7.5-3.12zm-28.02-13.34c3.162 1.085 5.961 2.535 9.035 3.707 0.314 0.267 0.375 0.786 0.812 0.927 1.377-0.38 2.033 0.831 2.895 1.274 0.357 0.184 0.807 0.104 1.16 0.231 0.646 0.235 1.287 0.631 2.029 0.75 0.783 0.503 2.762 1.068 4.062 1.329 0.695 1.146 4.453 3.213 6.041 4.505 0.088 0.153 0.219 0.261 0.383 0.341 2e-3 1e-3 2e-3 2e-3 4e-3 2e-3l-2e-3 -1e-3c0.014 7e-3 0.031 0.012 0.047 0.019-0.014-6e-3 -0.031-0.011-0.045-0.018 0.145 0.146 0.893 0.252 0.873 0.503l1.506 0.115c1.172 0.451 2.635 0.611 3.244 1.623-2.176 0.433-3.443-1.031-5.793-0.812-0.32-0.295-0.773-0.461-1.158-0.694h-0.348c-1.193-0.078-5.086-1.645-7.197-2.172-0.797-0.482-4.047-2.054-4.881-2.087-0.939-1.088-3.979-2.892-4.371-2.923-0.398-0.182-5.523-4.475-5.678-3.707-0.352-1.298-2.211-1.092-2.619-2.332-0.436 0.088-0.553-0.142-0.926-0.116-0.096-0.562-0.785-0.528-0.695-1.274 0.95-0.13 1.19 0.44 1.64 0.8z"/>
		
	</g>
</svg>