<svg xmlns="http://www.w3.org/2000/svg" viewBox="500 -800 1190.551 841.89">
		<style>
		@keyframes move {
		0% {
		offset-distance: 20%;
		}
		30% {transform: scale3d(1.2, 1.2, 1.2);
		rotateX(-0.25turn);
		offset-rotate: auto 90deg;
		}
		100% {
		offset-distance: 48%;
		transform: none;
		}
		}
		#dandelion {
		offset: path('M325.8,317.9c-59.9,2.1-135.8-50.5-126.4-118.7S256.3,77.8,342.1,84.4s149.5,63.6,164.5,129.7 c17.4,76.9-40.9,149.3-71.6,171.4c-46.7,33.6-110.3,35.6-180.1,2.3c-62-36.5-106.6-76.2-111.8-136.5') auto;
		animation: move 280s infinite;
		animation-timing-function: cubic-bezier(0.1, -0.2, 0.2, 0);
		animation-delay: 0s;
		}
		</style>
		<g id="dandelion">
			<path stroke="black" fill="maroon" stroke-width="1" d="m433.66 468.4v-0.226c0.021-0.093 0.114-0.114 0.113-0.228-0.787 0.385-1.946 0.4-2.838 0.681-0.249 0.245-0.792 0.741-1.135 0.228 0.864-0.347 1.665-0.758 2.497-1.136h-0.34v-0.113h-0.114c-0.194-0.024-0.294 0.194-0.34 0-0.265 0.038-0.469 0.137-0.681 0.228-0.921-0.051-1.27 0.471-2.043 0.566h-0.114c-0.87 0.386-1.344 0.397-2.157 0.114-0.216 0.049-3.55-0.537-3.86-0.454-1.047-0.177-4.258 1.497-4.427 1.476-0.021 0.319-0.567 0.341-0.567 0.341-0.299 0.234-3.055 2.193-3.178 2.043-0.234 0.145-1.986 0.889-2.271 0.795-0.424-8e-3 -2.497 1.248-2.497 1.248-0.518 0.959-9.716 3.157-9.763 4.314-1.114 1.117-3.003 1.461-3.973 2.724-0.099 0.439-0.028 2.439 0.567 2.271 0 0 3.176 3.319 3.746 3.746 0.57 0.426 4.874 0.994 7.038 0.454s4.261-2.966 5.672-3.26c0.845-0.176 11.934-6.909 13.171-7.751 1.238-0.843 2.51-1.805 2.725-1.816 5e-3 -0.801 5.287-5.383 6.924-6.47-1.04-0.05-2.16 0.23-2.16 0.23z"/>
			<path stroke="black" fill="maroon" stroke-width="1" d="m444.11 500.75h-0.114l-0.114-0.114c-0.572 1.094-1.418 1.911-1.816 3.179-2.062 0.436-2.726 2.27-4.768 2.725 1.118-1.985 2.369-3.837 3.746-5.562 0.021-0.097-0.044-0.106-0.113-0.113 0.021 0.096-0.044 0.107-0.114 0.113-0.101 0.05-0.683 0.826-0.908 1.022-0.141 0.351-2.006 2.458-2.61 2.838-0.271 0.183-6.481 4.264-6.925 4.768 0.016 0.961-2.269 3.33-2.497 3.632l-1.021 2.838c-0.331 0.123-1.021 1.59-1.249 1.93-0.014 0.203-0.668 2.019-1.021 2.838 0 0-1.021 3.027-1.249 3.178-0.367 0.505-1.569 3.426-1.476 3.747 0.019 0.211-1.138 5.066-1.135 5.448-0.178 0.504-1.266 4.031-1.249 4.313 0.337 0.292 2.067 2.143 2.383 1.93 3.804-0.32 5-3.248 7.379-4.995 0.782 0.14 0.984-1.173 1.021-1.589 0.395-2.461 3.133-1.877 4.087-3.746 0.689 2e-3 1.76-1.57 1.93-1.702 0.272-0.284 2.251-2.365 1.93-2.61-2e-3 -0.457 3.614-18.125 3.973-17.823 0 0 0.249-0.929 0.227-1.021-0.069-7e-3 0.795-3.179 0.795-3.179 0.1-0.18 0.86-1.59 0.91-2.06z"/>
			<path stroke="black" fill="white" stroke-width="0.1" d="m539.41 432.24c-0.035 0.071-0.07 0.142-0.104 0.213 0.027-0.017 0.052-0.038 0.083-0.053 0.01-0.06 0.01-0.11 0.02-0.16zm5.05-29.14c-0.021-0.149-0.044-0.299-0.074-0.443v0.341c0.03 0.03 0.05 0.06 0.07 0.1zm0.26 51.44c7.65-0.265 15.356-0.62 22.657-1.675 0.027-2e-3 0.055-6e-3 0.082-0.011 4.576-0.663 8.993-1.602 13.132-2.969h0.113c1.455-0.476 2.948-0.913 4.428-1.362h0.114c1.481-0.334 2.319-1.312 4.085-1.362 0.173-0.319 0.538-0.446 0.455-1.021-1.227 0.267-2.929 0.992-4.2 1.589-0.134 0.131-0.401 0.129-0.681 0.113-1.249 0.567-2.664 0.968-4.2 1.249h-0.113c-3.866 0.863-7.201 2.259-11.352 2.837h-0.113c-1.08-0.088-2.303 0.728-3.292 0.796-0.476 0.032-1-0.264-1.475-0.228-0.843 0.063-1.654 0.564-2.725 0.567-3.297 0.01-7.165 0.347-10.898 0.439h1e-3 -2e-3c-0.143-0.021-0.293-0.026-0.447-0.021h-3e-3c-0.153 5e-3 -0.31 0.02-0.468 0.04h-2e-3 1e-3c-1e-3 0-3e-3 1e-3 -4e-3 1e-3 1e-3 0 2e-3 -1e-3 3e-3 -1e-3 -0.684 0.01-1.363 0.011-2.029-4e-3 -2.712-0.061-8.514 0.454-8.514 0.454-1.097 0.112-2.163 0.259-3.292 0.341h-0.113c-0.703 0.04-1.942 0.38-2.612 0.124 0.917 0.184 3.296-0.544 4.043-1.245 2.141-0.51 2.272-0.493 3.56-1.021 0.352-0.012 0.738-0.096 1.208-0.227 0.027-0.06 9.635-1.819 10.202-1.508 0.424-0.482 2.494-0.81 3.987-1.162v0.06c0.744 0.015 2.615-0.868 4.314-0.341 0.968-0.998 3.415-0.049 4.427-1.135 0.557 0.083 3.137-4e-3 3.519-0.341 0.131 0.16 0.416 0.271 0.797 0.338 0 0 1.017 0.224 1.172 0.081 1.789-0.012 4.236-0.493 5.181-1.217 0 1e-3 1e-3 2e-3 1e-3 3e-3 0.766 0.161 0.758-0.453 1.136-0.681 0.427 0.191 1.045-0.281 1.021-0.908-0.988-0.731-1.453 0.741-2.383 0.794-0.01 0.064-5.319 1.258-5.676 1.136-0.153-0.053-0.809-0.182-0.872-0.196-1e-3 -1e-3 -0.555-0.031-0.622-0.024h-1e-3c-0.978-0.074-2.129-0.086-2.706-7e-3 -0.613 0.085-1.17 0.548-1.816 0.682-2.392 0.496-5.374-0.013-7.288 1.023-1.919-0.021-4.708 0.823-5.521 1.393-0.402 0.07-8.234 0.887-8.877 1.488 0.452-0.785 1.226-0.57 2.276-0.84 0.575-0.147 1.079-0.725 1.702-0.908 0.407-0.119 0.913-0.021 1.363-0.113 0.925-0.19 4.67-0.785 5.335-1.361 0.406 9e-3 2.438-0.512 3.519-0.682 1.138-0.179 4.639-1.638 5.33-1.929 0.333-0.111 0.683-0.232 1.047-0.362 4e-3 -1e-3 2.33-0.524 3.385-0.888 0.508-0.324 1.46-0.205 2.157-0.341 1.016-0.547 2.395-0.856 3.519-0.681 0.603-0.079 0.502-0.86 1.135-0.908 0.177-0.164 0.53-0.151 0.681-0.341h0.567c0.766-0.521 2.42-0.152 3.065-0.794-0.489-0.711-2.396-0.526-3.065-0.114-0.134 0.132-0.401 0.129-0.681 0.114l-0.341 0.113c-1.04 0.614-1.395 1.323-3.859 1.589-1.438 0.207-5.097 1.051-5.903 1.249-0.132 0.095-0.305 0.149-0.568 0.113-0.672 0.123-1.306 0.282-1.816 0.567-0.404 0.163-0.731 0.404-1.248 0.455-2.427 1.035-7.184 2.161-7.492 2.383-1.088-0.16-2.049 0.592-2.838 0.795-0.589 0.151-1.185-0.028-1.817 0.113-1.281 0.287-2.771 1.316-3.859 1.192 0.725-0.425 2.061-1.065 2.835-1.543 1.462-0.067 5.01-2.114 6.473-1.806 0.053-0.232 1.773-0.843 2.608-1.299 3.437-0.239 10.907-2.308 10.907-2.308 0.593-0.598 1.931-0.091 2.491-0.821-2.3-0.21-5.379 0.745-7.605 1.363h-0.114c-1.229 0.033-5.126 0.818-5.825 1.312-1.231 0.17-3.765 1.447-4.504 1.524-0.552 0.059-3.501 0.697-4.505 1.477-1.372 0.15-2.18 1.504-3.667 1.702-0.465 0.83-4.885 2.56-6.771 3.165 1e-3 -1e-3 2e-3 -2e-3 3e-3 -2e-3 1.864-0.595 2.826-2.093 4.768-2.61 1.681-1.798 4.362-2.594 6.505-3.928 0.025-0.01 0.17-0.071 0.217-0.092 0 0 3.451-2.102 5.537-2.791 0 0 3.302-1.915 4.541-2.498 0.451-0.212 1.042-0.21 1.475-0.454 0.932-0.523 1.257-1.541 1.93-2.271 0.411-1.446 0.435-3.059 0.482-4.695 0.01-0.106 0.013-0.215 0.01-0.325 0.041-1.29 0.112-2.591 0.416-3.833 1.215-0.488 1.484-1.921 2.952-2.157 0.24-0.705 0.796-1.095 0.794-2.043-1.23-0.198-1.512 1.506-2.838 1.589-0.153 0.793-0.204 1.688-1.248 1.59-0.042-1.224-0.451-2.789-0.228-4.541v-1.589c0.325-1.098-0.127-2.358-0.227-3.405 0 0-0.042 0.041-0.114-0.341-0.148-0.57-0.379-1.058-0.34-1.816-0.175-0.165-0.101-0.581-0.114-0.908-0.232-0.638 9e-3 -1.75-0.568-2.043-0.346 0.07-0.58 0.252-0.567 0.681l0.341 2.044v0.227c0.01 0.822 0.283 1.382 0.227 2.271 0.168 1.547 0.429 3.344 0.341 5.448v0.114c-0.169 1.731 1.054 4.057 0.296 5.372-0.053 0.082-0.111 0.158-0.167 0.237-0.244 0.281-0.612 0.5-1.151 0.634-1.471 1.594-2.51 3.619-4.54 4.654-0.762 1.432-2.283 2.106-3.179 3.405-0.355 0.022-6.101 4.713-7.265 5.562-2.89 2.106-5.615 4.424-8.287 6.242 1.31-1.981 5.411-5.305 5.449-5.335 0.257-0.256 0.513-0.512 0.769-0.768 0.152-0.146 0.303-0.295 0.45-0.449 2.509-2.506 5.031-5 7.862-7.183 0.334-0.421 0.642-0.996 1.005-1.56l-3e-3 3e-3c0.176-0.232 0.347-0.47 0.506-0.708 0.098-0.12 0.199-0.237 0.308-0.347 0.667-0.674 1.587-0.975 0.908-2.271 0.272-0.22 0.7-2.062 1.022-2.384 0.026-0.088 0.114-0.34 0.114-0.34 1.188-2.444 2.001-5.264 2.611-8.287 0.019-0.17-0.041-0.419 0.113-0.454 0.337-0.897 0.325-1.452 0.455-2.497v-0.341c-0.021-0.626 0.176-1.033 0.453-1.361v-0.114c0.286-0.66 0.112-1.78 0.341-2.497v-0.113c0.051-0.604 0.438-1.858-0.454-1.816-0.668 0.997-0.199 3.132-0.795 4.2v0.113c-0.062 0.505-0.09 1.046-0.34 1.362 0.033 0.392 3e-3 0.722-0.068 1.009 0.014 0.185-0.552 1.828-0.6 2.253-0.145 1.296-0.311 1.875-1.148 4.003-0.179 0.65-0.423 1.544-0.674 1.88l-0.352 1.2c-0.947 2.593-2.173 4.595-3.174 7.137-2.212 1.571-3.676 3.892-6.017 5.335-1.301 1.423-6.296 6.301-7.492 7.378-1.081 0.975-1.691 2.646-3.178 3.065 0.613-2.247 2.888-3.291 4.2-4.995 0.63-0.816 1.077-1.629 1.816-2.384 0.671-0.684 1.488-1.4 2.043-2.156 0.232-0.315 1.529-1.812 2.043-2.384 0.388-0.433 0.548-1.124 0.908-1.703 0.297-0.477 0.804-0.851 1.021-1.249 0.355-0.646 1.896-2.77 2.157-3.291 0.266-0.534 1.433-3.012 1.816-3.746 0.289-0.557 0.475-1.635 0.474-1.634 0.072-0.181 0.17-0.356 0.32-0.523 0.156-0.146 0.113-0.493 0.114-0.794 0.622-2.217 1.31-4.366 1.816-6.698v-0.113c0.271-0.297 0.263-0.872 0.453-1.248 0.077-0.946 0.473-1.573 0.661-2.409-0.011 0.07-7e-3 0.053 0.021-0.089-2e-3 -4e-3 -4e-3 -7e-3 -5e-3 -0.011-2e-3 -3e-3 -2e-3 -6e-3 -4e-3 -9e-3 2e-3 3e-3 2e-3 6e-3 4e-3 9e-3 0.1-0.609 0.491-2.988 0.118-2.827-0.104-0.606 1.452-8.906 1.362-9.194-0.805-1.179 0.701-2.839-0.34-3.519-0.628 0.394-0.615 1.428-0.795 2.27v0.454c-0.059 0.547-1.339 6.055-1.412 6.472 0 0 0.502 4.937-0.405 7.945-0.127 0.805-0.085 1.428-0.454 1.816v0.113c-0.413 0.874-0.285 2.288-0.794 3.064-0.289 1.339-0.752 2.502-1.021 3.859-0.266 0.794-0.333 1.786-0.908 2.271-0.249-0.017-0.244-0.286-0.227-0.567v-0.454c0.208-4.874-0.022-9.179 0-14.189v-0.454c0.168-0.021 0.104-0.274 0.113-0.454-0.09-1.234-0.31-2.339-0.568-3.405-0.175-0.165-0.238-0.442-0.226-0.795-0.156-1.093-0.373-2.125-0.682-3.064v-0.113c-0.315-0.972-0.493-2.079-0.567-3.292 0.557-0.768 1.015-1.634 1.021-2.951 0.283-0.32 1.165-0.528 0.794-1.136-1.478 0.947-2.48 3.345-3.292 5.335-1.04-1.117-0.674-3.64-1.249-5.222-0.172-0.282-0.751-0.157-0.908-0.454 0.29-0.617 0.299-1.517 0.454-2.27v-0.114c0.462-0.623 0.227-1.977-0.34-2.27-0.136 1.265-0.76 2.04-0.794 3.405-1.613 0.614-4.029 0.462-5.676 0.681-0.074-0.452 0.3-0.456 0.227-0.908-0.063-0.163-0.176-0.276-0.34-0.34-0.428-0.05-0.518 0.239-0.682 0.454 0.423 0.62 0.028 1.161-0.454 1.476-1.375 0.073-0.782-1.589-0.908-2.611-0.072-0.575-0.537-1.04-0.681-1.476-0.207-0.624 0.142-1.43-0.568-1.362-0.284-0.019-0.355 0.175-0.454 0.341 0.423 0.766 0.292 1.708 0.681 2.951 0.265 0.844 0.74 1.305 0.567 1.816-0.378 1.119-2.21 0.848-3.746 1.135-0.409-1.268-0.878-2.911-0.794-4.313-0.936-1.276-1.214-2.508-1.589-4.313-0.266-0.725-1.633-0.509-1.703 0.228 0.294 0.89 1.029 1.907 0.681 3.064 0.692 0.92 0.023 2.228 0.227 3.292 0.831 0.219 0.95 2.354 0.34 2.951-0.782-0.102-1.179 0.184-1.702 0.341-1.077 0.056-0.077-1.967-1.022-2.043-0.985 0.289 0.072 1.94-0.567 2.497-0.236-0.067-0.747 0.141-0.794-0.113-0.453 0.979-1.516 0.598-2.952 1.021-0.732 0.216-1.094 0.929-2.384 0.681-0.579 0.407-1.663 1.059-2.383 0.341 0.353-1.392-0.564-1.943-0.794-3.064 0.139-0.896 1.468-0.75 2.042-0.341 0.646-0.074 0.759-0.679 1.135-1.021-1.426-0.567-2.521 0.934-3.746 0.227-0.478 0.052-0.544 0.516-0.794 0.795-2.224 7e-3 -3.179 1.285-5.562 1.135-0.466 0.29-0.411 1.103-1.135 1.136 8e-3 7e-3 0.02 0.012 0.029 0.019-0.768 0.158-1.912 0.225-2.229 0.337 0 0.154-3.083 1.721-4.44 1.474-0.258 0.082-0.613-0.155-1.443 0.099-0.089-0.443 1.009-0.959 1.436-1.208 0.748-0.302 2.028-1.161 2.409-1.576 0.525-0.149 4.888-1.9 5.152-2.357 1.253 0.157 7.033-2.451 8.168-2.803 0.917-0.283 1.892-0.062 2.725-0.682 0.157 0.26 4.067-0.418 5.562-0.454 0.828-0.02 2.03 0.444 2.043-0.567-3.559-0.496-7.953 0.074-10.897 1.476-1.386-0.58-3.273 1.029-3.263 1.034-1.316 0.394-3.597 1.024-4.425 1.74-0.572-0.229-5.864 2.463-5.864 2.463-0.067 0.295-4.322 2.661-4.524 2.511 0.503-0.274 3.43-2.466 3.709-3.234 1.22-0.583 2.586-1.909 3.307-2.868 1.251-0.79 3.849-2.501 5.062-3.719-3e-3 0.01-0.01 0.021-0.013 0.031 0.819-0.089 2.938-1.484 3.514-1.817 0.117-0.298 1.602-1.551 1.58-1.988-5e-3 0-0.012 3e-3 -0.018 4e-3 1.15-0.695 2.008-1.682 3.432-2.102 0.58 0.235 1.623-0.223 1.817-1.021 1.672-1.128 3.138-2.462 5.676-2.725 0.53-0.794 1.391-1.257 2.27-1.703 1.035 0.051 1.812-0.154 1.703-1.248-0.538-0.046-0.781 0.202-1.362 0.113-2.025 1.457-4.964 1.998-6.583 3.859-1.049 0.239-3.273 1.381-3.632 1.589-0.348 0.083-3.407 1.792-4.031 3.482-1.109 0.51-2.79 1.688-3.714 2.638 1e-3 -1e-3 2e-3 -3e-3 2e-3 -5e-3 -0.535 0.601-3.714 2.181-4.404 2.626 0.203 0.707-7.59 5.798-8.181 7.071-0.76 0.199-1.143 0.901-2.035 0.647-0.318 0.098-0.241 0.591-0.454 0.795-0.557 0.124-0.936 0.427-1.477 0.567-1.907 1.839-4.034 3.457-6.811 4.427 1.955-2.094 3.539-4.559 6.244-5.902-0.194-0.072-0.187-0.343-0.341-0.454 0.64-1.29 1.94-1.919 2.951-2.838-0.535-1.481 3.945-5.075 4.654-6.13 1.724-1.039 4.223-4.669 4.314-4.881 1.807-0.531 6.199-2.387 6.47-3.065 0.345-5e-3 4.253-2.746 4.881-3.064 0.587 1.233 3.305-2.397 3.632-2.384 0.608-0.376 0.814-1.152 1.816-1.136 1.024-1.964 4.23-1.748 5.448-3.519-1.215-0.517-2.547 0.666-3.405 1.248-1.331 2e-3 -2.355 1.273-3.292 2.044-0.354-0.299-0.756 0.083-1.135 0.113-0.095 0.108-5.082 2.999-4.88 3.064-0.075 1.185-1.735 1.129-1.59 1.477-7e-3 0.332-1.095 1.178-1.29 1.324l-0.511 0.327c0.02 0.15-3.562 1.819-3.746 1.663s2.019-1.717 1.914-1.953c0.188-0.372 0.868-0.945 0.868-0.945 0.421-0.902 2.364-1.877 2.651-2.913 0.519 0.063 3.244-2.149 3.179-2.498 1.635-2.225 3.646-4.073 6.357-5.222 0.453-0.947 1.204-1.124 1.93-1.589 1.162-0.743 1.785-1.994 3.292-2.043 1.016-0.034 1.748 0.209 1.93-0.908-0.98-0.163-2.032 0.061-3.179-0.114-1.628 1.399-3.565 2.49-4.995 4.087-0.458 0.109-0.903 0.231-1.361 0.341-1.057 1.933-3.923 2.056-4.881 4.086-0.416 0.152-2.657 1.668-2.838 2.384-1.171 0.986-2.624 1.69-3.632 2.838-0.348-0.082-5.663 5.576-7.833 6.471-0.105-7e-3 2.39-3.188 3.202-5.138 0.607-0.133 4.382-5.058 4.176-5.306 1.213-2.874 6.534-7.29 6.357-7.719 1.401-2.42 3.499-4.145 5.221-6.243 0.725-0.026 1.428-0.65 0.908-1.249-1.535 0.318-5.53 5.481-7.378 6.356-0.277-0.113-4.749 5.771-5.903 6.812 0.078 0.414-2.191 4.543-3.179 4.654 0.212 0.951-3.231 5.865-4.372 7.831-1.017 1.573-2.296 2.888-3.46 4.314-0.82 0.013-5.125 6.061-5.997 6.548 2e-3 0.145-1.417 1.604-1.641 2.281-0.574 0.257-0.631 1.029-1.217 1.273-0.487-4e-3 2.195-4.793 2.128-4.906 0.864-2.57 3.939-9.09 3.982-10.619 1.32-1.668 1.977-3.934 2.517-6.383 0.402-0.165 2.534-4.332 2.383-5.335 1.343-2.403 2.548-4.944 3.859-7.379-0.054-0.356 1.397-2.387 2.157-3.064 0.719-1.854 1.337-3.81 2.838-4.881 0.134-0.771 0.984-1.392 0.455-2.157-0.959 0.102-1.316 0.804-1.476 1.703-2.866 3.869-4.985 8.485-7.492 12.714 0.474 0.916-2.687 4.26-2.61 4.768-0.432 1.272-6.679 18.521-7.115 18.695 0.245 0.298-0.366 1.602-0.49 1.964-0.258 0.234-0.404 0.58-0.568 0.908-0.401-0.091-1.312 1.247-1.75 1.681-0.437 0.434-1.683 1.205-1.882 3.313-0.413 0.035-0.738-0.018-1.022-0.113-0.589-1.941-0.036-4.508 0.228-6.584 0.194-0.932 0.313-1.845 0.113-2.497 0.789-1.178-0.387-3.77 0.794-4.654 0.097-1.576-0.529-2.496-0.227-3.973-0.096-0.396-0.195-1.217 0-1.59-0.392-1.358 0.421-10.547 0.455-13.28 1e-3 -0.302-0.042-0.648 0.113-0.795 0.641-3.366 0.844-6.977 1.589-10.443v-0.113c0.7-1.344 0.699-3.389 1.249-4.882v-0.113c0.363-1.025 0.622-2.059 1.021-3.178 0.441-1.235 1.476-2.269 1.816-3.292 0.097-0.291-0.039-0.845 0.113-1.362 0.093-0.313 0.949-1.448 0.114-1.589-0.233-0.04-1.141 1.674-1.249 1.929-0.208 0.49 0.293 0.078-0.113 0.795-0.26 0.458-0.697 0.718-0.908 1.249-0.608 1.526-1.153 3.493-1.93 4.994-0.088 0.555-0.332 0.955-0.454 1.476-0.17 0.626-0.146 1.444-0.455 1.93 0.12 1.028-0.245 1.571-0.454 2.271-0.04 0.868-0.224 1.592-0.34 2.384v0.114c-0.151 1.514-0.197 3.132-0.681 4.313 0.047 0.539-0.055 0.929-0.227 1.248 0.075 1.74-0.195 3.136-0.114 4.881 0 0-0.394 1.351-0.769 3.21 0.106-3.926 0.506-16.468 0.725-18.064v-0.568c0.01-1.096 0.607-3.076-0.227-3.632-1.194 0.379-0.512 2.792-0.794 4.54-0.187 1.156 0.015 15.755 0.036 19.14-0.437 2.624 0.434 8.836 0.575 9.11-0.622 2.195 0.081 4.633-0.794 6.697 0.436 1.408 0.081 3.614-0.34 4.882-0.444-0.162-0.498-0.714-0.455-1.362-0.108 0.023 0.257-5.442 0.411-6.115-0.676-1.876-1.086-4.858-0.682-7.265-0.095-0.282-0.157-2.585-0.567-3.292 0.355-0.547 0.317-1.566-0.011-2.169 0.358-1.878-0.952-8.494-0.897-9.409 0.039-0.646 0.324-1.112 0.114-1.816 0.066-0.387 0.312-0.597 0.34-1.021-0.365-0.503-0.144-2.539-0.478-3.416 9e-3 3e-3 0.014 8e-3 0.024 0.011 0.503-0.328-0.113-0.618-0.113-1.021 0-0.552 0.321-1.169 0.341-1.816 0.041-1.404 0.137-2.708 0.34-4.2 0.369-2.703 1.243-5.447 1.249-8.06-1.24 0.306-0.792 1.947-1.022 3.064-0.363 1.762-0.956 3.146-1.135 5.222-0.198 2.288-0.077 4.137 0.114 5.562 0.032 0.241-0.117 0.584-0.106 0.855-1e-3 0-1e-3 0-1e-3 -1e-3 -0.114 0.151-0.079 1.645-0.233 1.757-0.202 1.956 0.547 3.925 0.341 5.562-0.078 0.617-0.188 6.816 0.509 8.681-0.173 0.67-0.092 4.714 0.399 5.055-1.115 2.28 0.54 4.33 0.341 6.584 0.094 0.284 0.311 0.445 0.34 0.795-0.372 0.548-0.37 5.126-0.325 6.608-0.139 0.028 0.815 2.227 0.256 3.593-1.074-0.288-0.985-1.74-1.476-2.611 0.177-0.353 0.769-2.792-0.114-3.179 0.461-0.967-0.695-3.685-1.589-4.086-0.527 0.453 0.317 2.672 0.454 2.951-0.229 0.514 0.021 1.647 0.568 1.816 0.26 0.9-0.426 2.544-0.455 2.951-0.411 0.61-1.024-0.533-0.794-0.795-0.25-0.469-0.178-1.26-0.567-1.589-0.04 4e-3 -0.262-1.138-0.457-1.722-0.019-0.113-0.171-0.549-0.224-0.635-1e-3 -1e-3 -1e-3 -2e-3 -1e-3 -2e-3 -0.565-1.525-1.955-8.316-2.427-8.297-0.107-1.281 0.017-6.461-0.204-6.738 0.356-1.515 0.312-8.478 0.851-8.824 0.29-1.191 0.501-1.92 0.454-3.292-0.348-0.291-0.597 0.243-0.908 0.341 0.281 1.812-0.706 4.5-0.454 5.902 7e-3 -6e-3 0.012-0.015 0.019-0.021-0.424 1.901-0.752 8.531-0.779 9.942-0.345-0.315-1.182-3.725-1.021-4.915-0.693-1.236-1.368-2.491-1.93-3.859 0.147-0.916-0.217-1.398-0.34-1.93-0.185-0.797-0.147-1.724-0.341-2.497-0.112-0.451-0.482-0.889-0.567-1.362-0.081-0.444 0.045-0.918 0-1.362-0.412-3.989-1.134-8.032-1.704-11.919 0.391-0.499 0.614-1.445 0.341-2.271 0.151-0.379 0.323-1.533 0.228-2.043 0.198-0.672 1.044-0.695 1.021-1.59-0.143-0.046-0.233-0.146-0.227-0.34-1.075-0.13-0.92 0.972-1.816 1.021-0.26 1.16 0.133 2.257 0.228 2.951 0.083 0.62-0.203 1.181-0.228 1.816-0.049 1.235-0.171 2.671-0.114 3.859 0.115 2.404 1.305 4.867 1.022 7.038 0.606 2.089 0.857 4.886 1.589 7.151-0.016 0.4-0.325 0.508-0.34 0.908 0.511 0.851 0.918 1.805 1.475 2.61-0.195 2.503 1.372 3.244 1.135 5.79 1.552 1.02 0.969 4.176 2.27 5.448-0.143 0.276 0.639 2.048 0.795 2.497 0.09 2.066 1.588 2.725 1.248 5.222 0.223 0.261 0.66 1.761 0.611 1.802-1.11-0.518-1.127-2.128-2.157-2.725-0.531 0.561 0.675 1.169 0.454 2.156-1.359-0.381-1.868-1.612-2.724-2.497-1.787-0.37-2.734-1.579-4.541-1.93-0.463-0.771-0.763-1.444-1.249-1.135-1.239-0.01-1.526-0.971-1.93-1.816-0.816-0.621-1.281-1.595-2.156-2.157-0.016-0.47 0.031-0.877 0.226-1.135-0.054-0.357 0.162-0.443 0.228-0.682 0.844-2.183 2.248-3.806 3.179-5.902-0.411-0.82 0.633-1.967-0.228-2.497-0.825 0.045-0.764 0.977-0.794 1.816-0.689 1.392-1.249 2.913-2.497 3.745 1e-3 0.721-1.537 4.887-2.384 5.336-0.864-0.535-1.88-0.92-2.497-1.703-0.421 0.08-0.488-0.193-0.908-0.113-1.89-1.176-4.344-1.786-4.654-4.541-1.135-1.816-2.061-8.152-2.043-8.286-0.549-1.582 0.485-2.37 1.021-3.179 0.329-0.496 0.468-1.109 0.794-1.589 0.569-0.838 1.183-1.309 1.703-2.271 0.32 0.012 0.022-0.778-0.341-0.794-0.535 0.146-0.817 0.545-1.248 0.794-0.821 2.649-3.764 3.298-2.952 7.265 0 0 0.261 3.11 0.454 4.428 0.21 1.438 1.188 2.229 1.135 3.405-1.177-0.224-1.295-1.505-2.043-2.157-1.192-0.534-2.841-2.366-2.838-2.384-0.022-6e-3 -4.865-5.426-5.562-6.811-0.091 0.061-0.184 0.118-0.34 0.113-0.638 2.211 2.154 3.577 3.292 5.449 0.08 0.132 0.019 0.331 0.114 0.454 0.826 1.072 2.256 1.276 2.61 2.724 1.268 0.518 2.478 1.678 2.838 2.725-1.279-0.536-2.523-1.109-3.065-2.384-2.229-0.798-3.532-2.522-5.449-3.632-0.588-0.699-0.942-1.631-2.043-1.816-0.596 0.762 0.422 1.735 1.249 1.816 1.711 2.11 3.938 3.705 6.356 5.107 1.461 2.437 4.891 2.905 6.471 5.222 2.583 0.974 3.738 3.376 6.129 4.541 0.096 0.475-0.308 0.449-0.454 0.681-0.595 0.103-4.7-2.392-4.768-2.156-1.45 0.124-1.716-0.933-2.952-1.022-0.87-1.551-3.069-1.773-4.313-2.951-0.751-1.367-2.066-2.172-3.178-3.178-0.572-1.509-2.349-1.813-2.725-3.52-1.225-0.591-1.565-2.067-2.724-2.724-0.265 0.037-0.489 0.116-0.567 0.34 0.105 1.074 0.959 1.7 1.665 2.378 0.197 0.238 0.4 0.469 0.606 0.69 0.146 0.219 0.078 0.48 0.226 0.678 0.256 0.343 0.599 0.485 0.908 0.795 1.162 1.163 2.013 2.85 3.516 3.774 0.268 0.22 0.522 0.411 0.749 0.61 0.268 0.405 0.589 0.759 0.617 1.404-0.101 0.05-0.203 0.1-0.227 0.227-1.548-0.229-1.74-1.815-3.405-1.93-0.56-1.591-3.688-3.952-4.313-4.54-0.395-0.628-0.27-1.773-1.135-1.93-0.79 1.532 1.103 2.285 1.135 3.746 1.767 0.882 2.154 3.143 4.2 3.745 0.308 0.428 0.21 0.921-0.228 1.136-1.599-1.125-3.647-1.801-4.654-3.52-2.963-0.706-3.751-3.588-6.584-4.427-0.164 0.063-0.277 0.178-0.34 0.341 1.336 1.805 3.079 3.202 4.768 4.654 0.157 0.403 0.433 0.64 0.908 0.681 2.172 0.779 3.297 2.605 5.676 3.179 0.579 0.405 1.07 0.897 1.476 1.476 0.345-0.067 1.106-0.411 1.476 0.227v0.114c0.127 0.023 0.177 0.126 0.227 0.227 0.509 0.399 0.912 0.904 1.703 1.021 1.103 0.813 1.048 3.115 1.703 4.654 0.303 0.711 0.877 1.139 0.227 1.93-0.287-0.168-0.469-0.438-0.567-0.795-0.622-1.059-2.251-1.661-2.157-3.064-0.423-0.851-0.823-3.386-2.383-3.859-0.979 1.808 1.71 2.901 0.908 4.54-0.916 0.158-1.074-0.438-1.249-1.021h-0.79c-0.36-0.435-0.34-1.249-1.021-1.362-0.427 0.179-0.847 0.363-1.363 0.454 0.261 0.573 0.931 1.338 1.59 1.136 1.463 1.602 3.463 2.666 5.221 3.973-0.151 1.598 1.661 1.811 1.363 3.179-2.842-1.208-5.929-2.169-7.605-4.541h-1.022c-0.586-0.775-1.825-0.899-2.157-1.93-1.937-0.258-1.97-2.42-4.086-2.497-0.256-1.145-1.547-1.253-2.043-2.157-0.11-0.858 0.349-1.59-0.34-1.816-0.463 0.029-0.561 0.424-1.135 0.341 0.047 1.848 1.55 3.113 2.951 3.974-0.094 0.32 0.16 0.294 0.114 0.567 1.504 0.842 2.814 1.877 4.086 2.951v0.567c2.154 0.872 4.409 1.646 5.676 3.405 0.454 0 0.848 0.06 0.795 0.568-0.993-0.483-2.479-0.474-3.292-1.136-0.109 0.016-0.19 0.06-0.255 0.119-0.976-0.749-2.761-1.26-3.421-1.92-0.084-0.416-1.919-1.026-3.065-0.908-0.235-1.165-1.367-1.433-1.816-2.384-1.329-0.216-0.979 0.707-0.567 1.248 1.26 0.103 1.743 0.981 2.271 1.816 1.886 0.745 4.241 2.429 6.391 3.043 2e-3 0.077 5e-3 0.155 9e-3 0.234 1.587 0.79 2.736 1.486 4.881 1.248 1.58 1.028 3.239 0.197 4.772 1.501 1.797-0.094 3.264 2.382 3.514 3.835-1.195 0.236-2.182-0.686-3.065-1.136-1.82-0.033-3.101-0.607-4.541-1.021v-0.908c-0.738-0.396-1.024-1.246-2.157-1.248-0.198 0.878 0.694 0.668 0.568 1.476-0.808 0.519-2.235-0.039-2.611-0.682-0.456 0.078-0.647-0.108-1.021-0.113-1.431-1.633-4.046-2.084-5.562-3.633-0.636-0.178-1.874-1.188-2.043 0.114 1.683 1.533 4.077 2.356 5.222 4.427 2.075 0.082 3.132 1.181 3.859 2.61l1.93 1.703c0.992 0.437 2.46 0.28 2.951 1.362-1.902 0.639-3.233-0.416-4.541-1.021 0 0-1.586-1.866-1.644-1.738-0.322-0.268-0.735-0.512-1.154-0.751 0.018-7e-3 0.034-0.018 0.051-0.028 0.032-0.02-0.469-0.358-0.476-0.358-0.065-4e-3 -0.131 3e-3 -0.199 0.024-0.604-0.367-1.103-0.749-1.163-1.22-0.454 0.037-1.414-0.668-1.589-0.908-0.327 0.013-0.743-0.062-0.908 0.113 0.439 1.112 2.074 1.028 2.383 2.27 0.625 0.059 1.749 1.005 2.648 1.527-0.043 0.085 1.176 0.958 1.482 1.637-2.577 0.319-5.719-0.057-7.492-1.362-2.705 0.339-3.907-2.445-6.13-1.476 0.225 0.759 3.411 1.941 4.2 2.271 0.417 0.173 0.948-6e-3 1.362 0.113 0.762 0.22 3.88 1.005 4.2 0.908 0.727 0.446 2.019 0.327 2.497 1.021 1.871-1.023 4.425-0.272 5.108 1.476 0.969 0.015 1.423 0.544 2.157 0.795-0.234 0.429-0.599 0.727-1.027 0.961-0.109 0.04-0.213 0.096-0.314 0.158 1e-3 0 1e-3 -1e-3 1e-3 -1e-3 -1.467 0.665-3.472 0.792-3.996 2.4 2.799 0.333 4.509-2.373 7.492-2.61 0.346-0.298 0.504-0.783 1.135-0.795 0 0 1.087-1.234 6.357 1.362 0.073 0.414-0.077 0.604-0.227 0.795-0.638-0.323-2.087 0.194-2.157 0.681 1.344-0.361 2.304-0.785 3.632-0.113 0.232 0.591-7.369 3.232-8.173 3.519-0.837 0.298-1.639 0.174-2.61 0.341-0.331 0.044-0.453 0.296-0.615 0.508l0.095 0.373c1.144-0.097 3.694-1.164 4.493-0.994 0.529 0.077 2.896-1.493 4.654-1.59 0 0 1.441-0.815 2.384-0.908 1.17-0.114 2.837-0.916 3.973-1.021 1.448-0.135 2.683-0.423 4.086-0.454 0.324-0.029 0.453-0.556 0.794-0.227-0.111 0.998-5.264 1.781-6.18 2.296l-0.527 0.146c-1.214 0.089-2.088 0.295-3.114 0.295l-1.155 0.3c0.099 0.201 0.205 0.396 0.419 0.481 0.876-0.488 3.293-0.149 4.354-0.654 0 0 6.004-1.095 6.43-1.502 2.258 0.137 4.272-1.551 6.696-1.249-0.149 0.318-0.836 0.528-0.454 1.021 1.153-0.457 1.244-2.118 3.179-1.476 0.889-1.315 2.896-0.189 3.746-1.589 0.496 0.242 0.7-0.175 1.021 0-0.019 1.229-0.433 2.064-1.021 2.724 0.107 1.215-0.606 2.565-1.021 3.633v0.567c0.052 0.752-0.485 0.919-0.682 1.362-0.131 0.296-0.959 2.481-1.248 3.292-0.21 0.589-1.534 3.592-1.702 3.973-0.919 2.073-1.222 3.987-2.498 6.13 0.022 1.688-0.656 2.674-1.249 3.746-0.095 1.986-1.196 2.966-1.703 4.541v0.113c-0.47 1.497-2.492 4.621-2.724 4.995 0.229 1.797-1.182 2.892-1.475 4.54 4e-3 0.156-1.875 4.179-2.043 4.427-0.473 0.588-0.983 1.136-1.022 2.157-0.167 0.476-0.316 0.97-0.567 1.361-0.364 0.772-1.206 1.065-1.817 1.59-0.455 0.301-1.181 0.332-1.816 0.454l-10.216 2.271c-0.263-0.036-5.562 1.702-5.562 1.702-0.7 0.096-3.995 1.149-4.005 1.156-1.056 0.251-3.089 0.79-3.941 1.341h-0.113c-0.993-8e-3 -1.623 0.345-2.384 0.568 0.046 0.192 0.146-0.024 0.34 0h0.114v0.113h0.34c-0.833 0.378-1.633 0.788-2.497 1.135 0.344 0.515 0.887 0.018 1.135-0.227 0.892-0.282 2.051-0.296 2.838-0.682 0 0.114-0.092 0.136-0.113 0.228v0.227c1.182 0.492 2.275-0.429 3.616-0.704s6.021-1.956 6.828-2.134c0.386 8e-3 6.854-1.621 7.719-2.043 0 0 4.655-1.058 5.108-1.136 0.642-0.038 1.879-0.505 2.043-0.566 0.235 0.067 0.745-0.141 0.794 0.113 0.026 0.214-0.259 1.217-0.454 1.361-0.254 0.314-1.729 4.591-2.724 5.336 0.111 1.148-0.856 2.902-0.856 2.902-0.051 0.082-0.785 1.359-0.96 1.979-0.51 0.731-2.492 5.595-2.725 7.265-0.177 0.39-0.68 1.249-0.794 1.249-0.138 0.392-0.803 1.693-1.135 1.816 0 0-1.819 4.837-1.88 4.926-0.432 0.591-1.212 2.463-1.412 2.566 0 0-3.276 5.048-4.768 7.491-2e-3 0.226-1.614 1.041-1.135 2.044 0.069 6e-3 0.134 0.017 0.113 0.113-1.377 1.725-2.628 3.577-3.746 5.562 2.042-0.457 2.706-2.289 4.768-2.725 0.397-1.268 1.244-2.086 1.816-3.179h0.114v0.113h0.114c0.152-0.074 0.211-0.242 0.227-0.454 0.803-1.165 1.253-2.682 2.157-3.746 0 0 2.013-4.268 2.271-4.881 0.204-0.4 0.356-0.854 0.567-1.248-0.01-0.162-0.019-0.321 0.113-0.341-0.032-0.184 0.107-0.196 0.114-0.341 0.366-0.429 0.905-0.684 0.908-1.476 9e-3 -0.18 1.342-2.062 1.362-2.61 0.237-0.181 0.64-2.274 0.908-2.611 0.32-0.448 0.771-0.939 0.794-1.362v-0.113c0.29-0.239 3.108-7.524 3.178-7.946 0.109-0.232 1.673-3.568 1.682-3.604 0.267-0.621 0.369-1.405 0.703-1.959 0.157-0.069 2.465-6.162 2.725-6.356 0.011-0.1 0.098-0.338 0.122-0.408 0.376-0.666 1.482-0.223 2.263-0.613 0 0 5.74-0.523 6.243-1.021 0.17-0.02 7.864-0.87 7.946-1.136 0.553-0.051 11.128-0.91 11.351-1.135 0 0 3.598-0.321 4.313-0.454 0.096 0.021 2.61-0.228 2.61-0.228s6.874-0.276 8.741-0.34h1.816l2.157-0.113c1.468 0.078 3.68 0.382 4.881 0 0 0 2.174 0.021 2.27 0h3.292c-1.006 0.74-5.109 0.908-5.109 0.908-1.209-0.226-4.125 1.21-4.199 1.361-0.195-5e-3 -3.331 0.648-3.962 0.487h1e-3c-0.036-0.014-0.077-0.024-0.125-0.032-0.417 0.036-1.005-0.098-1.249 0.113-0.194 0.146-0.446 0.234-0.454 0.567 0.15 0.227 0.938 0.33 1.248 0.341 0.202-0.063 3.451-0.258 3.633-0.455 0 0 3.144-0.563 3.292-0.681 0.237-0.065 0.324-0.281 0.681-0.228 0.693 0.291 1.177-0.039 1.59-0.34 0.396-0.384 1.968-0.113 2.156-0.341 0.573-0.335 1.399-0.416 2.157-0.567 0.509-0.172 0.811-0.551 1.589-0.454h0.114c0.465-0.027 0.665-0.318 1.022-0.453h0.113c0.532 0.072 1.36-0.149 1.703 0.112-0.194 0.488-1.092 0.27-1.362 0.682-0.512 0.207-0.976 0.461-1.59 0.567-0.817-0.023-1.101 0.487-1.589 0.794-0.292 0.238-4.881 1.703-4.881 1.703-0.616-0.086-5.305 0.169-5.951 0.334-1.269-0.419-8.306-0.441-9.033-0.561 0.014 0.439 0.334 0.574 0.568 0.795 0.39 0.05 8.124 0.438 8.408 0.44 0.471 0.243 1.033 0.01 2.562 0.07 1.991-0.385 3.258 0.116 4.923-0.284 0.431-0.061 3.395-1.486 3.632-1.703 0.292-0.358 2.433-0.669 3.065-1.135 0 0 0.758-0.489 1.362-0.454 0.675-0.083 1.277-0.839 1.93-0.567 0.021 0.398-0.383 0.373-0.454 0.681-0.562 0.234-1.071 0.52-1.476 0.908-0.442 0.49-1.384 0.931-1.476 1.476-0.526 0.307-2.53 2.579-2.724 2.725h-0.113c-0.449 0.637-3.196 3.69-3.292 3.973-0.881-0.049-0.671 0.994-1.362 1.136-0.775 0.057-0.662 1.003-1.362 1.135-0.284-0.094-0.928 0.944-1.022 1.249-0.158 0.334-1.092 2.275-1.816 2.497-0.267 0.414-0.69 0.673-1.022 1.021-0.942 0.383-1.091 1.558-1.93 2.044 0.288 0.885 0.373 1.973 0.455 3.064 0 0 0.089 0.78 0.227 1.135 0.088 0.025 0.588 2.287 0.794 2.611 0.132 0.019 0.123 0.18 0.114 0.34v1.136c0.068 0.271 0.163 0.519 0.113 0.908-0.118 0.335 0.128 2.936 1.021 3.519l0.682 1.135c-0.231 0.271-0.682 0.769-0.341 1.249 8e-3 0.198-0.025 0.354-0.113 0.454-0.16 0.332-0.592 0.393-0.454 1.021v0.113c-0.248 0.492-1.062 1.126-1.022 2.044 0 0-2.283 4.452-2.611 5.108-0.297 0.618-1.12 1.13-0.681 1.93v0.112c0.127 0.024 0.176 0.127 0.227 0.228 0.978-0.329 1.384-1.566 2.34-1.927l0.271-1.139 0.455-1.361c0.014-0.553 0.346-0.79 0.454-1.249 0.115-0.15 0.107-0.422 0.341-0.453 0.635-0.943 1.489-1.79 1.362-3.179 0.089-0.025 0.132-0.096 0.114-0.228 0.392-0.138 0.068-0.991 0.341-1.248 0.068-0.473 0.477-0.781 0.908-0.568 0.427 0.254 0.871 0.492 1.022 1.022-0.349 0.899-1.806 3.604-1.93 4.2-0.03 0.348-0.247 0.51-0.341 0.794-0.077 0.264-0.377 0.304-0.454 0.567l-0.568 1.021c0.107 0.097 0.243 0.725 0 0.795l-0.794 1.021c0.268 1.214-2.409 6.218-3.519 6.697-0.382-0.175-0.164 0.731 0 1.477 1.377 0.466 1.856-0.636 1.93-1.816 0.132-0.02 2.846-5.705 3.405-5.903 0.124-0.29 0.933-2.019 0.908-3.179 0 0 0.54-0.633 0.568-1.135-0.02-0.625 1.873-3.174 1.475-4.654 0.482-0.426 2.604 0.121 3.179 0.228 0.648-0.283 4.332-1.48 4.313-2.044-0.822 0.247-5.979 0.766-6.357 0.228 0.365-1.981 1.784-2.908 1.93-5.108 1.057-0.532 0.937-2.242 1.816-2.951l0.567-1.248c0.41-1.067 0.902-1.219 0.227-1.93 1.376-2.149 2.116-4.936 3.066-7.509 0.076-0.167 0.148-0.332 0.22-0.499 0.122-0.282 0.89-2.108 1.141-2.55 0.094-0.296 0.981-2.387 1.135-3.292 0.015-0.402 0.341-1.021 0.341-1.021 0.038-0.266 0.117-0.49 0.341-0.568 0.419 0.072 0.34 1.249 0.34 1.249s-1.801 8.188-1.93 9.081c-0.127 0.873-0.124 2.575 0 2.837 0.01 1.411 0.309 3.99-0.681 4.769 0.052 1.139-1.873 7.937-1.362 9.762-0.382 0.619-0.869 1.436-0.794 1.93-0.33 1.108-0.823 5.102-0.908 5.222-0.023 0.355 0.077 0.833-0.114 1.021-0.033 0.572-0.567 0.645-0.454 1.362 0.131 0.169-0.423 1.015-0.341 1.59v0.566c-0.067 1.645-0.597 2.789-0.908 4.428v0.114c0.255 0.047-1.116 7.421-0.892 7.5 1.678-0.656 1.498-9.891 2.369-11.474 0.018-0.134 0.112-0.908 0.112-0.908 0.62-3.397 1.826-6.284 1.817-9.763 0.631-0.347 0.428-0.993 0.567-1.815 0.118-0.694 0.625-1.381 0.681-1.93 0.077-0.755-0.497-1.931 0.568-2.157 0.758 0.898-0.182 2.141 0.567 2.951-0.058 0.434-1.562 3.906-0.908 4.995-0.121 0.484-0.641 0.569-0.681 1.135 0.866 1.595-1.821 8.038-2.087 8.075-0.021 0.136-0.02 0.285 2e-3 0.419 0-1e-3 1.037-0.122 1.133-0.307 0.295-0.563 0.247-1.557 0.567-2.27 0.2-0.445 0.575-0.641 0.681-1.021 0.258-0.923 0.526-6.914 1.646-7.155 0.283 0.101-0.25 2.667-0.473 2.896 0.21 0.979 0.308 1.433 0.473 2.72 0.075 0.795-1.001 4.678-0.738 5.285 0.225 0.237 0.087 0.754 0 1.021h-0.114c-0.066 0.462-0.407 1.931-0.449 2.532-0.042 0.603-0.196 0.762 0.414 1.33 0.611 0.568 0.703 0.185 2.192 1.019 0.43 0.44 0.572 1.169 1.135 1.476 0.033-0.799 0.405-1.26 0.794-1.702-1.298-0.634-1.666-2.136-1.475-3.746v-0.113c-0.202-0.103-0.145-0.462-0.568-0.342 0.07 1.116-0.419 2.003 0.227 3.065-0.208 0.725-1.257 0.399-1.475-0.113-0.245-0.968-0.107-1.969 0-2.725 0.196-1.386 0.723-7.098 0.794-7.719 0.073-0.625-0.322-1.272-0.298-2.085 2e-3 -0.021 3e-3 -0.041 5e-3 -0.061 0.013-0.153 0.11-0.594 0.11-0.594 0.914-2.043-1.053-4.894 0.454-6.47 0.76 0.85 0.326 2.458 0.567 3.632 0.781 0.884 1.373 1.958 1.476 3.519 0 0 0.179 1.264 0.341 1.93 0.314 1.297 1.274 2.644 1.475 4.087 0.081 0.574-0.137 1.202-0.113 1.816 0.034 0.905 0.189 1.838 0.227 2.725 0.124 2.903-1.065 8.302-1.065 8.302-0.067 0.234-0.354 1.612-0.567 2.042 0 0-0.179 0.844-0.228 1.249-0.036 0.268-0.179 0.426-0.113 0.795 0.188 0.19 0.667 0.09 1.021 0.113 0.289-0.279 0.406-0.729 0.341-1.361v-0.625c0.014-0.024 0.982-5.438 0.952-6.202 0.407-0.495 0.994-0.689 0.908-1.248 0.421-1.128-0.276-1.827 0-2.951v-0.341c-0.259-0.157-0.043-0.79-0.114-1.136 0.192-0.224 0.416-1.133 0.455-1.702 0.151-0.202-0.207-2.327-0.341-3.746-0.26-2.749 0.354-6.275-0.567-8.741 0.295-0.195-1.022-5.978-1.021-6.356 0.923-1.032-0.546-2.164-0.682-3.404-0.028-0.26 0.211-0.66 0.228-0.908 0.064-1.009-0.346-2.119-0.34-3.293 2e-3 -0.447 0.216-0.909 0.227-1.361 0.028-1.166-0.599-2.594 0.341-3.406-0.148 0.863 0.1 5.196 0.114 5.562 0.01 0.263 0.313 0.643 0.34 1.021 0.052 0.711-0.537 1.735 0.227 1.703 0.925-0.038-0.125-2.327 0.228-3.064-0.844-1.648 0.081-3.941 0.227-5.676-0.155-0.413-0.706-0.43-0.794-0.908 0.4-2.419-1.166-5.375-0.113-7.719 0.517 1.436 1.215 3.216 1.021 4.994 0.9 0.538 0.615 1.946 1.021 3.292 0.282 0.935 0.312 1.669 0.34 2.271 0.674 1.65 1.076 3.861 1.476 5.448 0.605 2.404 0.846 5.019 1.475 7.378 0.165 0.617 0.734 1.264 0.455 2.157 1.383 2.666 1.069 7.028 2.611 9.535v1.022c0.176 0.429 0.504 0.706 0.681 1.135-0.255 2.044 1.081 5.864 1.19 5.936 0.426 2.216 1.365 6.138 1.377 6.566 0.336 0.307 0.462 0.824 0.795 1.134-0.34-1.301-1.325-8.589-1.229-9.082-0.058-0.104-0.125-0.157-0.2-0.184 0.07-0.18-0.626-2.582-0.345-3.803-1.23-0.535-0.797-2.351-1.134-3.632-0.129-0.49-0.516-0.88-0.682-1.363-0.406-1.181-0.676-2.748-0.908-3.632-0.163-0.624-0.164-1.332-0.166-2.052l0.075 6e-3c1.401 2.514 4.045 6.945 4.064 7.268 0.505 0.479 1.436 0.532 1.476 1.476 0.708 0.048 1.186 0.327 1.362 0.908-0.333 8e-3 0.953 1.127 1.362 1.816 0.242 1.26 1.277 2.229 1.816 3.404 0.167 0.366 0.16 0.875 0.34 1.249 0.46 0.953 1.272 1.58 1.476 2.498 0.228 1.024-0.023 2.038 0.681 2.95 0.455-0.225 0.972-0.391 1.362-0.681 0.474-2.341-0.533-4.317-0.682-6.697v-0.453c-0.269-0.071 0.018-0.699-0.227-0.795-0.321-0.398 0.088-1.526-0.227-1.93-0.174-0.687-0.34-1.378-0.51-2.067-0.04-0.162-0.127-0.507-0.139-0.556-0.593-2.365-1.258-4.659-2.417-6.459-0.268-0.277-0.211 0.17-0.567 0.114-0.884-1.047-1.654-2.205-1.93-3.859 0.317-0.145 0.561-0.28 0.908-0.114-0.011 0.466-0.022 0.931 0.113 1.249 1.255 0.368 2.458 1.075 2.952 2.497 1 0.501 1.987 1.154 2.855 1.889 0.409 0.395 0.822 0.798 1.231 1.201 0.367 0.479 0.653 1.188 1.28 1.28 1.65 1.675 3.035 3.193 3.443 3.932 1.588 0.456 1.636 2.45 3.065 3.065 0.119 0.448 0.274 0.86 0.567 1.135 0.89-0.281 1.739 0.703 1.93-0.227-0.231-0.353-0.694 0.034-1.134-0.228-0.285-0.587-0.708-1.032-0.795-1.816-0.821-0.65-2.225-1.982-3.557-3.292-0.087-0.272-0.237-0.482-0.428-0.652l-1e-3 -1e-3c-0.19-0.169-0.417-0.302-0.656-0.423-0.254-0.253-0.496-0.497-0.722-0.727 9e-3 -5e-3 0.019-7e-3 0.028-0.014-0.01-0.073-0.506-0.533-0.581-0.547h-1e-3c-0.522-0.533-0.895-0.92-1.007-1.042-0.114 0-0.136-0.092-0.227-0.113-0.786-0.728-1.214-1.813-2.157-2.384-0.282 0.017-0.471-0.059-0.567-0.227-0.327-0.274-0.675-0.526-1.023-0.778-0.025-0.047-0.179-0.162-0.233-0.171-0.865-0.633-1.697-1.298-2.15-2.344-1.443-0.076-1.636-1.403-2.219-2.34-2e-3 -0.021-7e-3 -0.037-7e-3 -0.059-0.017-0.011-0.034-0.018-0.052-0.028-0.176-0.261-0.385-0.488-0.673-0.638-0.233-0.637-0.248-1.493-0.682-1.93-0.352-0.012-0.323 0.357-0.794 0.227-0.263-0.266-5.134-10.155-5.006-10.813 0.583-0.062 1.097 0.498 1.439 0.196 0.581 0.404 5.886 9.472 6.291 10.05-0.369 0.959 0.683 1.316 0.681 2.271 0.394 0.175 3.406 3.064 3.406 3.064 0.038 0.795 1.249 1.628 1.249 1.816 1.358 0.913 2.174 2.367 3.519 3.292 0.091 0.212 0.189 0.416 0.228 0.682 0.378 0.24 0.984 0.255 0.94 0.919 0 0 0.564 0.375 1.389 0.899 0.116 0.092 0.654 0.426 0.784 0.493 2e-3 1e-3 3e-3 2e-3 5e-3 3e-3 -1e-3 -1e-3 -2e-3 -1e-3 -2e-3 -1e-3 2e-3 0 3e-3 1e-3 4e-3 2e-3 -1e-3 0-1e-3 -1e-3 -2e-3 -1e-3 1.98 1.232 4.716 2.831 5.531 2.801-0.062-0.846-4.711-2.131-4.564-3.186-0.632-0.475-1.898-1.498-2.837-2.233 0 0-1.076-0.808-1.136-0.832-0.108-1.442-1.798-1.304-2.042-2.61 0.184-0.763-2.169-2.834-2.498-2.725 0 0-2.162-3.288-2.724-3.065-0.462-0.361-0.239-1.384-0.34-1.815-0.161-0.332-0.864-0.12-0.909-0.567-0.253-1.374-1.339-1.915-1.816-3.065 5e-3 -0.107-0.808-1.588-0.875-1.665 2e-3 -0.019 0.011-0.031 0.011-0.053-0.143-1.787-2.462-2.381-2.383-4.768-0.323-0.357-0.782-0.579-1.362-0.681-0.681-1.931-2.205-3.017-3.064-4.769-0.344-0.28-0.419-0.229-0.568-0.794-1.037-2.104-2.79-3.491-3.178-6.243 0.696-0.091-1.814-1.438-1.477-2.157 0.37 0.274 0.787 0.499 1.135 0.795 0.425 9e-3 11.024 8.299 11.06 8.567 0.554 0.099 1.59 6.787 1.951 6.917 0.17 0.06 1.109 1.486 1.135 1.671 0.217 0.047 2.836 3.744 2.838 3.859 0.419 0.413 0.671 0.995 1.249 1.249 7e-3 -0.016 0.409 0.699 0.89 1.535l-0.025 0.078c-0.73 0.771-1.082 1.499-0.549 2.013 0.012-0.013 0.484-0.406 1.166-0.973l0.061 1e-3c0.264 0.444 0.51 0.845 0.688 1.104-0.198 0.187 2.297 2.177 2.31 2.258 0.812 0.04 2.596 1.945 3.698 2.082 1.011 1.564 3.642 3.97 5.047 4.654 1e-3 0.218 0.127 0.422 0.449 0.528 0.268 0.076 3.853 3.819 4.327 4.189 1.453 2.113 5.468 7.141 5.804 7.144 0.419-0.125-2.147-3.736-4.149-6.082 0.088-0.623-3.31-3.654-3.496-3.641-0.666-1.083-2.501-2.922-2.745-2.62-0.856-1.209-3.796-4.244-4.396-4.212-0.406-0.273-0.322-1.039-1.021-1.021 0 0-2.907-2.013-3.179-2.156-0.016 0.021-0.031 0.04-0.046 0.061-0.247-0.553-1.536-1.6-1.943-1.51 0.01-0.205-0.278-0.729-0.665-1.337 0 0 1.451-1.264 2.137-1.833 0 0 0.372 0.058 0.518 0.078 0.271 0.285 0.563 0.837 0.908 0.908 0.625 0.51 1.824 1.673 2.157 1.703 0.313 0.216 0.696 0.363 0.908 0.681 0.339 0.229 0.561 0.575 0.908 0.794 0.916 0.788 3.281 3.244 3.746 3.179 0.348-0.082 0.334 0.196 0.682 0.114 0.27 1.281 4.232 3.978 4.427 3.973 0.964 0.851 2.411 1.222 2.837 2.61 0.563 0.232 1.231 0.358 1.362 1.022-0.01 0.708 1.689 1.423 3.065 1.589 0.018-0.134-0.019-0.322 0.114-0.341-0.042-0.828-0.908-0.833-1.816-0.795-0.784-0.615-0.874-1.926-1.816-2.383-0.169-0.135-0.32-0.286-0.455-0.455-1.046-1.185-4.3-3.38-4.427-3.746h-0.113c-0.848-0.843-2.092-1.29-2.776-2.299-0.046-0.083-1.042-0.39-1.538-0.539-0.255-0.526-0.946-1.555-1.362-1.475-0.675-0.271-1.816-1.816-1.816-1.816-0.265-0.038-0.488-0.116-0.567-0.341-0.359-0.398-1.249-1.136-1.249-1.136-0.861-0.656-2.025-1.209-3.108-1.832 0 0 1.647-1.348 1.662-1.361 1.331 0.999 2.44 1.716 3.092 1.94 0.707 0.722 3.227 2.397 3.744 2.451 0.218 0.253 0.537 0.488 0.88 0.696-9e-3 0.013-0.019 0.022-0.027 0.035 0.189 0.109 0.42 0.226 0.664 0.319 1e-3 0 2e-3 0 2e-3 1e-3v-1e-3c1e-3 1e-3 4e-3 2e-3 7e-3 3e-3 -3e-3 -1e-3 -5e-3 -1e-3 -7e-3 -2e-3 0.383 0.196 0.729 0.358 0.924 0.475 0.196 0.41 0.435 0.777 0.794 1.021 0.14 0.163 0.39 0.216 0.681 0.228 0.598 0.218 0.938 1.228 1.93 0.681-0.363-1.112-1.369-1.581-2.383-2.043-0.075-0.415-2.22-2.218-3.286-2.174-0.224-0.452-2.248-1.606-2.779-1.533-0.151-0.129-0.746-0.606-1.178-0.742-0.53-0.417-1.332-1.076-2.294-1.884 0.629-0.364 1.278-0.707 1.478-1.499 0.319-0.136 1.683 0.246 1.59 0.567 1.196 0.733 2.905 0.954 3.519 2.271 0.358 0.056 0.401-0.205 0.794-0.114 3.35 2.137 6.75 4.224 10.557 5.903 0.306 0.413 1.135 1.135 1.135 1.135 0.014-0.251 2.822 2.14 3.632 1.703-0.062-0.657-0.805-0.634-0.794-1.362-0.366-0.025-0.48 0.2-0.908 0.113-4.104-3.085-8.436-5.942-13.281-8.286h-0.113c-0.336-0.459-0.676-0.914-1.363-1.021h-0.114c-0.723 4e-3 -1.139-0.3-1.248-0.908 0.219-0.159 0.217-0.54 0.567-0.568 2.364 0.701 5.747 0.383 7.378 1.816 1.339 0.012 1.962 0.28 3.292 0.113 0.699 0.859 8.866 1.708 10.282 1.976-0.027-0.693-7.448-1.933-7.898-2.202h-0.113c-1.88-0.513-4.526-0.4-6.356-1.021-0.856-0.291-1.565-1.07-2.725-0.908-0.507-0.137-0.996-0.291-1.702-0.227-0.166-0.176-0.581-0.101-0.908-0.114-0.021-0.168-0.274-0.104-0.455-0.113 0 0-0.78-0.204-0.794-0.567 0.211-0.016 0.38-0.075 0.455-0.228 0 0 2.186-0.349 2.61-0.341h1.022c0.538-0.083 2.11-0.01 2.568-0.184 0.1-0.018 0.494-0.064 0.61-0.042 0.337 0.155 0.999-0.402 2.384-0.114h1.93c1.235-0.062 3.555 0.645 3.519 0.908 0.576 0.029 2.271 0.567 2.271 0.567 0.814 0.731 2.378 0.483 3.746 0.681 1.196 0.174 2.645 0.904 3.178 0-0.274-1.034-1.044-0.109-1.703-0.113-0.881-5e-3 -2.055-0.733-3.179-0.908-1.569-0.242-3.135-0.168-4.2-0.908 0.505-0.504 3.065-0.112 3.065-0.112 0.997 0.069 1.313 0.872 2.497 0.453 0.802 0.03 1.493 0.172 2.157 0.341 0.267-3e-3 0.334 0.195 0.681 0.113 0.167-0.165 0.167-0.743 0-0.907-1.096 0.019-2.48-0.406-3.632-0.683-0.478 0.273-1.288 0.039-1.816 0 0 0-2.382-1.052-3.632-0.681h-0.114c-2.055-0.182-3.402-0.537-5.336-0.681-0.846-0.023-1.44-0.3-2.27-0.341 0 0-1.68-0.742-2.157-1.136h-1.702c-1.796-1.496-4.909-1.675-7.039-2.837-0.39-0.051-0.861-0.545-1.132-0.477-0.211-0.186-3.763-2.926-3.749-2.929 1.53 0.744 3.687 0.862 5.578 1.246-4e-3 -1e-3 -7e-3 -2e-3 -0.011-3e-3 5e-3 1e-3 0.01 2e-3 0.016 4e-3 -2e-3 0-3e-3 -1e-3 -4e-3 -1e-3 0.147 0.039 0.296 0.08 0.438 0.115 0.115 0.028 0.234 0.052 0.356 0.071 0.187 0.05 0.376 0.097 0.552 0.156 0.506 0.062 1.023 0.111 1.476 0.228 0.998-0.016 1.738 0.229 2.611 0.341 0 0 4.029 1.079 6.129 1.021 0.476 0.76 1.74 0.833 1.135 0.113 0.667-0.633 3.552 0.439 4.985 0.405 0.752 0.355 2.119-0.342 3.075-0.064 0.377-0.417 1.096-0.493 1.361-1.021-0.755-0.643-1.652 0.235-2.383 0.341-0.437-0.228-1.673-0.416-2.233-0.09-0.462-0.189-3.142-0.794-3.442-0.932 0 0-1.917 0.143-2.724-0.228 0 0-1.617 0.015-1.956 0.04-4e-3 -1e-3 -9e-3 -1e-3 -0.014-1e-3 -0.356-0.026-0.708-0.053-1.058-0.079-0.222-0.018-0.44-0.032-0.658-0.047-0.056-4e-3 -2.184-0.334-2.672-0.366-0.439 0.061-0.467-0.29-0.794-0.341-2.499 0.738-4.49-1.319-6.584-1.363-1.306-0.026-2.683 0.56-3.632-0.566-0.241 0.063-2.718-0.536-4.092-0.757-3.003-1.728-6.488-2.974-9.6-4.594-0.42 0.08-0.487-0.194-0.908-0.114-2.027-1.68-5.316-2.099-7.378-3.746 1.847 0.636 9.872 2.019 10.968 2.059 0.146 0.422 2.762 1.022 3.064 0.795 0.692-0.038 7.542 3.016 7.833 3.292-3e-3 0.268 2.657 0.841 3.632 0.908 0.197 0.258 3.15 0.507 3.406-0.114 0.874-0.109 3.611 1.573 3.519 0.682 0.982 0.014 7.398 1.208 7.719 1.59 1.109-0.216 4.629-0.967 4.994-0.795 0.823-0.615 3.927-1.203 4.2-1.249 0.743-0.203 1.896-1.479 1.816-2.043 0.309-0.297 0.284-2.812-1.022-2.271 0.464 2.394-2.27 3.633-2.27 3.633-0.265 0-3.919 0.419-4.201 0.567-0.403 0.025-1.667 0.527-2.724 0.341h-0.455c-0.715 0.334-5.507-0.401-7.037-0.568-0.031-0.385-0.76-0.344-0.908 0-1.306-0.018-3.987-0.846-4.541-0.567-1.17-0.796-3.563-0.849-5.108-0.908-0.485-0.271-5.232-2.92-7.774-3.764-0.104-0.1-0.716-0.309-0.928-0.298-0.574-0.177-1.062-0.307-1.4-0.365-0.061-0.516-3.396-0.224-3.859-0.682-0.092 0.022-6.093-0.938-7.335-1.376 0.438-0.017 0.524-0.385 1.021-0.341l8.46-0.72zm-2.11-8.36c0.62-0.18 0.873-0.615 1.35-1.054 0.165-0.126 0.328-0.253 0.493-0.381 0.841-0.56 1.926-0.991 2.273-1.739 2.442-1.857 4.552-3.44 5.036-3.906 1.1-0.257 1.686-1.26 2.497-2.043 0.46-0.444 1.174-0.732 1.59-1.249 0.293-0.364 0.336-0.919 0.681-1.249 0.303-0.289 0.822-0.315 1.135-0.567 0.449-0.36 0.541-0.954 0.908-1.362 0.263-0.293 0.761-0.413 1.021-0.681 0.397-0.409 0.476-1.297 1.248-1.136-0.119 2.079-0.06 4.799-1.134 6.13 0.038 0.379 0.329 0.504 0.227 1.021-0.409 1.11-1.562 1.172-2.497 1.59-1.689 0.755-7.655 4.226-7.946 4.313-0.611 0.335-1.085 0.806-1.816 1.021h-0.113c-0.868 0.267-5.724 3.357-6.129 3.405-0.645 0.651-1.96 1.205-2.838 1.249 0.9-0.85 2.37-2.06 4.02-3.35zm-35.39-63.95l0.233-0.196c1.074-0.565 1.352-2.17 2.762-1.968-0.141-0.549 0.283-0.909 0.567-0.682-0.508 1.346-1.79 1.918-2.383 3.179-1.523 0.482-4.794 5.081-6.244 5.562-0.19-1.48 3.77-4.31 5.06-5.89zm-16.87 17.02c0.079-0.087 2.719-2.902 3.482-3.653 0-3e-3 1e-3 -5e-3 1e-3 -7e-3 0.721-0.265 3.334-3.311 3.781-3.718 0.082-0.348 2.19-3.54 2.952-3.633 0.624-0.076 1.19 0.278 1.249 0.795 0.099 0.881-1.883 1.922-2.725 2.838-0.221 0.239-3.219 3.857-3.632 4.427-0.771 0.592-3.408 4.463-4.995 4.768-0.605 0.073-0.636-0.624-0.799-1.085 0.23-0.09 0.48-0.76 0.69-0.75zm-2.28 2.64c1.196-0.369 0.906-1.369 1.605 0.086 0.039 0.569-1.047 1.055-1.135 1.476-0.304 0.414-0.987 0.159-1.363 0-0.14-0.48 0.94-1.02 0.89-1.57zm-2.45-44.4c0 1e-3 -1e-3 1e-3 -1e-3 2e-3s0 3e-3 -1e-3 5e-3v-0.01zm-36.81 52.09h-0.114c-0.621 0.324-1.444 0.448-2.157 0.681-0.496-0.866-1.669-1.055-2.043-2.043 1.606-0.443 3.812-0.069 5.108 0.681 0.01 0.52-0.35 0.65-0.8 0.68zm-1.37-3.18c-1.188-0.525-2.606-0.778-3.632-1.248-0.246-0.113-0.549-0.483-0.908-0.682-1.24-0.683-2.462-0.694-2.271-2.043 2.514 0.815 4.184 2.476 7.038 2.951 0.966 0.812 3.301 0.256 3.746 1.589-1.57 1.03-2.9-0.09-3.98-0.57zm16.12-13.73c-0.745-2.092-3.04-2.635-3.746-4.768 0.986-0.317 1.946 0.262 2.498 0.795 0.24 0.232 0.909 0.446 1.135 0.681 0.193 0.2 0.067 0.43 0.227 0.682 0.199 0.312 0.631 0.37 0.908 0.681 2.139 1.377 5.095 5.358 6.811 6.471-0.074 1.247 0.983 1.362 1.135 2.384-1.74-0.89-8.56-6.76-8.96-6.92zm-5.56-2.04c0.382-0.552 0.085-1.521 1.135-1.362 0.857 0.13 3.184 3.464 4.881 5.222 0.962 0.814 2.943 2.085 3.746 2.838 1.642 1.802 4.016 2.871 5.107 5.222-1.448-0.179-1.805-1.448-3.292-1.589-1.444-2.005-4.038-2.567-6.017-3.974-0.095-0.067-1.202-0.749-1.589-1.021-0.36-0.253-1.495-1.124-1.702-1.248-0.635-0.379-1.304-0.934-1.93-1.362-0.636-0.436-1.455-0.867-1.702-1.59 0.17-0.63 0.88-0.47 1.35-1.14zm6.81 9.19c-0.669-0.088-1.163-0.351-1.362-0.908 0.85-0.09 1.25 0.26 1.36 0.91zm-11.46-2.61c-0.031-1.572 3.758 0.371 5.54 0.616 0 0 0.979 0.873 2.065 0.746-0.185 0.722-2.077 0.243-2.724 0.227-0.39 0.11-3.67-0.93-4.89-1.6zm-6.02-7.61c2.472 0.072 4.158 1.89 6.357 2.61 0.505 0.214 0.761 0.677 1.021 1.136-0.579 1.134-1.312 3.03-3.065 2.27-1.53 0.989-3.805-0.652-2.952-2.384-0.77-0.9-1.11-2.22-1.36-3.64zm12.24 7.93l-0.354-0.159c-0.988-0.875-4.104-1.642-4.621-1.863-0.462-1.189 0.799-1.512 1.589-1.816 0.577 1.05 2.289 0.966 2.724 2.157 1.39 0.168 2.373 1.326 2.724 2.157-0.62 0.28-1.36-0.52-2.06-0.48zm-14.28-10.31c-1.042-0.473-1.447-1.58-2.838-1.703-0.256-0.338-0.667-0.776-0.454-1.248 0.884 0.1 1.509 0.458 1.816 1.135 0.78 0.25 1.81 0.81 1.47 1.82zm0-3.06c0.993-0.403 1.383 0.721 2.27 0.795 0.613 1.146 2.461 1.177 3.746 1.93 0.445 0.261 1.12 1.056 1.476 1.249 1.551 0.839 4.17 1.507 3.405 3.292-2.372-0.731-3.854-2.352-6.13-3.179-0.144-0.348-0.387-0.598-0.568-0.908-1.7-0.78-3.69-1.25-4.21-3.18zm4.31 12.71c0.649-0.059 1.66 0.34 2.043 0.908-0.6 1-2.01 0.03-2.04-0.91zm0.91 2.61c2.526-0.28 5.658 0.062 7.378 1.248 1.119-0.346 1.696 0.35 2.385 0.567 0.473 0.15 1.14 0.03 1.702 0.228 0.424 0.148 2.318 0.712 2.725 0.908 0.612 0.296 2.072 1.081 2.724 1.248 0.719 0.186 1.612 0.807 1.816 1.362-2.153-0.041-11.623-2.49-11.918-2.724-2.505 0.506-2.775-0.959-5.354-0.978 0.16-1.24-1.46-0.81-1.46-1.87zm11.01 6.02l-1.816-0.618c-1.14 0.051-2.286-0.768-3.405-0.744-1.025 0.022-2.354 0.269-3.405-0.454-0.039-0.378-0.329-0.503-0.228-1.021 1.064-0.068 2.581 0.362 3.405 0.908 1.832 0.061 3.716 0.068 4.768 0.908l0.794 0.341c1.944-0.902 3.754 1.09 5.562 1.021-0.64 0.271-3.269 0.893-3.292 0.454-0.35-0.72-1.77-0.37-2.39-0.8zm1.13 1.13c-0.021 0.585-0.777 0.433-1.362 0.454h-0.114c-0.913 0.042-1.673-0.068-2.384-0.228 0.46-1.54 2.84-0.69 3.85-0.22zm-4.76-1.13c0.03 0.37-0.135 0.547-0.453 0.567h-0.114c-1.329 0.542-3.525 0.489-3.632-1.135 1.356 0.027 1.928 0.172 3.064 0.454h0.114c0.26-0.34 0.68 0.13 1.02 0.11zm-4.09 4.42c-0.585-0.16-0.961 0.215-1.477-0.228-0.02-1.29 3.328-1.951 4.541-1.93 1.074 0.02 2.308 0.377 3.065 0.681-0.142 0.526-1.436 1.436-2.157 1.816-0.327 0.174-1.457 0.681-1.816 0.682-0.69 0.01-1.39-0.81-2.14-1.02zm9.65 1.71c-0.195 0.222-0.588 0.245-1.022 0.228-0.797 0.426-2.461 0.241-3.064-0.228-1.102 0.026-1.619 0.744-2.612 0.567 0.909-1.559 2.778-1.251 4.768-1.248 1.968 2e-3 4.194-0.571 6.017-0.341-0.81 0.9-2.77 0.65-4.1 1.02zm4.88 0.79c1.008-0.912 2.632-0.743 4.201-0.908-0.97 0.91-2.96 0.76-4.2 0.91zm3.18-2.84c-0.427 0.089-0.961 0.198-1.362 0-2.447 0.217-4.732-0.106-7.151 0.113h-0.114c-0.8-0.079-1.895 0.314-2.724 0.113 0.063-0.692 0.427-1.086 1.021-1.248 0.092-0.021 0.113-0.114 0.228-0.114 1.936-0.517 4.345 0.132 6.129 0.228h1.136c1.12-0.078 2.488 0.161 3.632 0.227 0.729 0.043 1.727-0.271 2.043 0.454-0.85 0.19-1.95 0.11-2.85 0.23zm-1.36-2.72c1.063-0.974 4.411-0.945 4.881 0.567-1.67 0.28-3.27-0.43-4.88-0.57zm5.22-2.38c-0.669 0.025-1.226-0.061-1.476-0.454 0.25-0.71 1.57-0.25 1.48 0.45zm-0.8-5.23c-0.445-0.628-1.123-0.966-1.722-1.371 0.109 0.099-0.192-0.18-0.493-0.375 2e-3 1e-3 -1.421-2.551-2.552-3.135-0.066-0.918-0.831-1.137-1.135-1.816 1.371-0.301 2.029 1.065 2.724 1.816 2.028 0.695 2.956 2.492 3.746 4.427 0.275 0.709 1.045 0.923 1.136 1.816-1.03 0.58-1.23-0.67-1.72-1.36zm1.37 2.5c0.34-0.327 1.106-0.153 1.022 0.568-0.44 0.3-1.03-0.06-1.02-0.57zm1.7-2.27c-0.476 0.06-0.45-0.383-0.567-0.682 0.29-0.28 0.88 0.35 0.57 0.68zm-0.46 3.75c0.308-0.225 0.619 0.306 0.681 0.682-0.36-0.09-0.71-0.19-0.68-0.68zm1.03-2.27c-0.45-0.027-0.488-0.466-0.341-0.795 0.4-0.02 0.56 0.54 0.34 0.8zm31.32 102.65l1e-3 -7e-3v0.01zm2.63-5.07c1e-3 -7e-3 4e-3 -0.013 6e-3 -0.019 0 0.01 0 0.01-0.01 0.02zm11.68-30.95c8e-3 0.197-0.026 0.353-0.114 0.453 8e-3 0.198-0.026 0.354-0.114 0.455-0.173 0.471-0.346 0.939-0.568 1.361v0.113h-0.113c-0.26 0.763-0.473 1.571-0.795 2.271v0.114c-0.295 0.915-0.629 1.792-1.248 2.383 0.084 1.327-0.471 3.05-1.337 3.589l-0.707 2.201c0.153 0.91-0.438 1.076-0.794 1.476 0.756 1.552-1.381 1.801-0.682 2.951-0.409 0.602-0.714 1.25-1.004 1.9 1e-3 -1e-3 2e-3 -2e-3 2e-3 -4e-3 0 2e-3 -2e-3 3e-3 -2e-3 4e-3 -5e-3 0.01-0.012 0.019-0.018 0.029-4e-3 9e-3 -5e-3 0.021-8e-3 0.029-0.537 1.209-1.027 2.425-2.034 3.376-0.989-0.348-2.017-1.697-0.454-2.156 0.786-2.885 2.19-5.15 3.406-7.605l0.993-2.331c-0.271-0.404 0.296-1.096 0.482-1.529 0.549-1.278 0.963-2.241 1.136-3.291 0.496-0.186 0.806-0.555 1.135-0.908 0.215-1.86 1.088-3.3 2.042-4.881v-0.114c0.124-0.444 0.379-0.755 0.795-0.907 0.11 0.15 0.21 0.9-0.02 1.03zm1.13-2.61v0.112h-0.114c-0.018 0.134 0.021 0.322-0.113 0.341-6e-3 0.069-0.018 0.135-0.113 0.113-0.104 0.237-0.335 0.347-0.682 0.341 0.188-1.175 0.604-2.121 1.477-2.611 0.18 0.91-0.44 1.01-0.47 1.71zm0.34-4.88c0.352-0.232-1.28 1.974-1.249 2.156-0.42 0.45-1.563 2.215-1.362 2.726-0.614 0.482-1.476 2.496-1.476 2.496-0.964 0.512-2.079 4.252-2.61 4.427-0.138 0.204-0.021 0.661-0.228 0.795-0.217 0.615-1.703 5.789-1.703 5.789-0.383 0.487-0.583 1.158-1.021 1.59-0.107 1.689-3.519 8.854-3.519 8.854l-1.045-1.228c0.137-2.403-0.967-7.648-1.339-7.967v-1.15c0.051-0.102-0.442-0.694-0.567-1.136 0 0 0.602-2.047 1.022-2.497 0.296-0.044 2.011-1.28 2.157-1.476 6e-3 -0.069 0.567-1.476 0.567-1.476 0.723-1.812 2.84-2.23 3.405-4.2 0.224-0.154 0.648-0.108 0.909-0.227 1.11-1.349 2.2-2.719 3.519-3.859 0.115-0.227 0.567-0.568 0.567-0.568 0.145-6e-3 1.342-1.23 1.703-1.361 0.283 0.017 0.908-0.682 0.908-0.682 0.03-0.689 0.539-0.899 0.908-1.249 0.013-0.29 0.381-0.225 0.682-0.227-0.06 0.19-0.17 0.31-0.23 0.48zm8.18 6.69c2.059 2.218 2.549 6.002 4.314 8.514-0.132 1.087 0.532 1.288 0.227 2.27 1.238 1.902 2.578 3.704 3.859 5.562 0.333 2.998 2.646 4.014 2.951 7.038 0.737 0.62 0.396 1.147 0.795 1.93 0.656 1.284 2.318 1.427 2.725 2.725 0.131 0.421 9e-3 0.958 0.113 1.362 0.287 1.113 1.017 2.303 1.134 3.519v0.228c0.18 0.312 0.197 0.787 0.341 1.135 0.21 0.243 0.077 0.832 0.113 1.249 0.132 0.019 0.123 0.179 0.114 0.341 0.069 6e-3 0.134 0.017 0.114 0.113 0.202 0.365 0.105 1.029 0.226 1.476 0.023 0.355-0.077 0.833 0.114 1.021 0.115 0.562 0.278 1.075 0.378 1.651 3e-3 0.025 6e-3 0.051 0.01 0.076 0.029 0.175 0.054 0.353 0.067 0.543v0.34c0.122 0.777 1.044 2.56 0 3.065-0.438-2.59-1.767-4.287-2.157-6.925-0.714-0.799-1.491-1.535-1.589-2.951-0.756-0.494-1.677-0.82-1.703-2.043-1.056-4e-3 -1.509-0.61-1.59-1.59-0.434-0.023-4.164-5.437-5.899-7.5l-0.077-0.165c-0.022-0.37-0.066-0.731-0.153-1.075-0.25-0.97-1.019-1.734-1.249-2.838-0.301-1.443-0.563-2.259-0.908-3.405-0.246-0.819-0.256-1.673-0.455-2.497-0.432-1.797-1.306-3.429-1.021-5.223 1.444 1.391 1.436 4.233 2.145 6.359 0.057 0.26 0.147 0.498 0.277 0.69 0.199 0.428 0.44 0.813 0.756 1.124-0.151 1.8 1.029 3.072 1.589 4.427 0.07 0.168 0.247 0.641 0.279 0.729 0.409 1.127 0.807 2.286 1.878 2.903 0.305-1.566-1.503-2.571-1.021-4.313-0.414-0.268-0.833-0.692-1.135-1.249-0.324-0.598-0.941-1.814-1.248-2.725-0.259-0.766-0.646-1.556-0.681-2.043-0.046-0.626 0.461-1.166 0.34-1.816-0.558-0.796-0.836-1.846-0.681-3.064-1.372-3.144-3.175-6.767-3.632-10.103 0.43 0.2 0.48 0.65 0.35 1.13zm14.19-57.89v0.114c0.265 0.908 0.673 1.672 0.568 2.951v0.113c0.188 0.122 0.188 1.013 0 1.136v0.34c0.053 5.094 0.197 11.374 0 16.006v0.567c-1.342 1.683-2.428 3.623-3.632 5.443-0.04 0.039-0.084 0.076-0.114 0.119-0.127 0.184-0.242 0.374-0.352 0.566v1e-3s0 1e-3 -1e-3 1e-3c1e-3 0 1e-3 -1e-3 1e-3 -1e-3 -1.022 1.471-2.159 2.828-3.621 3.859-0.301 2.034-2.291 2.637-3.292 3.974-0.349 0.467-0.188 1.234-1.021 1.248-0.049-2.772 1.655-3.773 1.59-3.973 0.549-0.84 0.105-1.963 2.043-2.611 0.661-2.214 2.14-3.61 3.064-5.562 0.22-0.991 0.628-1.794 1.363-2.27 0.15-1.249 0.641-2.159 0.908-3.292v-0.114c-9e-3 -0.766 0.367-1.146 0.567-1.702 0.263-0.252-0.038-0.442 0-0.795 0.089-0.024 0.132-0.095 0.114-0.227 0.016-0.212 0.075-0.38 0.227-0.454 0.445-0.029 1.039-1.574 1.022-2.611v-0.113c-0.179-1.22-0.324-3.271-0.228-5.335 0.075-1.612 0.351-3.44 0.228-4.654-0.059-0.58-1.28-4.181-0.114-4.313 1.04-0.15 0.25 1.52 0.67 1.56zm-0.57-3.9s0-1e-3 -1e-3 -3e-3zm-1.36-0.41c0.232-3.146 1.875 0.971 1.022 1.93-0.927-0.019-0.742-1.149-1.022-1.815v-0.11zm-0.23 7.38c0.639 1.933 0.265 5.486 0.34 7.605v0.113c0.095 2.214-0.448 3.79-0.908 5.448v0.228c-6e-3 0.75-0.296 1.217-0.454 1.816 9e-3 0.161 0.019 0.321-0.114 0.34-0.44 1.149-0.845 2.334-1.589 3.179 0.048 0.957-0.554 1.263-0.568 2.157-1.536 1.718-2.209 4.3-3.973 5.789 0.354-1.996 1.888-3.785 2.724-5.676v-0.113c1.196-2.627 2.288-5.356 3.292-8.173v-0.228c0.05-0.669 0.294-1.144 0.454-1.702 0.031-0.386-0.088-0.921 0.113-1.136 0.167-1.837-0.027-4.056 0.114-5.902 0.11-1.33-0.44-3.12 0.58-3.76zm-6.8 22.49c0.056-0.727 0.289-1.378 0.587-2.007 0.035-0.072 0.062-0.128 0.104-0.213 0.557-1.113 1.285-2.173 1.568-3.473 0.784-0.654 1.199-1.677 1.704-2.61 0.861 0.749-0.353 1.14-0.682 1.702-0.441 0.758-0.204 1.874-0.908 2.157-0.609 1.647-1.018 3.495-2.237 4.535l-0.146 0.346c-0.352 1.503-1.282 2.427-1.93 3.633 0.035 0.564-0.155 0.903-0.794 0.794-0.06-1.442 1.458-2.234 1.703-3.746 0.462-0.034 0.407-0.586 0.815-0.674l0.22-0.45zm6.12-26.01v0.341c-0.033 0.95 2e-3 1.97-0.908 2.043-0.056-0.976-0.181-2.972 0.568-3.519 0.55-0.06 0.27 0.71 0.34 1.14zm-1.25-1.59c-0.242-0.704-0.542-1.35-0.568-2.271 0.112-0.304 0.715-0.117 0.908-0.34 0.88 0.44 0.28 2.28-0.34 2.61zm-0.34-9.2c0.331 0.199 0.433 0.627 0.455 1.135v0.113h0.113v0.114c0.129 1.233 0.584 2.14 0.568 3.519v0.113c0.03 0.146 0.053 0.295 0.074 0.444v-1e-3c0.021 0.145 0.037 0.289 0.05 0.437-0.036 0.25-0.162 0.482-0.351 0.482-0.407-0.538-1.48-0.411-1.816-1.021-0.162-0.151-0.162-0.644 0-0.795 0.376-0.796 0.492-1.854 0.681-2.838v-0.681c0.02-0.41-0.05-0.89 0.24-1.02zm-4.54 3.52c-0.028-1.031-1.333-0.785-2.157-1.021-0.089-0.834 0.505-1.861 0.341-2.838 1.627-0.688 4.074-0.876 5.676-0.681 0.122 0.803-0.438 0.924-0.682 1.362 0.172 0.745 0.037 1.542-0.34 2.043-0.626-0.042-1.034-0.201-1.362 0.227 0.323 0.548 0.954 0.787 0.908 1.703 0.219 0.189 0.145 1.047 0 1.248-0.754 0.187-1.033-0.579-0.794-1.021 0.018-0.281-0.059-0.471-0.228-0.567-0.661-0.019-0.273 1.014-0.681 1.249-1.15-0.112-2.081-0.336-3.292-0.113-0.22-0.276-0.11-0.95 0-1.249 0.6-0.9 2.03 0.04 2.6-0.34zm-2.61-3.74c0.064 0.558-0.097 2.59-0.517 2.662-0.103-0.2-0.469-1.941-0.504-2.208 0.04-0.49 0.59-0.66 1.02-0.45zm-1.36 5.45c-0.671-0.011-1.031-0.331-1.816-0.228-0.21-0.2-0.478 0.031-1.021 0.228-0.522-0.197-0.401-1.036-0.567-1.59 1.53-0.18 4.93-0.94 3.41 1.59zm-1.48 8.96c-0.726-0.221-0.368-1.524-0.455-2.384v-0.114c-0.66-1.27-0.453-3.407-1.021-4.768 0.799-0.207 2.319-0.7 3.065-0.227-0.154 1.29-0.916 2.938-1.021 4.654v0.113c-0.29 0.81 0.26 2.45-0.56 2.73zm-2.27-13.51c1.48-0.161 2.392-0.943 3.859-0.567-0.537 0.591 0.168 1.742-0.227 2.497-0.341 0.259-0.974 0.05-1.362 0h-0.114c-0.577 0.06-1.509 0.265-2.043 0-0.13-0.55-0.28-1.42-0.12-1.93zm-1.36 0.35c0.412 0.036 0.544 0.279 0.568 0.908v0.227c-0.31 2.11-2.23-1.29-0.57-1.14zm1.02 4.2c-0.178 0.29-1.047 0.317-1.362 0.113 0.068-0.688 0.024-1.489 0.454-1.816 0.79 0.09 0.65 1.1 0.91 1.71zm-1.59 25.2c0.284-0.419 0.559-0.671 0.341-0.795-0.47-2.149-0.179-4.507-0.228-6.924v-0.114c-0.298-1.274 0.17-2.501 0-3.632-0.173-1.153 0.454-2.07 0.454-2.952 0-0.586-0.463-0.965-0.34-1.476 0.609-0.322 1.91 0.416 2.383-0.113-0.665-0.566-1.583-1.096-2.383-0.908-0.381-2.099-0.178-4.535 0-6.47 0.389-0.179 1.237-0.376 1.703-0.114 0.183 1.646 0.879 3.474 1.207 5.303-0.048-0.344 0.113 0.544 0.042 0.226 0.051 0.314 0.092 0.629 0.114 0.942 0.02 0.285-0.148 0.628-0.113 0.908 0.231 1.886 1.529 4.385-0.228 5.902 0.554 1.147-0.256 2.589-0.455 4.2-0.051 0.42 8e-3 0.756-0.026 1.439 0.012-0.059 0.024-0.116 0.036-0.174-4e-3 0.031-2e-3 0.066-0.01 0.097-5e-3 0.026-0.017 0.052-0.026 0.077-0.114 0.312-0.452 0.595-0.541 0.944-0.213 0.832 0.056 1.833-0.114 2.611-0.124 0.569-0.63 0.843-0.341 1.702-0.064 0.276-0.097 0.584-0.454 0.567 0.142 0.433 0.439 1.245 0 1.59 0 0 0.333 2.385-0.114 2.724-0.419-0.28-1.249-3.632-1.249-3.632 0.03-0.76 0.5-1.05 0.35-1.95zm-0.91-17.26c-0.403-5e-3 -1.368 0.137-1.816 0-0.125-1.885-0.856-4.694 0.114-6.016 0.797 0.342 1.272-0.262 1.816-0.113 0.41 1.86 0 4.06-0.11 6.13zm-2.04-9.42c0.46-0.073 1.335-0.326 1.589-0.228 0.633 0.111 0.506 1.505 0.455 1.93-0.623 0.081-1.076 0.073-1.816 0.228-0.4-0.32-0.17-1.27-0.23-1.93zm-0.17-1.65c0.012-0.138 0.028-0.27 0.053-0.394-0.024 0.123-0.042 0.254-0.053 0.392 0.014-0.054 0.025-0.106 0.053-0.164 0.893 0.15 1.253-0.547 2.157-0.682 0.487 0.585 0.06 1.554-0.567 1.703-0.541-0.205-0.92-0.473-1.476-0.113-0.087-0.128-0.151-0.258-0.182-0.395 2e-3 -0.119 6e-3 -0.238 0.016-0.35v-0.01zm0.09 2.38c-0.057-0.726-0.119-1.419-0.106-2.019-0.01 0.6 0.06 1.29 0.11 2.02zm-0.03 27.88c0.042-0.374 0.265-0.567 0.455-0.795-0.488-1.467-0.046-3.779-0.114-5.222v-0.908c-0.262-0.418-0.04-1.322-0.113-1.93v-0.113c-0.301-2.464-0.026-5.346 0.113-7.719-0.273-0.675-0.48-1.487 0.114-1.93 0.796 0.3 1.632 0.562 2.043 1.248-0.471 1.249 0.08 9.55-0.227 12.373v0.341c0.157 2.217-0.301 4.583 0.113 6.356 0.262 0.5 0.177 0.744 0.114 1.249-0.065 0.881 0.137 2.029-0.114 2.725-1.213-0.517-0.392-2.481-0.568-3.746-0.475-3.422-0.2-8.509-0.34-11.919-0.894 0.204-0.162 2.033-0.568 2.725v1.476c-0.149 1.233 0.242 3.474-0.227 4.881 0.53 1.165 0.385 3.508 0.227 4.995 0.674 1.042 0.863 3.008 0.341 4.312-0.837-1.963-0.574-5.026-1.362-7.037 0.08-0.47 0.28-0.99 0.12-1.37zm1.58 10.44c-0.294-0.086-0.464-0.638-0.227-0.908 0.45-0.07 0.14 0.62 0.23 0.91zm-2.04-3.52c-0.994-0.475-0.781-1.708-1.021-2.724-0.381-1.613-1.21-3.217-1.249-4.995-0.095-0.132-0.149-0.305-0.114-0.567-0.281-0.18-0.046-0.794 0-1.021 0.86 0.011 1.183 0.559 1.249 1.362 0.323 0.26 0.327 0.97 0.228 1.361 0.75 1.64 1.25 4.6 0.9 6.59zm-1.93 7.26h0.34c0.163 0.151 0.163 0.643 0 0.794-0.42 0.05-0.58-0.51-0.34-0.79zm1.48-16.57c-0.843-0.262-0.838-1.062-1.93-0.567-0.207-0.915-0.604-2.033-0.454-2.952-0.651-0.806-0.534-2.068-1.021-3.519-0.385-1.144-1.229-1.598-0.794-2.951-0.455-0.475-0.377-1.023-0.568-2.043-0.187-1-0.949-1.697-1.021-2.611 1.238-0.469 3.824 0.146 4.768 0.341 0.247 0.019 0.052-0.403 0.114-0.567-1.432-0.843-3.168-0.604-4.768-0.454-0.322-0.281-0.465-0.889-0.114-1.249 1.377 0.214 3.716 0.38 5.449 0.341 0.116 0.182 0.256 0.339 0.395 0.498 3e-3 0.016 6e-3 0.031 8e-3 0.047 0.014 0.066 0.026 0.135 0.038 0.203-0.38 4.22 0.65 10.4-0.12 15.48zm-3.86 13.62c0.939 0.309 0.824 1.673 1.59 2.156-0.26 0.66-2.12-1.07-1.59-2.16zm-6.02-11.12c0.653-0.177 0.519 0.617 1.022 0.908 0.62 0.359 1.689 0.223 1.589 1.362 0.634 0.235 1.539 0.201 1.589 1.021-0.025 0.429 0.692 1.109 1.172 1.874-0.474 0.059 0.725 4.992 0.473 4.829-0.239 0.441-2.029-4.477-2.78-4.547-0.271-0.296-0.717-1.855-1.021-2.043-0.434 0.218-0.944 0.299-1.363 0-0.264-0.604-0.456-1.813-0.908-2.043 0 0-2.757-1.217-3.065-1.703-0.765-0.218-1.297-0.67-1.589-1.361-0.374-5e-3 -0.565-0.192-1.021-0.114-0.48-0.995-1.862-1.089-2.271-2.156-0.368 0.065-0.527-0.078-0.794-0.113-0.696-1.84-4.001-1.069-4.2-3.406 2.051 0.711 3.782 1.742 5.221 3.065l1.476 0.908c0.826 0.195 2.708 0.857 3.014 1.196 1.188-0.206 1.25 1.501 2.435 1.301l1.01 1.02zm-6.92-4.77c-1.029-1.09-2.214-2.023-3.519-2.838-2.023 0.244-2.515-1.043-3.406-1.93-0.568-0.076-0.878 0.105-1.362 0.113-0.091-0.476-0.265-0.87-0.568-1.135-0.365-0.025-0.48 0.2-0.908 0.113-0.082-0.335-0.129-0.703-0.34-0.908-1.489-0.479-2.487-1.448-4.086-1.816-0.548-1.306-2.777-0.932-3.065-2.497 0.717-0.343 1.165 0.477 1.477 0.908 2.971 0.321 4.403 2.181 7.492 2.384 0.792 0.363 1.582 1.136 2.497 1.021 0.805 1.429 3.809 0.656 4.427 2.271 1.473-1.043 2.358 0.904 4.314 0.454 0.338 0.229 0.56 0.575 0.908 0.794 0.987-0.079 1.459 0.356 1.93 0.795 1.352-0.027 1.9 0.748 2.497 1.476h0.908c0.712 0.723 2.107 1.882 1.022 3.065 0.854 1.247-0.276 2.446 0.681 3.859-0.277 0.063-0.241 0.439-0.681 0.341-0.379-0.265-0.408-0.879-0.681-1.249-0.512-0.283-1.233-0.355-1.363-1.021-1.3 0.089-1.517-0.904-1.93-1.703-0.714 0.269-1.805-1.352-2.838-1.135-0.821-0.654-1.48-1.472-2.951-1.476l-0.45 0.14zm-10.29-4.54c-1.197 0.045-5.437-2.633-5.223-3.306 0 0 5.337 2.166 5.391 2.521l0.021 0.238c0.237 0.349 3.673 2.492 3.446 2.733-0.1 1.08-3.62-2.18-3.64-2.18zm16.85-14.73c-2.049 0.079-5.299 1.398-5.991 1.498 0.093 4e-3 -0.905 0.125-1.106 0.158l-3.229 0.394c-0.688 1.283-6.147 0.336-8.609 0.877h-0.454c-0.532 0.187-1.039 0.398-1.817 0.34h-0.227c-0.729 0.188-1.925 0.356-2.724 0.114 0.603-0.873 2.156-0.796 3.405-1.022h0.113c0.194-0.26 0.867-0.041 1.249-0.113h0.113c2.083-0.524 5.075 0.236 6.017-1.589 0.518-0.277 1.261-0.329 1.93-0.454l1.363 0.113c0.186-0.532 0.747-0.69 1.362-0.794 0.68-0.38 1.82-0.3 2.61-0.568 0.809-0.143 3.623-1.503 4.546-1.17-0.07 0.51 0.74 1.97 1.45 2.21zm-22.68 4.63h0.113c2.343-0.336 4.546 0.41 6.811 0.454 1.314 0.026 2.548-0.255 3.86-0.227 1.511 0.032 3.148 0.219 4.768 0.227 0.54 3e-3 1.144-0.353 1.703-0.341 0.39 9e-3 0.824 0.289 1.248 0.341 1.653 0.203 3.391-0.78 4.655 0 0.669-0.534 2.402-0.338 2.156 0.567-0.345 0.836-1.86 0.352-2.497 0-3.652-0.021-6.908 0.113-10.33 0.228-1.445 0.048-2.723 0.382-4.086 0.227-0.481-0.055-0.966-0.33-1.476-0.34-0.964-0.02-1.993 0.553-2.951 0.113-0.734-0.023-1.414-0.101-2.043-0.228-1.797-0.057-3.827 0.118-4.995-0.567 0.3-0.87 2.07-0.28 3.07-0.45zm28.15 9.19c0.142 0.426 0.37 1.064 0.37 1.064s0.071 0.199 0.1 0.314c0.028 0.115 0.092 0.444 0.099 0.777-0.15 0.425 0.338 0.785 0 1.021-0.885 0.083-1.278-1.036-1.59-1.589-0.384-0.682-1.008-0.799-1.248-1.589-0.089-0.29 0.024-0.675-0.114-1.022-0.291-0.735-1.2-1.398-1.249-2.043-0.027-0.375 0.345-1.062 0.568-1.248 0.287 0.355 0.438 0.848 0.794 1.135 0.984-0.077 1.361 0.452 1.587 1.134-5e-3 -0.037 0.061 0.273 0.134 0.431-7e-3 -0.017-0.017-0.031-0.024-0.049 0.15 0.61 0.31 1.37 0.57 1.68zm1.82 19.19c-0.024-0.131-0.01-0.299-8e-3 -0.455h0.341c-0.038 0.238 0.086 0.356 0.097 0.479l0.085 0.268c0.553 0.797 1.285 3.05 1.181 3.453-0.414 0.029-1.346-2.43-1.553-3.367l-0.15-0.37zm-1.14-12.26c0.868 0.063 0.264 0.996 0.908 1.362 0.026 2.206 0.725 3.741 0.908 5.789-1.65-1.62-1.16-4.97-1.82-7.15zm0.11-1.36c-0.295-0.347-0.417-0.869-0.681-1.248 0.013-0.29 0.208-0.397 0.341-0.567 0.71-0.01 0.73 1.43 0.34 1.82zm-1.16 5.65c-0.199-0.13-0.786-3.333-0.762-3.612 0.211-0.498 1.269-0.437 1.363 0.114 0.019 0.354 0.294 3.537 0.067 3.607l0.561 0.66v0.795c-0.132-0.019-0.202 0.024-0.227 0.113-0.569-0.026-0.635-0.681-0.418-0.977l-0.58-0.7zm-19.04-15.3c-0.904 0.232-1.946-0.365-2.838-0.681-0.852-0.302-2.12-0.482-2.271-1.477 0.595-0.207 1.188 0.335 1.93 0.568 1.33 0.42 2.88 0.25 3.18 1.59zm8.89-0.94c1.574-0.444 4.183 0.214 5.186 0.94 0.143 1.56 0.656 2.75 1.589 3.519-0.209 0.68 0.141 0.649 0.113 1.362-0.091 0.098-0.31 0.067-0.341 0.228-1.055-0.193-1.261-1.236-2.724-1.021-0.275-0.216-2.934-1.837-3.064-1.476-0.769 0.188-1.282-0.521-2.271-0.454-0.365-0.378-1.442-0.487-1.93-0.454-1.658 0.112-3.035-1.429-4.54-1.703 1.759-1.626 4.4 0.882 6.129 0.341 1.048 0.92 3.63 0.306 4.542 1.362 0.583-0.638 1.64 0.677 2.156-0.228-0.173-0.687-1.241-0.802-1.816-0.454-0.662-0.76-1.956-0.889-2.953-1.313l-0.821-0.231c-2.569-0.187-7.469-0.881-8.258-1.634 1.458-0.144 6.188 0.438 8.329 1.21l0.66-0.01zm-1.06-1.9c0.978-0.276 9.296-0.606 8.867 0.826-1.28 0.32-8.32-0.05-8.87-0.83zm8.76 10.32c-1.743 0.191-6.971-2.914-7.691-3.744 1.47-0.21 7.94 2.11 7.69 3.74zm-22.38-9.53c-0.393 0.09-0.479-0.127-0.681-0.228 0.12-0.25 0.76-0.08 0.68 0.23zm-1.25-0.56c-0.071 0.242-0.698 0.105-0.794 0 0.13-0.31 0.59 0 0.79 0zm31.43-5.72v-2e-3c9e-3 0.423 0.035 0.844 0.059 1.246-8e-3 -0.125-0.015-0.251-0.022-0.38 6e-3 0.393-1e-3 0.771-0.024 1.109-0.045 0.673-0.246 1.191-0.567 1.476-0.966-1.002-3.042 0.608-3.859-0.795-0.413 0.083-1.124 0.46-1.363 0.341-0.557-0.805-1.301-1.423-1.475-2.611-0.173-0.196-0.319-0.824-0.038-1.377 0.589-0.471 0.733 0.181 1.06-0.553 0.58-0.125 4.466-0.045 5.789-0.908 0.22 0.53 0.37 1.47 0.43 2.45zm-0.44-5.98c0.306 0.426 0.19 1.77-0.113 2.271-2.283-0.132-4.623 0.575-6.924 0.794-0.304-0.415-0.732-0.706-0.681-1.476 2.52-0.48 5.46-1.18 7.71-1.58zm-7.95 8.97c-2.08 0.122-5.205-0.244-7.265 0.113-2.022-0.872-5.074-0.421-7.039 0-2.453-0.378-5.219-0.354-7.833-0.227 0.285-0.466 0.95-0.508 1.363-0.568 1.426-0.208 2.949-0.328 4.54-0.454 0.948-0.075 1.947 0.295 2.952 0.228 0.436-0.029 0.739-0.322 1.249-0.454 1.023-0.266 2.361-0.197 3.292-0.454 1.142-0.315 2.112-1.079 3.065-1.249 0.682-0.121 1.46 0.036 2.27-0.113 0.917-0.169 1.642-0.656 2.157-0.454 0.796 0.312 0.813 1.716 0.908 2.384 0.01 0.49 0.72 0.74 0.35 1.24zm-0.56-5.79c-0.755 0.108-1.462-0.652-1.291-1.185 0.034-0.106 0.67-0.213 0.724-0.292 0.73-0.1 0.81 0.95 0.57 1.47zm-22.14-0.22c0.869-0.438 1.54-1.911 3.108-1.431 0.078 1.138-1.566 1.119-1.972 1.771-1.134-0.188-3.033 1.205-4.067 1.116-0.01-0.7 2.38-1.19 2.93-1.46zm-4.54 2.72c0.697-0.399 3.002-0.514 3.405-0.795 1.817 1e-3 2.481-1.151 4.087-1.362 0.498-0.6 1.448-0.791 1.634-1.702-0.183-0.423 4.18-0.404 3.928-0.567 0.513-0.943 4.81-2.135 5.473-2.671l1.565-0.508c1.275-0.73 3.033-0.979 4.314-1.703 0.809-0.116 0.378 0.732 0.681 1.476 0.322 0.789 1.502 1.232 0.568 2.157h-0.795c-0.526-0.532-0.444-1.675-1.134-2.043-0.69 0.313-0.342 1.241-0.228 1.93-0.331 0.112 0.764 1.546-1.021 1.362-2.39-0.265-3.728 1.643-5.79 1.589 0 0-2.199 0.452-2.724 0.567-1.478 0.323-2.562 1.294-4.314 1.021-0.713 0.838-2.45 0.652-3.405 1.249-0.304 0.112-0.599 0.233-1.021 0.227-1.825 0.146-3.629 0.483-5.903 0.454-0.03-0.48 0.2-0.71 0.67-0.69zm-2.04 0.79c0.132 0.018 0.202-0.025 0.227-0.114 0.149 0.04 0.178 0.2 0.34 0.228-0.017 0.248-0.286 0.243-0.567 0.227v-0.35zm0.11 7.16c-0.701 0.02-0.892-0.471-1.021-1.022 0.61-0.4 1.42 0.41 1.02 1.02zm-1.25-10.9c0.236 0.066 0.387 0.218 0.455 0.454-0.048 0.406-0.362 0.546-0.795 0.567-0.27-0.37 0.12-0.81 0.35-1.02zm-1.81 0.34c0.08 0.459-0.109 0.648-0.567 0.568-0.08-0.46 0.11-0.65 0.57-0.57zm-1.48-0.57c-0.8-2.33 2.13-0.27 0 0zm-3.97-5.56c0.244 0.097 0.401 0.28 0.34 0.682-0.47 0.11-0.54-0.47-0.34-0.68zm-0.23 5.33v-0.682c0.39 0.05 0.636-0.045 0.908-0.113-0.068-0.674 0.136-1.075 0.794-1.021 0.215 0.71 0.786 1.612 0.568 2.384-0.492 0-0.199-0.784-0.455-1.021-0.381-0.042-0.189 0.491-0.341 0.681-0.55-0.02-0.96-0.17-1.48-0.23zm-13.97 50.34zm-0.1 0.2zm49.23-19.54c-0.779-0.689-2.161-2.13-2.354-2.163-0.063-0.104-0.497-0.456-0.524-0.543l-1.292-0.365c-1.039-0.436-1.694-1.256-2.383-2.043l-0.114-0.227c-0.455-0.02-0.721-0.203-0.826-0.408l-0.537-0.5c-1.666-0.227-4.176-2.104-4.086-2.497-1.529-0.364-2.35-1.435-3.406-2.271-1.084-0.013-2.61-1.816-2.61-1.816-0.268-0.017-0.441-0.127-0.52-0.331l-2.318-1.599c-1.339-0.576-2.027-1.524-3.179-2.043l-0.545-0.518c-0.161-0.014-0.591-0.638-0.819-0.68l-0.324-0.725c0.302-0.27 0.073-1.045 0.158-0.749l1.498 1.104c0.62-0.383 1.119 1.469 1.737 1.453 0.015 1.044 1.201 0.917 1.437 1.74l2.564 1.668c0.159-0.021 0.337 0.017 0.425 0.111l0.758 0.632c0.654-0.245 3.504 1.916 3.896 2.546 0.954 0.236 6.855 3.552 7.117 3.713l3.449 2.917c0.69 0.275 1.638 0.535 1.581 1.203-0.077 0.098 1.14 1.74 1.582 2.438l0.154 0.085c0.597 0.116 1.27 0.835 1.783 1.108-0.063 0.187 0.167 0.655 0.455 0.682 0.47 0.513 0.394 1.573 0.567 2.384 0.586-0.056 0.943 0.116 0.908 0.681-0.388 0.363 0.408 0.773 1.135 1.136 0.215 0.611 0.999 2.108 0.908 1.815 1.848 0.406 3.38 4.528 3.292 5.562-0.163 0.027 0.916 1.538 0.681 1.816-0.689-8e-3 -1.453-0.091-1.703 0.341 0.386 0.686 1.702 1.005 1.362 2.043-1.644-0.211-2.149-1.558-3.972-1.589-9e-3 8e-3 -0.015 0.019-0.023 0.026-0.18-1.02-5.873-6.458-6.542-7.043-0.461-0.045-0.791 0.041-0.794 0.454 0.874 1.812 3.72 4.187 3.859 4.313 0.412 0.458 3.226 3.232 3.16 3.497 1.16 0.846 2.869 1.141 4.087 1.93-1.296 0.712-2.409-0.562-3.746-0.681-1.136-0.102-2.232-0.082-3.406-0.113-0.312-0.578-1.61-0.873-1.702 0.113 0.813 0.807 3.79-0.462 4.54 1.136-3.571 0.188-7.275 0.057-10.443 0.453h-0.227c-1.711 0.144-9.062-0.121-9.535 0.113h-1.703c-0.347-0.082-1.93 0.114-1.93 0.114s-4.722 0.038-4.881 0.227c-0.32-0.094-1.816 0.227-1.816 0.227-1.178-0.091-3.177 0-3.177 0-0.692-0.407-4.301 0.694-5.903 0.682 0 0.038-6.299 1.022-8.4 1.248-2.101 0.227-4.654 0.796-4.654 0.796-0.938-0.03-2.61 0.567-2.61 0.567-0.336-0.018-0.802 0.329-0.908-0.114 2.406-4.49 3.272-7.474 3.405-7.832 0.184-0.535 1.086-2.465 1.362-3.064 6e-3 -0.146 0.582-1.122 0.682-1.477 0.14-0.238 0.6-0.838 0.567-1.021 0.01-0.17 4.116-9.147 4.654-10.783 0.056-0.358 3.195-9.557 3.292-9.536 1.068-2.337 1.993-4.817 2.952-7.265 0.018-0.133-0.02-0.322 0.113-0.34v-0.114h0.113c0.277-1.388 1.179-2.151 1.59-3.405 0.062-0.165-0.133-0.587 0.114-0.567v-0.113c0.147-0.761 0.76-1.056 0.908-1.816-0.211-0.018-0.07-0.385-0.228-0.454 0.202 0.101 0.288 0.316 0.681 0.227 0.195-0.184-0.534 1.114 0.113 2.271 0.895 0.278 1.23 1.115 1.476 2.044 0.391 0.214 1.059 0.152 1.135 0.681 0.363-0.229 0.89 0.626 1.362 0.567 0.995 0.291 1.959 2.331 2.27 1.816 1.405 0.223 1.602 1.652 3.065 1.816 0.755 1.325 2.792 1.371 3.406 2.838 2.227 0.421 3.168 2.128 5.107 2.838 0.188 0.53 0.49 0.948 1.022 1.135 0.013 0.218 6.334 3.58 8.286 6.243-0.166 0.165 0.667 0.591 1.249 0.682 0.625 1.267 2.145 1.639 2.611 3.064 0.113 0.364-0.281 0.917 0.227 1.249 0.265-0.038 0.486-1.026 0.584-1.578 0 0-0.92-1.485-1.271-1.951l-0.03-0.23zm11.5 13.05h-0.568c-0.154-0.792-0.82-1.072-0.794-2.043 1.103-0.259 1.184 0.948 1.589 1.702-0.11 0.08-0.18 0.2-0.23 0.34zm-0.12-10.45c0.798 0.498 0.948 2.218 0.681 3.405 0.409 0.553 0.799 1.677 0.454 2.611-0.31-1.93-1.57-4.08-1.13-6.02zm1.36 7.27c0.322 0.117 0.619 0.661 0.341 1.022-0.32-0.12-0.62-0.66-0.34-1.02zm1.25 35.87c0.014 2.022-0.492 3.871-0.567 5.676-0.039 0.915 0.504 1.886-0.341 2.61-1.253-0.184-0.315-2.56-1.135-3.178 0.249-4.61 0.629-10.743 1.135-14.984 0.147-1.228-0.227-2.132 0.681-2.497h0.228c0.096 1.271 0.667 2.696 0.567 4.086-0.032 0.449-0.265 0.783-0.34 1.249-0.34 2.12-0.24 4.88-0.23 7.03zm1.14 10.9c0.609 1.283 0.909 3.479 0.908 4.994-0.496 0.018-0.639-0.755-0.794-1.135-0.971-2.363-0.833-5.792-0.568-8.968 0.746 0.502 0.393 1.641 0.455 2.497 0.05 0.91 0.53 1.86-0.01 2.62zm0.22-46.89c-0.368-0.79-0.322-2.166-0.113-2.951 0.46 0.56 0.2 2.2 0.11 2.95zm-0.35-5.96c-0.251-0.556 0.251-1.215 0.357-1.755 0.19-0.972-0.443-2.197 0.227-2.951 1.028 0.88 0.45 4.146-0.227 5.108l-8e-3 0.358c0.121 0.395-0.025 1.135-0.105 1.344-0.43-0.16-0.24-2.1-0.24-2.1zm3.83-15.54c-0.731 1.405-1.304 8.332-1.546 8.907-0.697-0.681-0.295-2.846 0.112-3.519 0.321-3.54 0.916-6.805 1.59-9.989 1.214 0.925-0.201 2.496-0.081 4.256l-0.07 0.34zm4.91-1.66c0.366-0.761 0.554-2.227 0.472-2.718 1.469-3.844 1.796-8.244 2.952-12.486-0.021-0.097 0.044-0.107 0.114-0.114v-0.567c-0.011-0.486-0.258-0.861 0.113-1.135 0.88-0.041 0.654 0.828 0.795 1.476 0.398 1.832 1.161 3.209 0.113 5.222-0.149 0.286-0.519 0.485-0.681 0.795-0.285 0.544-0.368 1.35-0.568 2.043-0.193 0.671-0.556 1.201-0.794 1.816-0.658 1.7-0.826 3.644-1.816 4.881 0.13 0.469 0.168 0.932-0.228 1.135-0.336 0.218-0.362 0-0.477-0.173l0.02-0.19zm-2.14 2.05c0.06-1.453 0.61-2.417 1.021-3.519-0.382-1.856 0.53-3.303 0.794-4.882-0.036-0.263 0.019-0.436 0.114-0.567 0.142-0.538 0.084-1.277 0.341-1.702 0.224-0.079-0.028-0.634 0.227-0.682v-0.795c0.291-1.525 0.644-2.988 1.135-4.313-0.036-0.263 0.019-0.436 0.114-0.567-0.031-0.598 0.472-1.141 0.113-1.702-0.646 0.035-0.775 0.587-0.794 1.248h-0.113v0.113c-0.275 1.353-0.597 2.658-1.022 3.86v0.113c-0.195 1.243-0.241 2.635-0.908 3.405 0.329 0.988-2.376 10.503-2.951 13.054-0.227 1.004 0.019 2.01-0.681 2.725 0.094 1.137 0.035 2.945-0.682 3.633 0.025 1.88-0.378 3.43-0.454 5.222-0.052 1.206-0.615 2.778-0.908 4.086-0.287 1.279 0.134 2.764-0.794 3.633-0.098-1.973 0.019-3.932 0.34-5.448v-0.114c0.056-0.775 0.218-1.446 0.341-2.156v-0.228c0.132-1.666 0.456-5.259 0.794-5.108-0.074-0.989 1.62-7.575 1.525-9.534l0.059-0.441c0.491-1.218 0.422-2.996 1.027-4.1-0.836-1.262-0.03-3.393-0.567-5.108 0.66-0.892 0.347-2.755 0.681-3.973 0.186-0.572 0.131-1.383 0.341-1.93-0.199-1.523 1.107-1.89 0.794-3.179 1.541-0.865 4.163-0.502 5.562 0-0.686 1.66-0.893 3.799-1.475 5.562v0.113c-0.324 2.977-1.502 5.675-1.59 8.514-0.402 0.445-1.226 1.907-0.962 2.716l0.045 0.315c-0.664 0.895-0.677 6.249-2.374 8.32-0.25 1.374 0.02 2.853-1.021 3.632-1.05-1.209 0.8-3.121 0.455-4.768v-0.113c-0.041-0.721 0.464-0.897 0.681-1.362-0.03-0.74 0.8-3.96 0.8-3.96zm-2.05 11.13c-0.132 1.237-0.675 3.027-1.135 4.313-0.17-1.048 0.465-3.237 0.908-4.427 0.13-0.02 0.2 0.03 0.22 0.12zm-1.81 12.82c-0.365-1.482 0.416-3.228 0.908-4.994 0.284-1.016 0.938-2.029 1.135-2.951 0.065-0.302-0.097-0.71 0-1.022 0.145-0.466 0.737-1.214 0.461-2.233l3e-3 -9e-3c6e-3 -0.015 0.01-0.028 0.016-0.042l2e-3 -4e-3c0.378-0.246 0.899-1.024 1.221-0.322 0.181-0.711-0.463-0.596-0.341-1.249-0.045-0.575 0.397-0.663 0.568-1.021-0.714-1.58 0.428-3.075 1.135-3.973-0.656-2.009 0.84-2.669 0.681-4.541 1.294-0.749 0.829-3.258 2.157-3.973-0.016-0.4-0.325-0.508-0.341-0.908 0.078-0.451 0.499-0.561 0.681-0.908 0.051-1.425 0.755-2.197 0.908-3.519 1.283-1.177 0.784-4.136 2.384-4.995 0.792 3.359 0.551 8.532-0.455 11.465-0.08 0.496 0.193 0.64 0.114 1.136-1.056 0.926-1.165 3.011-2.043 4.313-0.385 0.572-1.112 0.673-1.022 1.816-0.312 0.217-0.555 0.503-0.908 0.681-0.507 2.406-1.315 4.513-2.952 5.789 0.382 1.184-0.559 1.803-0.454 3.065-1.77 2.3-2.25 5.91-3.86 8.38zm43.08 29.04c2e-3 0 2e-3 1e-3 3e-3 1e-3zm-21.25 7.47l-0.062 0.043c-0.604-0.876-1.171-1.649-1.157-1.682-0.405-0.428-0.61-1.055-1.248-1.249-0.034 0.081-3.015-4.368-3.824-5.235 0.281-1.23-1.331-5.662-1.022-5.822 1.133 1.891 6.904 10.285 7.229 10.49-0.054 0.434 1.313 1.185 1.589 1.589-6e-3 0.181 0.065 0.351 0.193 0.504l6e-3 0.053c-0.58 0.42-1.18 0.87-1.71 1.32zm2.52-1.87l-0.11 0.052c-0.601-0.416-1.129-0.878-1.498-1.426 0 0-4.626-6.487-6.708-9.288 6e-3 1e-3 0.375-0.113 0.381-0.112 1.593 2.08 6.015 6.614 9.672 9.469 0.03 0.13-0.75 0.63-1.73 1.31zm2.49-1.9c-1.862-1.574-4.131-3.525-6.147-5.281 0.345 0.168 0.835 0.192 1.28 0.26 1.53 0.343 5.31 2.483 6.811 3.632-0.52 0.59-1.18 1.04-1.94 1.39zm11.37-5.25c0.726-0.12 0.828 0.383 1.589 0.228 0.536 0.183 1.21 0.227 1.362 0.794-0.267-2e-3 -0.333 0.196-0.681 0.113-0.145 0.155-3.973-0.113-3.973-0.113-0.767-0.086-1.087 0.275-1.703 0.341-1.83 0.288-3.341 0.896-5.335 1.021-0.636-0.688-2.985-1.282-3.406-1.362-1.729-0.746-4.33-1.574-5.108-2.725-0.663-0.774-1.728-1.146-2.724-1.589 0 0-3.395-2.13-3.52-3.064 0.226-0.144 0.538-0.033 0.817-0.037v1e-3c0.2 0.367 2.161 0.577 2.475 0.83l1.362 0.795c0.295 0.041 0.552 0.186 0.79 0.247 0.796 0.615 6.782 2.645 7.269 2.932 0.544 0.175 1.275 0.162 1.816 0.341 0.382 0.072 1.054-0.146 1.249 0.113 1.637-0.199 2.172 0.703 3.291 1.021 1.24-0.68 2.98-0.02 4.41 0.12zm-7.35-3.07zm-27.46-13.07c3.099 1.063 5.841 2.483 8.854 3.632 0.307 0.262 0.366 0.771 0.794 0.908 1.35-0.372 1.993 0.814 2.838 1.249 0.35 0.181 0.79 0.102 1.135 0.228 0.635 0.229 1.262 0.618 1.989 0.734 0.768 0.493 2.706 1.047 3.981 1.303 0.682 1.123 4.364 3.147 5.919 4.413 0.087 0.151 0.215 0.256 0.376 0.335 1e-3 1e-3 2e-3 2e-3 3e-3 2e-3l-1e-3 -1e-3c0.014 6e-3 0.03 0.011 0.045 0.019-0.014-7e-3 -0.03-0.012-0.044-0.018 0.142 0.142 0.875 0.246 0.856 0.492l1.477 0.113c1.148 0.441 2.58 0.599 3.178 1.59-2.132 0.424-3.375-1.011-5.676-0.795-0.315-0.289-0.757-0.453-1.135-0.681h-0.34c-1.171-0.077-4.985-1.611-7.054-2.129-0.78-0.473-3.965-2.012-4.782-2.045-0.919-1.065-3.897-2.833-4.283-2.864-0.39-0.178-5.412-4.384-5.564-3.632-0.346-1.272-2.166-1.07-2.566-2.285-0.428 0.087-0.542-0.139-0.908-0.114-0.092-0.551-0.77-0.518-0.681-1.249 0.89-0.09 1.13 0.46 1.57 0.81z"/>
		</g>
</svg>