<svg version="1.1" id="Layer_1" xmlns="http://www.w3.org/2000/svg" xmlns:xlink="http://www.w3.org/1999/xlink" x="0px" y="0px"
	 viewBox="0 0 511.999 511.999" style="enable-background:new 0 0 511.999 511.999;" xml:space="preserve" preserveAspectRatio="xMidYMid meet" fill="white">
<style>
      
      .font__svg__princiless {font: bold 300px sans-serif;}
    </style>
<defs>
   
    <pattern id="GPattern" x="10" y="10" width="400" height="400"
             patternUnits="userSpaceOnUse"
             patternTransform="rotate(45,-400,400)">
      <animateTransform attributeType="xml"
                        attributeName="patternTransform"
                        type="rotate" from="395" to="35" begin="0"
                        dur="50s" repeatCount="indefinite"/>
      <g transform="scale(5)">
       <rect x="0px" y="0px" width="100%" height="100%" opacity="1" fill="white"/>
       <ellipse cx="10" cy="10" rx="4.5" ry="3.7" stroke="none" fill="red" />
       <circle cx="9" cy="12" r="1" stroke="none" fill="black"/>
       <circle cx="11" cy="9" r="1" stroke="none" fill="black"/>
       <ellipse cx="15" cy="10" rx="1" ry="2" stroke="none" fill="black" />
      </g>     
    </pattern>
  </defs>
<g fill="url(#GPattern)">
		<path d="M430.163,77.016c0-40.429-32.892-73.32-73.32-73.32H240.78c-5.289,0-9.575,4.286-9.575,9.575s4.286,9.575,9.575,9.575
			h116.063c29.869,0,54.17,24.3,54.17,54.17c0,29.866-24.293,54.164-54.17,54.17H139.796c0.919-0.839,1.818-1.7,2.694-2.584
			c13.491-13.615,21.266-32.414,21.266-51.587c0-20.045-8.544-39.648-23.128-53.374c-0.28-0.263-0.546-0.537-0.83-0.797h56.304
			c5.289,0,9.575-4.286,9.575-9.575s-4.286-9.575-9.575-9.575c0,0-105.664,0-105.665,0c-31.931,0-60.842,16.32-77.341,43.658
			c-16.498,27.337-17.463,60.524-2.581,88.774l118.798,225.535H95.277c-40.428,0-73.32,32.891-73.32,73.32s32.892,73.32,73.32,73.32
			c0.027,0,0.052-0.001,0.078-0.001h247.609c5.289,0,9.575-4.286,9.575-9.575s-4.287-9.573-9.576-9.573c0,0-195.544,0-195.559,0
			c1.764,0,6.043-5.742,7.172-6.989c17.747-19.618,25.167-48.132,18.443-73.982c-2.737-10.522-8.091-19.987-13.121-29.534
			L27.455,127.206C15.728,104.945,16.489,78.792,29.49,57.25c13.001-21.543,35.785-34.403,60.947-34.403
			c29.869,0,54.17,24.3,54.17,54.17c0,29.87-24.3,54.17-54.17,54.17c-5.289,0-9.575,4.286-9.575,9.576
			c0,5.289,4.286,9.575,9.575,9.575h260.695l31.745,58.803c2.512,4.654,8.318,6.387,12.973,3.877
			c4.655-2.512,6.389-8.321,3.877-12.973l-27.693-51.301C405.196,141.729,430.163,112.238,430.163,77.016z M150.812,402.714
			c3.922,8.533,5.779,17.635,5.584,26.694c-0.706,32.866-28.393,59.744-61.136,59.744c-29.861-0.006-54.154-24.304-54.154-54.168
			c0-29.869,24.3-54.17,54.17-54.17h44.118C143.215,388.065,147.442,395.241,150.812,402.714z"/>
		<path d="M502.27,389.999l-78.422-145.272c-2.514-4.655-8.322-6.389-12.973-3.877c-4.655,2.512-6.389,8.321-3.877,12.973
			l78.423,145.272c10.313,19.103,9.829,41.639-1.293,60.283c-11.123,18.645-30.724,29.776-52.434,29.776h-44.048
			c-5.289,0-9.575,4.286-9.575,9.575s4.286,9.575,9.575,9.575h44.048c28.519,0,54.269-14.622,68.88-39.114
			C515.184,444.697,515.818,415.093,502.27,389.999z"/>
	<text class="font__svg__princiless" text-anchor="middle" x="55%" y="80%">1</text>
	
	</g>
</svg>